<?xml version="1.0" encoding="UTF-8"?>
<svg width="1035px" height="1113px" viewBox="0 0 1035 1113" version="1.1" xmlns="http://www.w3.org/2000/svg" xmlns:xlink="http://www.w3.org/1999/xlink">
    <title>Artboard</title>
    <g id="Artboard" stroke="none" stroke-width="1" fill="none" fill-rule="evenodd">
        <g id="chart-(3)" transform="translate(-133.000000, 0.000000)" fill-rule="nonzero">
            <polygon id="Path" fill="#FFFFFF" points="0 0 600 0 600 371 0 371"></polygon>
            <path d="M153.7006,105.07122 C183.0377,51.70724 239.10353,18.55 300,18.55 L300,102.025 C269.55176,102.025 241.51884,118.60362 226.8503,145.28561 L153.7006,105.07122 Z" id="Path" fill="#EFEFEF"></path>
            <path d="M300,18.55 C375.2377,18.55 441.17966,68.87531 461.03287,141.4464 C480.88608,214.01749 449.74472,290.90176 384.98447,329.20087 C320.2242,367.5 237.84753,357.75006 183.81735,305.39117 C129.78719,253.0323 117.45456,171.00253 153.7006,105.07122 L226.8503,145.28561 C208.72728,178.25127 214.89359,219.26616 241.90868,245.44559 C268.92377,271.62503 310.1121,276.5 342.49222,257.35043 C374.87234,238.20088 390.44302,199.75874 380.51642,163.47319 C370.58984,127.18765 337.61887,102.025 300,102.025 L300,18.55 Z" id="Path" fill="#F1C232"></path>
        </g>
        <g id="chart-(4)" transform="translate(-133.000000, 371.000000)" fill-rule="nonzero">
            <polygon id="Path" fill="#FFFFFF" points="0 0 600 0 600 371 0 371"></polygon>
            <path d="M300,18.55 C359.02133,18.55 413.6566,49.713406 443.70087,100.51553 C473.74518,151.31767 474.73312,214.208 446.2994,265.92877 L373.1497,225.71439 C387.36658,199.854 386.8726,168.40883 371.85043,143.00777 C356.82828,117.606705 329.51065,102.025 300,102.025 L300,18.55 Z" id="Path" fill="#CC0000"></path>
            <path d="M446.2994,265.92877 C407.05573,337.31274 322.02463,369.95312 245.09572,343.16364 C168.16678,316.37415 121.80297,237.97723 135.38795,157.65796 C148.97295,77.33869 218.53996,18.55 300,18.55 L300,102.025 C259.27,102.025 224.48648,131.41934 217.69398,171.57898 C210.90149,211.73862 234.08339,250.93707 272.54785,264.33182 C311.01233,277.72656 353.52786,261.40637 373.1497,225.71439 L446.2994,265.92877 Z" id="Path" fill="#EFEFEF"></path>
        </g>
        <g id="chart-(5)" transform="translate(-133.000000, 742.000000)" fill-rule="nonzero">
            <polygon id="Path" fill="#FFFFFF" points="0 0 600 0 600 371 0 371"></polygon>
            <path d="M300,18.55 C392.20395,18.55 466.95,93.29606 466.95,185.5 L383.475,185.5 C383.475,139.39803 346.10196,102.025 300,102.025 L300,18.55 Z" id="Path" fill="#3D85C6"></path>
            <path d="M466.95,185.5 C466.95,277.70395 392.20395,352.45 300,352.45 C207.79607,352.45 133.05,277.70395 133.05,185.5 C133.05,93.29606 207.79607,18.55 300,18.55 L300,102.025 C253.89803,102.025 216.525,139.39803 216.525,185.5 C216.525,231.60197 253.89803,268.975 300,268.975 C346.10196,268.975 383.475,231.60197 383.475,185.5 L466.95,185.5 Z" id="Path" fill="#EFEFEF"></path>
        </g>
        <g id="Group" transform="translate(289.000000, 134.000000)" stroke="#2F274C">
            <line x1="5.5" y1="47" x2="127" y2="0.5" id="Line-2" stroke-width="5" stroke-linecap="square"></line>
            <circle id="Oval" fill="#2F274C" cx="5" cy="46.5" r="5"></circle>
        </g>
        <g id="Group-Copy-2" transform="translate(289.000000, 505.000000)" stroke="#2F274C">
            <line x1="5.5" y1="47" x2="127" y2="0.5" id="Line-2" stroke-width="5" stroke-linecap="square"></line>
            <circle id="Oval" fill="#2F274C" cx="5" cy="46.5" r="5"></circle>
        </g>
        <g id="Group-Copy" transform="translate(250.000000, 798.000000)" stroke="#2F274C">
            <line x1="4.15473282" y1="113.303047" x2="174.208427" y2="49.9543735" id="Line-2" stroke-width="5" stroke-linecap="square" transform="translate(89.654733, 81.303047) rotate(41.942651) translate(-89.654733, -81.303047) "></line>
            <circle id="Oval" fill="#2F274C" cx="5" cy="47.5" r="5"></circle>
        </g>
        <text id="83%-of-our-users-lik" font-family="SourceSansPro-SemiBold, Source Sans Pro" font-size="30" font-weight="500" letter-spacing="-1.09090911" fill="#363738">
            <tspan x="437" y="145">83% of our users like to shop with their eyes</tspan>
        </text>
        <text id="33%-of-our-users-sea" font-family="SourceSansPro-SemiBold, Source Sans Pro" font-size="30" font-weight="500" letter-spacing="-1.09090911" fill="#363738">
            <tspan x="437" y="516">33% of our users search and filter based on </tspan>
            <tspan x="437" y="554">identifying the brand they usually purchase</tspan>
        </text>
        <text id="25%-of-our-users-hav" font-family="SourceSansPro-SemiBold, Source Sans Pro" font-size="30" font-weight="500" letter-spacing="-1.09090911" fill="#363738">
            <tspan x="437" y="912">25% of our users have tried some form of shopping </tspan>
            <tspan x="437" y="950">for groceries online</tspan>
        </text>
    </g>
</svg>