<svg width="1440" height="1024" viewBox="0 0 1440 1024" fill="none" xmlns="http://www.w3.org/2000/svg">
<rect width="1440" height="1024" fill="white"/>
<path d="M572.471 704.547C684.293 704.547 774.942 613.897 774.942 502.076C774.942 390.254 684.293 299.605 572.471 299.605C460.649 299.605 370 390.254 370 502.076C370 613.897 460.649 704.547 572.471 704.547Z" fill="#D4F4DD" fill-opacity="0.178185"/>
<path d="M1171.84 706.68C1182.8 706.68 1191.68 697.798 1191.68 686.84C1191.68 675.883 1182.8 667 1171.84 667C1160.88 667 1152 675.883 1152 686.84C1152 697.798 1160.88 706.68 1171.84 706.68Z" fill="#FBDC8E"/>
<path d="M265.14 261.279C269.635 261.279 273.279 257.635 273.279 253.14C273.279 248.644 269.635 245 265.14 245C260.644 245 257 248.644 257 253.14C257 257.635 260.644 261.279 265.14 261.279Z" fill="#0E7C7B"/>
<path fill-rule="evenodd" clip-rule="evenodd" d="M211 795.134L222.017 873.521L301.238 862.388L211 795.134Z" fill="#17BEBB" fill-opacity="0.2"/>
<path d="M864.052 235.105C865.738 235.105 867.105 233.738 867.105 232.052C867.105 230.367 865.738 229 864.052 229C862.367 229 861 230.367 861 232.052C861 233.738 862.367 235.105 864.052 235.105Z" fill="#FA9E9F" fill-opacity="0.1782"/>
<path d="M874.227 235.105C875.912 235.105 877.279 233.738 877.279 232.052C877.279 230.367 875.912 229 874.227 229C872.541 229 871.174 230.367 871.174 232.052C871.174 233.738 872.541 235.105 874.227 235.105Z" fill="#FA9E9F" fill-opacity="0.1782"/>
<path d="M884.401 235.105C886.087 235.105 887.454 233.738 887.454 232.052C887.454 230.367 886.087 229 884.401 229C882.715 229 881.349 230.367 881.349 232.052C881.349 233.738 882.715 235.105 884.401 235.105Z" fill="#FA9E9F" fill-opacity="0.1782"/>
<path d="M864.052 245.279C865.738 245.279 867.105 243.912 867.105 242.227C867.105 240.541 865.738 239.174 864.052 239.174C862.367 239.174 861 240.541 861 242.227C861 243.912 862.367 245.279 864.052 245.279Z" fill="#FA9E9F" fill-opacity="0.1782"/>
<path d="M874.227 245.279C875.912 245.279 877.279 243.912 877.279 242.227C877.279 240.541 875.912 239.174 874.227 239.174C872.541 239.174 871.174 240.541 871.174 242.227C871.174 243.912 872.541 245.279 874.227 245.279Z" fill="#FA9E9F" fill-opacity="0.1782"/>
<path d="M884.401 245.279C886.087 245.279 887.454 243.912 887.454 242.227C887.454 240.541 886.087 239.174 884.401 239.174C882.715 239.174 881.349 240.541 881.349 242.227C881.349 243.912 882.715 245.279 884.401 245.279Z" fill="#FA9E9F" fill-opacity="0.1782"/>
<path d="M864.052 255.454C865.738 255.454 867.105 254.087 867.105 252.401C867.105 250.715 865.738 249.349 864.052 249.349C862.367 249.349 861 250.715 861 252.401C861 254.087 862.367 255.454 864.052 255.454Z" fill="#FA9E9F" fill-opacity="0.1782"/>
<path d="M874.227 255.454C875.912 255.454 877.279 254.087 877.279 252.401C877.279 250.715 875.912 249.349 874.227 249.349C872.541 249.349 871.174 250.715 871.174 252.401C871.174 254.087 872.541 255.454 874.227 255.454Z" fill="#FA9E9F" fill-opacity="0.1782"/>
<path d="M884.401 255.454C886.087 255.454 887.454 254.087 887.454 252.401C887.454 250.715 886.087 249.349 884.401 249.349C882.715 249.349 881.349 250.715 881.349 252.401C881.349 254.087 882.715 255.454 884.401 255.454Z" fill="#FA9E9F" fill-opacity="0.1782"/>
<path d="M864.052 265.628C865.738 265.628 867.105 264.261 867.105 262.576C867.105 260.89 865.738 259.523 864.052 259.523C862.367 259.523 861 260.89 861 262.576C861 264.261 862.367 265.628 864.052 265.628Z" fill="#FA9E9F" fill-opacity="0.1782"/>
<path d="M874.227 265.628C875.912 265.628 877.279 264.261 877.279 262.576C877.279 260.89 875.912 259.523 874.227 259.523C872.541 259.523 871.174 260.89 871.174 262.576C871.174 264.261 872.541 265.628 874.227 265.628Z" fill="#FA9E9F" fill-opacity="0.1782"/>
<path d="M884.401 265.628C886.087 265.628 887.454 264.261 887.454 262.576C887.454 260.89 886.087 259.523 884.401 259.523C882.715 259.523 881.349 260.89 881.349 262.576C881.349 264.261 882.715 265.628 884.401 265.628Z" fill="#FA9E9F" fill-opacity="0.1782"/>
<path d="M864.052 275.802C865.738 275.802 867.105 274.436 867.105 272.75C867.105 271.064 865.738 269.698 864.052 269.698C862.367 269.698 861 271.064 861 272.75C861 274.436 862.367 275.802 864.052 275.802Z" fill="#FA9E9F" fill-opacity="0.1782"/>
<path d="M874.227 275.802C875.912 275.802 877.279 274.436 877.279 272.75C877.279 271.064 875.912 269.698 874.227 269.698C872.541 269.698 871.174 271.064 871.174 272.75C871.174 274.436 872.541 275.802 874.227 275.802Z" fill="#FA9E9F" fill-opacity="0.1782"/>
<path d="M884.401 275.802C886.087 275.802 887.454 274.436 887.454 272.75C887.454 271.064 886.087 269.698 884.401 269.698C882.715 269.698 881.349 271.064 881.349 272.75C881.349 274.436 882.715 275.802 884.401 275.802Z" fill="#FA9E9F" fill-opacity="0.1782"/>
<path d="M894.576 235.105C896.261 235.105 897.628 233.738 897.628 232.052C897.628 230.367 896.261 229 894.576 229C892.89 229 891.523 230.367 891.523 232.052C891.523 233.738 892.89 235.105 894.576 235.105Z" fill="#FA9E9F" fill-opacity="0.1782"/>
<path d="M904.75 235.105C906.436 235.105 907.802 233.738 907.802 232.052C907.802 230.367 906.436 229 904.75 229C903.064 229 901.698 230.367 901.698 232.052C901.698 233.738 903.064 235.105 904.75 235.105Z" fill="#FA9E9F" fill-opacity="0.1782"/>
<path d="M914.924 235.105C916.61 235.105 917.977 233.738 917.977 232.052C917.977 230.367 916.61 229 914.924 229C913.239 229 911.872 230.367 911.872 232.052C911.872 233.738 913.239 235.105 914.924 235.105Z" fill="#FA9E9F" fill-opacity="0.1782"/>
<path d="M894.576 245.279C896.261 245.279 897.628 243.912 897.628 242.227C897.628 240.541 896.261 239.174 894.576 239.174C892.89 239.174 891.523 240.541 891.523 242.227C891.523 243.912 892.89 245.279 894.576 245.279Z" fill="#FA9E9F" fill-opacity="0.1782"/>
<path d="M904.75 245.279C906.436 245.279 907.802 243.912 907.802 242.227C907.802 240.541 906.436 239.174 904.75 239.174C903.064 239.174 901.698 240.541 901.698 242.227C901.698 243.912 903.064 245.279 904.75 245.279Z" fill="#FA9E9F" fill-opacity="0.1782"/>
<path d="M914.924 245.279C916.61 245.279 917.977 243.912 917.977 242.227C917.977 240.541 916.61 239.174 914.924 239.174C913.239 239.174 911.872 240.541 911.872 242.227C911.872 243.912 913.239 245.279 914.924 245.279Z" fill="#FA9E9F" fill-opacity="0.1782"/>
<path d="M894.576 255.454C896.261 255.454 897.628 254.087 897.628 252.401C897.628 250.715 896.261 249.349 894.576 249.349C892.89 249.349 891.523 250.715 891.523 252.401C891.523 254.087 892.89 255.454 894.576 255.454Z" fill="#FA9E9F" fill-opacity="0.1782"/>
<path d="M904.75 255.454C906.436 255.454 907.802 254.087 907.802 252.401C907.802 250.715 906.436 249.349 904.75 249.349C903.064 249.349 901.698 250.715 901.698 252.401C901.698 254.087 903.064 255.454 904.75 255.454Z" fill="#FA9E9F" fill-opacity="0.1782"/>
<path d="M914.924 255.454C916.61 255.454 917.977 254.087 917.977 252.401C917.977 250.715 916.61 249.349 914.924 249.349C913.239 249.349 911.872 250.715 911.872 252.401C911.872 254.087 913.239 255.454 914.924 255.454Z" fill="#FA9E9F" fill-opacity="0.1782"/>
<path d="M894.576 265.628C896.261 265.628 897.628 264.261 897.628 262.576C897.628 260.89 896.261 259.523 894.576 259.523C892.89 259.523 891.523 260.89 891.523 262.576C891.523 264.261 892.89 265.628 894.576 265.628Z" fill="#FA9E9F" fill-opacity="0.1782"/>
<path d="M904.75 265.628C906.436 265.628 907.802 264.261 907.802 262.576C907.802 260.89 906.436 259.523 904.75 259.523C903.064 259.523 901.698 260.89 901.698 262.576C901.698 264.261 903.064 265.628 904.75 265.628Z" fill="#FA9E9F" fill-opacity="0.1782"/>
<path d="M914.924 265.628C916.61 265.628 917.977 264.261 917.977 262.576C917.977 260.89 916.61 259.523 914.924 259.523C913.239 259.523 911.872 260.89 911.872 262.576C911.872 264.261 913.239 265.628 914.924 265.628Z" fill="#FA9E9F" fill-opacity="0.1782"/>
<path d="M894.576 275.802C896.261 275.802 897.628 274.436 897.628 272.75C897.628 271.064 896.261 269.698 894.576 269.698C892.89 269.698 891.523 271.064 891.523 272.75C891.523 274.436 892.89 275.802 894.576 275.802Z" fill="#FA9E9F" fill-opacity="0.1782"/>
<path d="M904.75 275.802C906.436 275.802 907.802 274.436 907.802 272.75C907.802 271.064 906.436 269.698 904.75 269.698C903.064 269.698 901.698 271.064 901.698 272.75C901.698 274.436 903.064 275.802 904.75 275.802Z" fill="#FA9E9F" fill-opacity="0.1782"/>
<path d="M914.924 275.802C916.61 275.802 917.977 274.436 917.977 272.75C917.977 271.064 916.61 269.698 914.924 269.698C913.239 269.698 911.872 271.064 911.872 272.75C911.872 274.436 913.239 275.802 914.924 275.802Z" fill="#FA9E9F" fill-opacity="0.1782"/>
<path d="M925.099 235.105C926.784 235.105 928.151 233.738 928.151 232.052C928.151 230.367 926.784 229 925.099 229C923.413 229 922.046 230.367 922.046 232.052C922.046 233.738 923.413 235.105 925.099 235.105Z" fill="#FA9E9F" fill-opacity="0.1782"/>
<path d="M935.273 235.105C936.959 235.105 938.326 233.738 938.326 232.052C938.326 230.367 936.959 229 935.273 229C933.588 229 932.221 230.367 932.221 232.052C932.221 233.738 933.588 235.105 935.273 235.105Z" fill="#FA9E9F" fill-opacity="0.1782"/>
<path d="M945.448 235.105C947.133 235.105 948.5 233.738 948.5 232.052C948.5 230.367 947.133 229 945.448 229C943.762 229 942.395 230.367 942.395 232.052C942.395 233.738 943.762 235.105 945.448 235.105Z" fill="#FA9E9F" fill-opacity="0.1782"/>
<path d="M925.099 245.279C926.784 245.279 928.151 243.912 928.151 242.227C928.151 240.541 926.784 239.174 925.099 239.174C923.413 239.174 922.046 240.541 922.046 242.227C922.046 243.912 923.413 245.279 925.099 245.279Z" fill="#FA9E9F" fill-opacity="0.1782"/>
<path d="M935.273 245.279C936.959 245.279 938.326 243.912 938.326 242.227C938.326 240.541 936.959 239.174 935.273 239.174C933.588 239.174 932.221 240.541 932.221 242.227C932.221 243.912 933.588 245.279 935.273 245.279Z" fill="#FA9E9F" fill-opacity="0.1782"/>
<path d="M945.448 245.279C947.133 245.279 948.5 243.912 948.5 242.227C948.5 240.541 947.133 239.174 945.448 239.174C943.762 239.174 942.395 240.541 942.395 242.227C942.395 243.912 943.762 245.279 945.448 245.279Z" fill="#FA9E9F" fill-opacity="0.1782"/>
<path d="M925.099 255.454C926.784 255.454 928.151 254.087 928.151 252.401C928.151 250.715 926.784 249.349 925.099 249.349C923.413 249.349 922.046 250.715 922.046 252.401C922.046 254.087 923.413 255.454 925.099 255.454Z" fill="#FA9E9F" fill-opacity="0.1782"/>
<path d="M935.273 255.454C936.959 255.454 938.326 254.087 938.326 252.401C938.326 250.715 936.959 249.349 935.273 249.349C933.588 249.349 932.221 250.715 932.221 252.401C932.221 254.087 933.588 255.454 935.273 255.454Z" fill="#FA9E9F" fill-opacity="0.1782"/>
<path d="M945.448 255.454C947.133 255.454 948.5 254.087 948.5 252.401C948.5 250.715 947.133 249.349 945.448 249.349C943.762 249.349 942.395 250.715 942.395 252.401C942.395 254.087 943.762 255.454 945.448 255.454Z" fill="#FA9E9F" fill-opacity="0.1782"/>
<path d="M925.099 265.628C926.784 265.628 928.151 264.261 928.151 262.576C928.151 260.89 926.784 259.523 925.099 259.523C923.413 259.523 922.046 260.89 922.046 262.576C922.046 264.261 923.413 265.628 925.099 265.628Z" fill="#FA9E9F" fill-opacity="0.1782"/>
<path d="M935.273 265.628C936.959 265.628 938.326 264.261 938.326 262.576C938.326 260.89 936.959 259.523 935.273 259.523C933.588 259.523 932.221 260.89 932.221 262.576C932.221 264.261 933.588 265.628 935.273 265.628Z" fill="#FA9E9F" fill-opacity="0.1782"/>
<path d="M945.448 265.628C947.133 265.628 948.5 264.261 948.5 262.576C948.5 260.89 947.133 259.523 945.448 259.523C943.762 259.523 942.395 260.89 942.395 262.576C942.395 264.261 943.762 265.628 945.448 265.628Z" fill="#FA9E9F" fill-opacity="0.1782"/>
<path d="M925.099 275.802C926.784 275.802 928.151 274.436 928.151 272.75C928.151 271.064 926.784 269.698 925.099 269.698C923.413 269.698 922.046 271.064 922.046 272.75C922.046 274.436 923.413 275.802 925.099 275.802Z" fill="#FA9E9F" fill-opacity="0.1782"/>
<path d="M935.273 275.802C936.959 275.802 938.326 274.436 938.326 272.75C938.326 271.064 936.959 269.698 935.273 269.698C933.588 269.698 932.221 271.064 932.221 272.75C932.221 274.436 933.588 275.802 935.273 275.802Z" fill="#FA9E9F" fill-opacity="0.1782"/>
<path d="M945.448 275.802C947.133 275.802 948.5 274.436 948.5 272.75C948.5 271.064 947.133 269.698 945.448 269.698C943.762 269.698 942.395 271.064 942.395 272.75C942.395 274.436 943.762 275.802 945.448 275.802Z" fill="#FA9E9F" fill-opacity="0.1782"/>
<path d="M864.052 285.977C865.738 285.977 867.105 284.61 867.105 282.924C867.105 281.239 865.738 279.872 864.052 279.872C862.367 279.872 861 281.239 861 282.924C861 284.61 862.367 285.977 864.052 285.977Z" fill="#FA9E9F" fill-opacity="0.1782"/>
<path d="M874.227 285.977C875.912 285.977 877.279 284.61 877.279 282.924C877.279 281.239 875.912 279.872 874.227 279.872C872.541 279.872 871.174 281.239 871.174 282.924C871.174 284.61 872.541 285.977 874.227 285.977Z" fill="#FA9E9F" fill-opacity="0.1782"/>
<path d="M884.401 285.977C886.087 285.977 887.454 284.61 887.454 282.924C887.454 281.239 886.087 279.872 884.401 279.872C882.715 279.872 881.349 281.239 881.349 282.924C881.349 284.61 882.715 285.977 884.401 285.977Z" fill="#FA9E9F" fill-opacity="0.1782"/>
<path d="M864.052 296.151C865.738 296.151 867.105 294.784 867.105 293.099C867.105 291.413 865.738 290.046 864.052 290.046C862.367 290.046 861 291.413 861 293.099C861 294.784 862.367 296.151 864.052 296.151Z" fill="#FA9E9F" fill-opacity="0.1782"/>
<path d="M874.227 296.151C875.912 296.151 877.279 294.784 877.279 293.099C877.279 291.413 875.912 290.046 874.227 290.046C872.541 290.046 871.174 291.413 871.174 293.099C871.174 294.784 872.541 296.151 874.227 296.151Z" fill="#FA9E9F" fill-opacity="0.1782"/>
<path d="M884.401 296.151C886.087 296.151 887.454 294.784 887.454 293.099C887.454 291.413 886.087 290.046 884.401 290.046C882.715 290.046 881.349 291.413 881.349 293.099C881.349 294.784 882.715 296.151 884.401 296.151Z" fill="#FA9E9F" fill-opacity="0.1782"/>
<path d="M864.052 306.326C865.738 306.326 867.105 304.959 867.105 303.273C867.105 301.588 865.738 300.221 864.052 300.221C862.367 300.221 861 301.588 861 303.273C861 304.959 862.367 306.326 864.052 306.326Z" fill="#FA9E9F" fill-opacity="0.1782"/>
<path d="M874.227 306.326C875.912 306.326 877.279 304.959 877.279 303.273C877.279 301.588 875.912 300.221 874.227 300.221C872.541 300.221 871.174 301.588 871.174 303.273C871.174 304.959 872.541 306.326 874.227 306.326Z" fill="#FA9E9F" fill-opacity="0.1782"/>
<path d="M884.401 306.326C886.087 306.326 887.454 304.959 887.454 303.273C887.454 301.588 886.087 300.221 884.401 300.221C882.715 300.221 881.349 301.588 881.349 303.273C881.349 304.959 882.715 306.326 884.401 306.326Z" fill="#FA9E9F" fill-opacity="0.1782"/>
<path d="M864.052 316.5C865.738 316.5 867.105 315.133 867.105 313.448C867.105 311.762 865.738 310.395 864.052 310.395C862.367 310.395 861 311.762 861 313.448C861 315.133 862.367 316.5 864.052 316.5Z" fill="#FA9E9F" fill-opacity="0.1782"/>
<path d="M874.227 316.5C875.912 316.5 877.279 315.133 877.279 313.448C877.279 311.762 875.912 310.395 874.227 310.395C872.541 310.395 871.174 311.762 871.174 313.448C871.174 315.133 872.541 316.5 874.227 316.5Z" fill="#FA9E9F" fill-opacity="0.1782"/>
<path d="M884.401 316.5C886.087 316.5 887.454 315.133 887.454 313.448C887.454 311.762 886.087 310.395 884.401 310.395C882.715 310.395 881.349 311.762 881.349 313.448C881.349 315.133 882.715 316.5 884.401 316.5Z" fill="#FA9E9F" fill-opacity="0.1782"/>
<path d="M894.576 285.977C896.261 285.977 897.628 284.61 897.628 282.924C897.628 281.239 896.261 279.872 894.576 279.872C892.89 279.872 891.523 281.239 891.523 282.924C891.523 284.61 892.89 285.977 894.576 285.977Z" fill="#FA9E9F" fill-opacity="0.1782"/>
<path d="M904.75 285.977C906.436 285.977 907.802 284.61 907.802 282.924C907.802 281.239 906.436 279.872 904.75 279.872C903.064 279.872 901.698 281.239 901.698 282.924C901.698 284.61 903.064 285.977 904.75 285.977Z" fill="#FA9E9F" fill-opacity="0.1782"/>
<path d="M914.924 285.977C916.61 285.977 917.977 284.61 917.977 282.924C917.977 281.239 916.61 279.872 914.924 279.872C913.239 279.872 911.872 281.239 911.872 282.924C911.872 284.61 913.239 285.977 914.924 285.977Z" fill="#FA9E9F" fill-opacity="0.1782"/>
<path d="M894.576 296.151C896.261 296.151 897.628 294.784 897.628 293.099C897.628 291.413 896.261 290.046 894.576 290.046C892.89 290.046 891.523 291.413 891.523 293.099C891.523 294.784 892.89 296.151 894.576 296.151Z" fill="#FA9E9F" fill-opacity="0.1782"/>
<path d="M904.75 296.151C906.436 296.151 907.802 294.784 907.802 293.099C907.802 291.413 906.436 290.046 904.75 290.046C903.064 290.046 901.698 291.413 901.698 293.099C901.698 294.784 903.064 296.151 904.75 296.151Z" fill="#FA9E9F" fill-opacity="0.1782"/>
<path d="M914.924 296.151C916.61 296.151 917.977 294.784 917.977 293.099C917.977 291.413 916.61 290.046 914.924 290.046C913.239 290.046 911.872 291.413 911.872 293.099C911.872 294.784 913.239 296.151 914.924 296.151Z" fill="#FA9E9F" fill-opacity="0.1782"/>
<path d="M894.576 306.326C896.261 306.326 897.628 304.959 897.628 303.273C897.628 301.588 896.261 300.221 894.576 300.221C892.89 300.221 891.523 301.588 891.523 303.273C891.523 304.959 892.89 306.326 894.576 306.326Z" fill="#FA9E9F" fill-opacity="0.1782"/>
<path d="M904.75 306.326C906.436 306.326 907.802 304.959 907.802 303.273C907.802 301.588 906.436 300.221 904.75 300.221C903.064 300.221 901.698 301.588 901.698 303.273C901.698 304.959 903.064 306.326 904.75 306.326Z" fill="#FA9E9F" fill-opacity="0.1782"/>
<path d="M914.924 306.326C916.61 306.326 917.977 304.959 917.977 303.273C917.977 301.588 916.61 300.221 914.924 300.221C913.239 300.221 911.872 301.588 911.872 303.273C911.872 304.959 913.239 306.326 914.924 306.326Z" fill="#FA9E9F" fill-opacity="0.1782"/>
<path d="M894.576 316.5C896.261 316.5 897.628 315.133 897.628 313.448C897.628 311.762 896.261 310.395 894.576 310.395C892.89 310.395 891.523 311.762 891.523 313.448C891.523 315.133 892.89 316.5 894.576 316.5Z" fill="#FA9E9F" fill-opacity="0.1782"/>
<path d="M904.75 316.5C906.436 316.5 907.802 315.133 907.802 313.448C907.802 311.762 906.436 310.395 904.75 310.395C903.064 310.395 901.698 311.762 901.698 313.448C901.698 315.133 903.064 316.5 904.75 316.5Z" fill="#FA9E9F" fill-opacity="0.1782"/>
<path d="M914.924 316.5C916.61 316.5 917.977 315.133 917.977 313.448C917.977 311.762 916.61 310.395 914.924 310.395C913.239 310.395 911.872 311.762 911.872 313.448C911.872 315.133 913.239 316.5 914.924 316.5Z" fill="#FA9E9F" fill-opacity="0.1782"/>
<path d="M925.099 285.977C926.784 285.977 928.151 284.61 928.151 282.924C928.151 281.239 926.784 279.872 925.099 279.872C923.413 279.872 922.046 281.239 922.046 282.924C922.046 284.61 923.413 285.977 925.099 285.977Z" fill="#FA9E9F" fill-opacity="0.1782"/>
<path d="M935.273 285.977C936.959 285.977 938.326 284.61 938.326 282.924C938.326 281.239 936.959 279.872 935.273 279.872C933.588 279.872 932.221 281.239 932.221 282.924C932.221 284.61 933.588 285.977 935.273 285.977Z" fill="#FA9E9F" fill-opacity="0.1782"/>
<path d="M945.448 285.977C947.133 285.977 948.5 284.61 948.5 282.924C948.5 281.239 947.133 279.872 945.448 279.872C943.762 279.872 942.395 281.239 942.395 282.924C942.395 284.61 943.762 285.977 945.448 285.977Z" fill="#FA9E9F" fill-opacity="0.1782"/>
<path d="M925.099 296.151C926.784 296.151 928.151 294.784 928.151 293.099C928.151 291.413 926.784 290.046 925.099 290.046C923.413 290.046 922.046 291.413 922.046 293.099C922.046 294.784 923.413 296.151 925.099 296.151Z" fill="#FA9E9F" fill-opacity="0.1782"/>
<path d="M935.273 296.151C936.959 296.151 938.326 294.784 938.326 293.099C938.326 291.413 936.959 290.046 935.273 290.046C933.588 290.046 932.221 291.413 932.221 293.099C932.221 294.784 933.588 296.151 935.273 296.151Z" fill="#FA9E9F" fill-opacity="0.1782"/>
<path d="M945.448 296.151C947.133 296.151 948.5 294.784 948.5 293.099C948.5 291.413 947.133 290.046 945.448 290.046C943.762 290.046 942.395 291.413 942.395 293.099C942.395 294.784 943.762 296.151 945.448 296.151Z" fill="#FA9E9F" fill-opacity="0.1782"/>
<path d="M925.099 306.326C926.784 306.326 928.151 304.959 928.151 303.273C928.151 301.588 926.784 300.221 925.099 300.221C923.413 300.221 922.046 301.588 922.046 303.273C922.046 304.959 923.413 306.326 925.099 306.326Z" fill="#FA9E9F" fill-opacity="0.1782"/>
<path d="M935.273 306.326C936.959 306.326 938.326 304.959 938.326 303.273C938.326 301.588 936.959 300.221 935.273 300.221C933.588 300.221 932.221 301.588 932.221 303.273C932.221 304.959 933.588 306.326 935.273 306.326Z" fill="#FA9E9F" fill-opacity="0.1782"/>
<path d="M945.448 306.326C947.133 306.326 948.5 304.959 948.5 303.273C948.5 301.588 947.133 300.221 945.448 300.221C943.762 300.221 942.395 301.588 942.395 303.273C942.395 304.959 943.762 306.326 945.448 306.326Z" fill="#FA9E9F" fill-opacity="0.1782"/>
<path d="M925.099 316.5C926.784 316.5 928.151 315.133 928.151 313.448C928.151 311.762 926.784 310.395 925.099 310.395C923.413 310.395 922.046 311.762 922.046 313.448C922.046 315.133 923.413 316.5 925.099 316.5Z" fill="#FA9E9F" fill-opacity="0.1782"/>
<path d="M935.273 316.5C936.959 316.5 938.326 315.133 938.326 313.448C938.326 311.762 936.959 310.395 935.273 310.395C933.588 310.395 932.221 311.762 932.221 313.448C932.221 315.133 933.588 316.5 935.273 316.5Z" fill="#FA9E9F" fill-opacity="0.1782"/>
<path d="M945.448 316.5C947.133 316.5 948.5 315.133 948.5 313.448C948.5 311.762 947.133 310.395 945.448 310.395C943.762 310.395 942.395 311.762 942.395 313.448C942.395 315.133 943.762 316.5 945.448 316.5Z" fill="#FA9E9F" fill-opacity="0.1782"/>
<path d="M903 1024C985.843 1024 1053 956.843 1053 874C1053 791.157 985.843 724 903 724C820.157 724 753 791.157 753 874C753 956.843 820.157 1024 903 1024Z" fill="#FA9E9F" fill-opacity="0.1782"/>
<path d="M487.052 44.1047C488.738 44.1047 490.105 42.7381 490.105 41.0523C490.105 39.3666 488.738 38 487.052 38C485.367 38 484 39.3666 484 41.0523C484 42.7381 485.367 44.1047 487.052 44.1047Z" fill="#FA9E9F" fill-opacity="0.1782"/>
<path d="M497.227 44.1047C498.912 44.1047 500.279 42.7381 500.279 41.0523C500.279 39.3666 498.912 38 497.227 38C495.541 38 494.174 39.3666 494.174 41.0523C494.174 42.7381 495.541 44.1047 497.227 44.1047Z" fill="#FA9E9F" fill-opacity="0.1782"/>
<path d="M507.401 44.1047C509.087 44.1047 510.454 42.7381 510.454 41.0523C510.454 39.3666 509.087 38 507.401 38C505.715 38 504.349 39.3666 504.349 41.0523C504.349 42.7381 505.715 44.1047 507.401 44.1047Z" fill="#FA9E9F" fill-opacity="0.1782"/>
<path d="M487.052 54.2791C488.738 54.2791 490.105 52.9125 490.105 51.2267C490.105 49.541 488.738 48.1744 487.052 48.1744C485.367 48.1744 484 49.541 484 51.2267C484 52.9125 485.367 54.2791 487.052 54.2791Z" fill="#FA9E9F" fill-opacity="0.1782"/>
<path d="M497.227 54.2791C498.912 54.2791 500.279 52.9125 500.279 51.2267C500.279 49.541 498.912 48.1744 497.227 48.1744C495.541 48.1744 494.174 49.541 494.174 51.2267C494.174 52.9125 495.541 54.2791 497.227 54.2791Z" fill="#FA9E9F" fill-opacity="0.1782"/>
<path d="M507.401 54.2791C509.087 54.2791 510.454 52.9125 510.454 51.2267C510.454 49.541 509.087 48.1744 507.401 48.1744C505.715 48.1744 504.349 49.541 504.349 51.2267C504.349 52.9125 505.715 54.2791 507.401 54.2791Z" fill="#FA9E9F" fill-opacity="0.1782"/>
<path d="M487.052 64.4536C488.738 64.4536 490.105 63.087 490.105 61.4012C490.105 59.7155 488.738 58.3489 487.052 58.3489C485.367 58.3489 484 59.7155 484 61.4012C484 63.087 485.367 64.4536 487.052 64.4536Z" fill="#FA9E9F" fill-opacity="0.1782"/>
<path d="M497.227 64.4536C498.912 64.4536 500.279 63.087 500.279 61.4012C500.279 59.7155 498.912 58.3489 497.227 58.3489C495.541 58.3489 494.174 59.7155 494.174 61.4012C494.174 63.087 495.541 64.4536 497.227 64.4536Z" fill="#FA9E9F" fill-opacity="0.1782"/>
<path d="M507.401 64.4536C509.087 64.4536 510.454 63.087 510.454 61.4012C510.454 59.7155 509.087 58.3489 507.401 58.3489C505.715 58.3489 504.349 59.7155 504.349 61.4012C504.349 63.087 505.715 64.4536 507.401 64.4536Z" fill="#FA9E9F" fill-opacity="0.1782"/>
<path d="M487.052 74.6279C488.738 74.6279 490.105 73.2613 490.105 71.5755C490.105 69.8898 488.738 68.5232 487.052 68.5232C485.367 68.5232 484 69.8898 484 71.5755C484 73.2613 485.367 74.6279 487.052 74.6279Z" fill="#FA9E9F" fill-opacity="0.1782"/>
<path d="M497.227 74.6279C498.912 74.6279 500.279 73.2613 500.279 71.5755C500.279 69.8898 498.912 68.5232 497.227 68.5232C495.541 68.5232 494.174 69.8898 494.174 71.5755C494.174 73.2613 495.541 74.6279 497.227 74.6279Z" fill="#FA9E9F" fill-opacity="0.1782"/>
<path d="M507.401 74.6279C509.087 74.6279 510.454 73.2613 510.454 71.5755C510.454 69.8898 509.087 68.5232 507.401 68.5232C505.715 68.5232 504.349 69.8898 504.349 71.5755C504.349 73.2613 505.715 74.6279 507.401 74.6279Z" fill="#FA9E9F" fill-opacity="0.1782"/>
<path d="M487.052 84.8024C488.738 84.8024 490.105 83.4358 490.105 81.7501C490.105 80.0643 488.738 78.6978 487.052 78.6978C485.367 78.6978 484 80.0643 484 81.7501C484 83.4358 485.367 84.8024 487.052 84.8024Z" fill="#FA9E9F" fill-opacity="0.1782"/>
<path d="M497.227 84.8024C498.912 84.8024 500.279 83.4358 500.279 81.7501C500.279 80.0643 498.912 78.6978 497.227 78.6978C495.541 78.6978 494.174 80.0643 494.174 81.7501C494.174 83.4358 495.541 84.8024 497.227 84.8024Z" fill="#FA9E9F" fill-opacity="0.1782"/>
<path d="M507.401 84.8024C509.087 84.8024 510.454 83.4358 510.454 81.7501C510.454 80.0643 509.087 78.6978 507.401 78.6978C505.715 78.6978 504.349 80.0643 504.349 81.7501C504.349 83.4358 505.715 84.8024 507.401 84.8024Z" fill="#FA9E9F" fill-opacity="0.1782"/>
<path d="M517.576 44.1047C519.261 44.1047 520.628 42.7381 520.628 41.0523C520.628 39.3666 519.261 38 517.576 38C515.89 38 514.523 39.3666 514.523 41.0523C514.523 42.7381 515.89 44.1047 517.576 44.1047Z" fill="#FA9E9F" fill-opacity="0.1782"/>
<path d="M527.75 44.1047C529.436 44.1047 530.802 42.7381 530.802 41.0523C530.802 39.3666 529.436 38 527.75 38C526.064 38 524.698 39.3666 524.698 41.0523C524.698 42.7381 526.064 44.1047 527.75 44.1047Z" fill="#FA9E9F" fill-opacity="0.1782"/>
<path d="M537.924 44.1047C539.61 44.1047 540.977 42.7381 540.977 41.0523C540.977 39.3666 539.61 38 537.924 38C536.239 38 534.872 39.3666 534.872 41.0523C534.872 42.7381 536.239 44.1047 537.924 44.1047Z" fill="#FA9E9F" fill-opacity="0.1782"/>
<path d="M517.576 54.2791C519.261 54.2791 520.628 52.9125 520.628 51.2267C520.628 49.541 519.261 48.1744 517.576 48.1744C515.89 48.1744 514.523 49.541 514.523 51.2267C514.523 52.9125 515.89 54.2791 517.576 54.2791Z" fill="#FA9E9F" fill-opacity="0.1782"/>
<path d="M527.75 54.2791C529.436 54.2791 530.802 52.9125 530.802 51.2267C530.802 49.541 529.436 48.1744 527.75 48.1744C526.064 48.1744 524.698 49.541 524.698 51.2267C524.698 52.9125 526.064 54.2791 527.75 54.2791Z" fill="#FA9E9F" fill-opacity="0.1782"/>
<path d="M537.924 54.2791C539.61 54.2791 540.977 52.9125 540.977 51.2267C540.977 49.541 539.61 48.1744 537.924 48.1744C536.239 48.1744 534.872 49.541 534.872 51.2267C534.872 52.9125 536.239 54.2791 537.924 54.2791Z" fill="#FA9E9F" fill-opacity="0.1782"/>
<path d="M517.576 64.4536C519.261 64.4536 520.628 63.087 520.628 61.4012C520.628 59.7155 519.261 58.3489 517.576 58.3489C515.89 58.3489 514.523 59.7155 514.523 61.4012C514.523 63.087 515.89 64.4536 517.576 64.4536Z" fill="#FA9E9F" fill-opacity="0.1782"/>
<path d="M527.75 64.4536C529.436 64.4536 530.802 63.087 530.802 61.4012C530.802 59.7155 529.436 58.3489 527.75 58.3489C526.064 58.3489 524.698 59.7155 524.698 61.4012C524.698 63.087 526.064 64.4536 527.75 64.4536Z" fill="#FA9E9F" fill-opacity="0.1782"/>
<path d="M537.924 64.4536C539.61 64.4536 540.977 63.087 540.977 61.4012C540.977 59.7155 539.61 58.3489 537.924 58.3489C536.239 58.3489 534.872 59.7155 534.872 61.4012C534.872 63.087 536.239 64.4536 537.924 64.4536Z" fill="#FA9E9F" fill-opacity="0.1782"/>
<path d="M517.576 74.6279C519.261 74.6279 520.628 73.2613 520.628 71.5755C520.628 69.8898 519.261 68.5232 517.576 68.5232C515.89 68.5232 514.523 69.8898 514.523 71.5755C514.523 73.2613 515.89 74.6279 517.576 74.6279Z" fill="#FA9E9F" fill-opacity="0.1782"/>
<path d="M527.75 74.6279C529.436 74.6279 530.802 73.2613 530.802 71.5755C530.802 69.8898 529.436 68.5232 527.75 68.5232C526.064 68.5232 524.698 69.8898 524.698 71.5755C524.698 73.2613 526.064 74.6279 527.75 74.6279Z" fill="#FA9E9F" fill-opacity="0.1782"/>
<path d="M537.924 74.6279C539.61 74.6279 540.977 73.2613 540.977 71.5755C540.977 69.8898 539.61 68.5232 537.924 68.5232C536.239 68.5232 534.872 69.8898 534.872 71.5755C534.872 73.2613 536.239 74.6279 537.924 74.6279Z" fill="#FA9E9F" fill-opacity="0.1782"/>
<path d="M517.576 84.8024C519.261 84.8024 520.628 83.4358 520.628 81.7501C520.628 80.0643 519.261 78.6978 517.576 78.6978C515.89 78.6978 514.523 80.0643 514.523 81.7501C514.523 83.4358 515.89 84.8024 517.576 84.8024Z" fill="#FA9E9F" fill-opacity="0.1782"/>
<path d="M527.75 84.8024C529.436 84.8024 530.802 83.4358 530.802 81.7501C530.802 80.0643 529.436 78.6978 527.75 78.6978C526.064 78.6978 524.698 80.0643 524.698 81.7501C524.698 83.4358 526.064 84.8024 527.75 84.8024Z" fill="#FA9E9F" fill-opacity="0.1782"/>
<path d="M537.924 84.8024C539.61 84.8024 540.977 83.4358 540.977 81.7501C540.977 80.0643 539.61 78.6978 537.924 78.6978C536.239 78.6978 534.872 80.0643 534.872 81.7501C534.872 83.4358 536.239 84.8024 537.924 84.8024Z" fill="#FA9E9F" fill-opacity="0.1782"/>
<path d="M548.099 44.1047C549.784 44.1047 551.151 42.7381 551.151 41.0523C551.151 39.3666 549.784 38 548.099 38C546.413 38 545.046 39.3666 545.046 41.0523C545.046 42.7381 546.413 44.1047 548.099 44.1047Z" fill="#FA9E9F" fill-opacity="0.1782"/>
<path d="M558.273 44.1047C559.959 44.1047 561.326 42.7381 561.326 41.0523C561.326 39.3666 559.959 38 558.273 38C556.588 38 555.221 39.3666 555.221 41.0523C555.221 42.7381 556.588 44.1047 558.273 44.1047Z" fill="#FA9E9F" fill-opacity="0.1782"/>
<path d="M568.448 44.1047C570.133 44.1047 571.5 42.7381 571.5 41.0523C571.5 39.3666 570.133 38 568.448 38C566.762 38 565.395 39.3666 565.395 41.0523C565.395 42.7381 566.762 44.1047 568.448 44.1047Z" fill="#FA9E9F" fill-opacity="0.1782"/>
<path d="M548.099 54.2791C549.784 54.2791 551.151 52.9125 551.151 51.2267C551.151 49.541 549.784 48.1744 548.099 48.1744C546.413 48.1744 545.046 49.541 545.046 51.2267C545.046 52.9125 546.413 54.2791 548.099 54.2791Z" fill="#FA9E9F" fill-opacity="0.1782"/>
<path d="M558.273 54.2791C559.959 54.2791 561.326 52.9125 561.326 51.2267C561.326 49.541 559.959 48.1744 558.273 48.1744C556.588 48.1744 555.221 49.541 555.221 51.2267C555.221 52.9125 556.588 54.2791 558.273 54.2791Z" fill="#FA9E9F" fill-opacity="0.1782"/>
<path d="M568.448 54.2791C570.133 54.2791 571.5 52.9125 571.5 51.2267C571.5 49.541 570.133 48.1744 568.448 48.1744C566.762 48.1744 565.395 49.541 565.395 51.2267C565.395 52.9125 566.762 54.2791 568.448 54.2791Z" fill="#FA9E9F" fill-opacity="0.1782"/>
<path d="M548.099 64.4536C549.784 64.4536 551.151 63.087 551.151 61.4012C551.151 59.7155 549.784 58.3489 548.099 58.3489C546.413 58.3489 545.046 59.7155 545.046 61.4012C545.046 63.087 546.413 64.4536 548.099 64.4536Z" fill="#FA9E9F" fill-opacity="0.1782"/>
<path d="M558.273 64.4536C559.959 64.4536 561.326 63.087 561.326 61.4012C561.326 59.7155 559.959 58.3489 558.273 58.3489C556.588 58.3489 555.221 59.7155 555.221 61.4012C555.221 63.087 556.588 64.4536 558.273 64.4536Z" fill="#FA9E9F" fill-opacity="0.1782"/>
<path d="M568.448 64.4536C570.133 64.4536 571.5 63.087 571.5 61.4012C571.5 59.7155 570.133 58.3489 568.448 58.3489C566.762 58.3489 565.395 59.7155 565.395 61.4012C565.395 63.087 566.762 64.4536 568.448 64.4536Z" fill="#FA9E9F" fill-opacity="0.1782"/>
<path d="M548.099 74.6279C549.784 74.6279 551.151 73.2613 551.151 71.5755C551.151 69.8898 549.784 68.5232 548.099 68.5232C546.413 68.5232 545.046 69.8898 545.046 71.5755C545.046 73.2613 546.413 74.6279 548.099 74.6279Z" fill="#FA9E9F" fill-opacity="0.1782"/>
<path d="M558.273 74.6279C559.959 74.6279 561.326 73.2613 561.326 71.5755C561.326 69.8898 559.959 68.5232 558.273 68.5232C556.588 68.5232 555.221 69.8898 555.221 71.5755C555.221 73.2613 556.588 74.6279 558.273 74.6279Z" fill="#FA9E9F" fill-opacity="0.1782"/>
<path d="M568.448 74.6279C570.133 74.6279 571.5 73.2613 571.5 71.5755C571.5 69.8898 570.133 68.5232 568.448 68.5232C566.762 68.5232 565.395 69.8898 565.395 71.5755C565.395 73.2613 566.762 74.6279 568.448 74.6279Z" fill="#FA9E9F" fill-opacity="0.1782"/>
<path d="M548.099 84.8024C549.784 84.8024 551.151 83.4358 551.151 81.7501C551.151 80.0643 549.784 78.6978 548.099 78.6978C546.413 78.6978 545.046 80.0643 545.046 81.7501C545.046 83.4358 546.413 84.8024 548.099 84.8024Z" fill="#FA9E9F" fill-opacity="0.1782"/>
<path d="M558.273 84.8024C559.959 84.8024 561.326 83.4358 561.326 81.7501C561.326 80.0643 559.959 78.6978 558.273 78.6978C556.588 78.6978 555.221 80.0643 555.221 81.7501C555.221 83.4358 556.588 84.8024 558.273 84.8024Z" fill="#FA9E9F" fill-opacity="0.1782"/>
<path d="M568.448 84.8024C570.133 84.8024 571.5 83.4358 571.5 81.7501C571.5 80.0643 570.133 78.6978 568.448 78.6978C566.762 78.6978 565.395 80.0643 565.395 81.7501C565.395 83.4358 566.762 84.8024 568.448 84.8024Z" fill="#FA9E9F" fill-opacity="0.1782"/>
<path d="M487.052 94.9767C488.738 94.9767 490.105 93.6102 490.105 91.9244C490.105 90.2386 488.738 88.8721 487.052 88.8721C485.367 88.8721 484 90.2386 484 91.9244C484 93.6102 485.367 94.9767 487.052 94.9767Z" fill="#FA9E9F" fill-opacity="0.1782"/>
<path d="M497.227 94.9767C498.912 94.9767 500.279 93.6102 500.279 91.9244C500.279 90.2386 498.912 88.8721 497.227 88.8721C495.541 88.8721 494.174 90.2386 494.174 91.9244C494.174 93.6102 495.541 94.9767 497.227 94.9767Z" fill="#FA9E9F" fill-opacity="0.1782"/>
<path d="M507.401 94.9767C509.087 94.9767 510.454 93.6102 510.454 91.9244C510.454 90.2386 509.087 88.8721 507.401 88.8721C505.715 88.8721 504.349 90.2386 504.349 91.9244C504.349 93.6102 505.715 94.9767 507.401 94.9767Z" fill="#FA9E9F" fill-opacity="0.1782"/>
<path d="M487.052 105.151C488.738 105.151 490.105 103.785 490.105 102.099C490.105 100.413 488.738 99.0465 487.052 99.0465C485.367 99.0465 484 100.413 484 102.099C484 103.785 485.367 105.151 487.052 105.151Z" fill="#FA9E9F" fill-opacity="0.1782"/>
<path d="M497.227 105.151C498.912 105.151 500.279 103.785 500.279 102.099C500.279 100.413 498.912 99.0465 497.227 99.0465C495.541 99.0465 494.174 100.413 494.174 102.099C494.174 103.785 495.541 105.151 497.227 105.151Z" fill="#FA9E9F" fill-opacity="0.1782"/>
<path d="M507.401 105.151C509.087 105.151 510.454 103.785 510.454 102.099C510.454 100.413 509.087 99.0465 507.401 99.0465C505.715 99.0465 504.349 100.413 504.349 102.099C504.349 103.785 505.715 105.151 507.401 105.151Z" fill="#FA9E9F" fill-opacity="0.1782"/>
<path d="M487.052 115.326C488.738 115.326 490.105 113.959 490.105 112.273C490.105 110.588 488.738 109.221 487.052 109.221C485.367 109.221 484 110.588 484 112.273C484 113.959 485.367 115.326 487.052 115.326Z" fill="#FA9E9F" fill-opacity="0.1782"/>
<path d="M497.227 115.326C498.912 115.326 500.279 113.959 500.279 112.273C500.279 110.588 498.912 109.221 497.227 109.221C495.541 109.221 494.174 110.588 494.174 112.273C494.174 113.959 495.541 115.326 497.227 115.326Z" fill="#FA9E9F" fill-opacity="0.1782"/>
<path d="M507.401 115.326C509.087 115.326 510.454 113.959 510.454 112.273C510.454 110.588 509.087 109.221 507.401 109.221C505.715 109.221 504.349 110.588 504.349 112.273C504.349 113.959 505.715 115.326 507.401 115.326Z" fill="#FA9E9F" fill-opacity="0.1782"/>
<path d="M487.052 125.5C488.738 125.5 490.105 124.133 490.105 122.448C490.105 120.762 488.738 119.395 487.052 119.395C485.367 119.395 484 120.762 484 122.448C484 124.133 485.367 125.5 487.052 125.5Z" fill="#FA9E9F" fill-opacity="0.1782"/>
<path d="M497.227 125.5C498.912 125.5 500.279 124.133 500.279 122.448C500.279 120.762 498.912 119.395 497.227 119.395C495.541 119.395 494.174 120.762 494.174 122.448C494.174 124.133 495.541 125.5 497.227 125.5Z" fill="#FA9E9F" fill-opacity="0.1782"/>
<path d="M507.401 125.5C509.087 125.5 510.454 124.133 510.454 122.448C510.454 120.762 509.087 119.395 507.401 119.395C505.715 119.395 504.349 120.762 504.349 122.448C504.349 124.133 505.715 125.5 507.401 125.5Z" fill="#FA9E9F" fill-opacity="0.1782"/>
<path d="M517.576 94.9767C519.261 94.9767 520.628 93.6102 520.628 91.9244C520.628 90.2386 519.261 88.8721 517.576 88.8721C515.89 88.8721 514.523 90.2386 514.523 91.9244C514.523 93.6102 515.89 94.9767 517.576 94.9767Z" fill="#FA9E9F" fill-opacity="0.1782"/>
<path d="M527.75 94.9767C529.436 94.9767 530.802 93.6102 530.802 91.9244C530.802 90.2386 529.436 88.8721 527.75 88.8721C526.064 88.8721 524.698 90.2386 524.698 91.9244C524.698 93.6102 526.064 94.9767 527.75 94.9767Z" fill="#FA9E9F" fill-opacity="0.1782"/>
<path d="M537.924 94.9767C539.61 94.9767 540.977 93.6102 540.977 91.9244C540.977 90.2386 539.61 88.8721 537.924 88.8721C536.239 88.8721 534.872 90.2386 534.872 91.9244C534.872 93.6102 536.239 94.9767 537.924 94.9767Z" fill="#FA9E9F" fill-opacity="0.1782"/>
<path d="M517.576 105.151C519.261 105.151 520.628 103.785 520.628 102.099C520.628 100.413 519.261 99.0465 517.576 99.0465C515.89 99.0465 514.523 100.413 514.523 102.099C514.523 103.785 515.89 105.151 517.576 105.151Z" fill="#FA9E9F" fill-opacity="0.1782"/>
<path d="M527.75 105.151C529.436 105.151 530.802 103.785 530.802 102.099C530.802 100.413 529.436 99.0465 527.75 99.0465C526.064 99.0465 524.698 100.413 524.698 102.099C524.698 103.785 526.064 105.151 527.75 105.151Z" fill="#FA9E9F" fill-opacity="0.1782"/>
<path d="M537.924 105.151C539.61 105.151 540.977 103.785 540.977 102.099C540.977 100.413 539.61 99.0465 537.924 99.0465C536.239 99.0465 534.872 100.413 534.872 102.099C534.872 103.785 536.239 105.151 537.924 105.151Z" fill="#FA9E9F" fill-opacity="0.1782"/>
<path d="M517.576 115.326C519.261 115.326 520.628 113.959 520.628 112.273C520.628 110.588 519.261 109.221 517.576 109.221C515.89 109.221 514.523 110.588 514.523 112.273C514.523 113.959 515.89 115.326 517.576 115.326Z" fill="#FA9E9F" fill-opacity="0.1782"/>
<path d="M527.75 115.326C529.436 115.326 530.802 113.959 530.802 112.273C530.802 110.588 529.436 109.221 527.75 109.221C526.064 109.221 524.698 110.588 524.698 112.273C524.698 113.959 526.064 115.326 527.75 115.326Z" fill="#FA9E9F" fill-opacity="0.1782"/>
<path d="M537.924 115.326C539.61 115.326 540.977 113.959 540.977 112.273C540.977 110.588 539.61 109.221 537.924 109.221C536.239 109.221 534.872 110.588 534.872 112.273C534.872 113.959 536.239 115.326 537.924 115.326Z" fill="#FA9E9F" fill-opacity="0.1782"/>
<path d="M517.576 125.5C519.261 125.5 520.628 124.133 520.628 122.448C520.628 120.762 519.261 119.395 517.576 119.395C515.89 119.395 514.523 120.762 514.523 122.448C514.523 124.133 515.89 125.5 517.576 125.5Z" fill="#FA9E9F" fill-opacity="0.1782"/>
<path d="M527.75 125.5C529.436 125.5 530.802 124.133 530.802 122.448C530.802 120.762 529.436 119.395 527.75 119.395C526.064 119.395 524.698 120.762 524.698 122.448C524.698 124.133 526.064 125.5 527.75 125.5Z" fill="#FA9E9F" fill-opacity="0.1782"/>
<path d="M537.924 125.5C539.61 125.5 540.977 124.133 540.977 122.448C540.977 120.762 539.61 119.395 537.924 119.395C536.239 119.395 534.872 120.762 534.872 122.448C534.872 124.133 536.239 125.5 537.924 125.5Z" fill="#FA9E9F" fill-opacity="0.1782"/>
<path d="M548.099 94.9767C549.784 94.9767 551.151 93.6102 551.151 91.9244C551.151 90.2386 549.784 88.8721 548.099 88.8721C546.413 88.8721 545.046 90.2386 545.046 91.9244C545.046 93.6102 546.413 94.9767 548.099 94.9767Z" fill="#FA9E9F" fill-opacity="0.1782"/>
<path d="M558.273 94.9767C559.959 94.9767 561.326 93.6102 561.326 91.9244C561.326 90.2386 559.959 88.8721 558.273 88.8721C556.588 88.8721 555.221 90.2386 555.221 91.9244C555.221 93.6102 556.588 94.9767 558.273 94.9767Z" fill="#FA9E9F" fill-opacity="0.1782"/>
<path d="M568.448 94.9767C570.133 94.9767 571.5 93.6102 571.5 91.9244C571.5 90.2386 570.133 88.8721 568.448 88.8721C566.762 88.8721 565.395 90.2386 565.395 91.9244C565.395 93.6102 566.762 94.9767 568.448 94.9767Z" fill="#FA9E9F" fill-opacity="0.1782"/>
<path d="M548.099 105.151C549.784 105.151 551.151 103.785 551.151 102.099C551.151 100.413 549.784 99.0465 548.099 99.0465C546.413 99.0465 545.046 100.413 545.046 102.099C545.046 103.785 546.413 105.151 548.099 105.151Z" fill="#FA9E9F" fill-opacity="0.1782"/>
<path d="M558.273 105.151C559.959 105.151 561.326 103.785 561.326 102.099C561.326 100.413 559.959 99.0465 558.273 99.0465C556.588 99.0465 555.221 100.413 555.221 102.099C555.221 103.785 556.588 105.151 558.273 105.151Z" fill="#FA9E9F" fill-opacity="0.1782"/>
<path d="M568.448 105.151C570.133 105.151 571.5 103.785 571.5 102.099C571.5 100.413 570.133 99.0465 568.448 99.0465C566.762 99.0465 565.395 100.413 565.395 102.099C565.395 103.785 566.762 105.151 568.448 105.151Z" fill="#FA9E9F" fill-opacity="0.1782"/>
<path d="M548.099 115.326C549.784 115.326 551.151 113.959 551.151 112.273C551.151 110.588 549.784 109.221 548.099 109.221C546.413 109.221 545.046 110.588 545.046 112.273C545.046 113.959 546.413 115.326 548.099 115.326Z" fill="#FA9E9F" fill-opacity="0.1782"/>
<path d="M558.273 115.326C559.959 115.326 561.326 113.959 561.326 112.273C561.326 110.588 559.959 109.221 558.273 109.221C556.588 109.221 555.221 110.588 555.221 112.273C555.221 113.959 556.588 115.326 558.273 115.326Z" fill="#FA9E9F" fill-opacity="0.1782"/>
<path d="M568.448 115.326C570.133 115.326 571.5 113.959 571.5 112.273C571.5 110.588 570.133 109.221 568.448 109.221C566.762 109.221 565.395 110.588 565.395 112.273C565.395 113.959 566.762 115.326 568.448 115.326Z" fill="#FA9E9F" fill-opacity="0.1782"/>
<path d="M548.099 125.5C549.784 125.5 551.151 124.133 551.151 122.448C551.151 120.762 549.784 119.395 548.099 119.395C546.413 119.395 545.046 120.762 545.046 122.448C545.046 124.133 546.413 125.5 548.099 125.5Z" fill="#FA9E9F" fill-opacity="0.1782"/>
<path d="M558.273 125.5C559.959 125.5 561.326 124.133 561.326 122.448C561.326 120.762 559.959 119.395 558.273 119.395C556.588 119.395 555.221 120.762 555.221 122.448C555.221 124.133 556.588 125.5 558.273 125.5Z" fill="#FA9E9F" fill-opacity="0.1782"/>
<path d="M568.448 125.5C570.133 125.5 571.5 124.133 571.5 122.448C571.5 120.762 570.133 119.395 568.448 119.395C566.762 119.395 565.395 120.762 565.395 122.448C565.395 124.133 566.762 125.5 568.448 125.5Z" fill="#FA9E9F" fill-opacity="0.1782"/>
<path opacity="0.6" d="M1127 280L1170.3 345.727H1083.7L1127 280Z" fill="#AB8DE5"/>
</svg>
