<svg width="80" height="80" viewBox="0 0 80 80" fill="none" xmlns="http://www.w3.org/2000/svg">
<path d="M40 0C17.908 0 0 17.908 0 40C0 62.092 17.908 80 40 80C62.092 80 80 62.092 80 40C80 17.908 62.092 0 40 0ZM40 5.796C48.714 5.796 56.668 9.056 62.708 14.42C58.27 20.274 51.528 24.172 44.772 26.81C40.9475 19.8447 36.6613 13.1431 31.942 6.75C34.5814 6.1138 37.287 5.79355 40.002 5.796H40ZM25.448 9.036C29.908 15.708 34.228 21.894 38.174 28.896C28.194 31.482 16.916 33.034 6.498 33.06C8.694 22.404 15.852 13.556 25.448 9.038V9.036ZM66.502 18.376C71.4445 24.4159 74.1634 31.9697 74.204 39.774C66.292 38.214 58.424 37.806 50.412 38.614C49.512 36.368 48.42 34.234 47.374 31.934C54.28 29.148 61.664 24.38 66.502 18.374V18.376ZM40.952 34.188C41.808 36.008 42.8 37.94 43.732 39.914C32.592 44.826 20.742 51.39 14.592 62.898C8.68801 56.3645 5.5416 47.7997 5.812 38.998C17.742 38.942 29.452 37.45 40.952 34.188ZM59.028 43.514C64.0056 43.5151 68.9626 44.1536 73.778 45.414C73.0355 50.0465 71.3479 54.4767 68.82 58.429C66.2921 62.3813 62.9781 65.7713 59.084 68.388C57.248 60.038 55.498 52.048 52.404 43.992C54.5969 43.6725 56.81 43.5121 59.026 43.512L59.028 43.514ZM73.956 44.134C73.932 44.33 73.91 44.522 73.882 44.714C73.91 44.52 73.934 44.328 73.956 44.134ZM46.076 45.554C49.228 53.7 51.702 62.72 53.362 71.498C49.1364 73.2909 44.5922 74.212 40.002 74.206C32.3977 74.2169 25.0085 71.6822 19.012 67.006C25.206 56.958 34.8 49.354 46.074 45.556L46.076 45.554Z" fill="#947BD3" fill-opacity="0.6"/>
</svg>
