<svg width="2350" height="1546" viewBox="0 0 2350 1546" fill="none" xmlns="http://www.w3.org/2000/svg">
<path d="M2006.47 566.389C1978.96 557.275 1948.95 550.707 1919.16 546.457C1867.2 539.04 1818.17 541.046 1776.97 566.494C1769.68 570.994 1762.84 575.827 1756.23 580.796C1717.25 610.103 1684.08 643.108 1656.88 678.306C1623.05 722.093 1598.07 770.65 1599.8 820.363C1600.61 843.311 1607.6 866.9 1626.93 885.436C1646.52 904.218 1676.63 915.978 1705.78 927.16C1742.79 941.358 1779.78 955.556 1816.8 969.749C1833.22 976.051 1850.35 982.499 1869.07 983.212C1888.1 983.947 1906.01 978.567 1921.84 971.65C1937.83 964.671 1954.67 957.15 1969.44 949.072C1985.62 940.218 2003.05 933.363 2017.88 923.124C2033.62 912.27 2047.12 899.926 2059.14 886.988C2081.17 863.259 2098.44 837.556 2118.72 813.072C2139.77 787.66 2164.82 762.056 2167.31 732.749C2168.83 715.004 2161.72 697.317 2150.79 681.28C2132.57 654.587 2104.92 631.921 2080.8 607.858C2063.51 590.624 2034.2 574.728 2006.47 566.389Z" fill="#FAF7F1"/>
<path d="M233.037 1024.72C202.186 1045.12 174.827 1069.07 151.89 1093.98C111.872 1137.43 90.8823 1182.96 117.489 1233.18C122.188 1242.06 127.738 1250.71 133.66 1259.22C168.568 1309.36 213.3 1356.09 265.118 1398.51C329.587 1451.27 407.407 1498.39 500.847 1521.84C543.983 1532.67 591.43 1538.19 635.692 1529.96C680.543 1521.63 717.629 1500.21 753.149 1479.36C798.254 1452.91 843.344 1426.46 888.434 1400C908.447 1388.25 929.101 1375.95 939.872 1359.31C950.829 1342.39 949.845 1323.43 944.951 1305.56C940.021 1287.54 934.516 1268.46 926.915 1250.98C918.584 1231.82 914.615 1212.55 903.032 1193.92C890.754 1174.18 874.575 1155.7 856.554 1138.27C823.488 1106.32 784.328 1077.7 748.972 1046.97C712.259 1015.06 677.216 979.426 623.906 962.41C591.631 952.103 555.119 949.645 519.748 951.509C460.844 954.613 404.7 968.311 347.735 978.108C306.926 985.124 262.538 1003.75 233.037 1024.72Z" fill="#FAF7F1"/>
<path d="M1990.97 371.936C1995.9 363.78 2007.07 361.139 2017.62 359.072C2049.29 352.869 2082.77 359.259 2105.19 375.952C2137.43 397.801 2144.36 424.712 2143 453.983C2140.8 482.822 2133.5 511.655 2121.68 539.915C2109.97 568.676 2098.26 597.436 2089.51 626.416C2086.22 639.009 2085.9 651.817 2088.44 664.343C2099.44 711.296 2111.88 758.108 2125.14 805.348C2136.05 848.223 2154.13 890.39 2179.07 930.337C2218.54 991.337 2260.77 1051.56 2300.96 1112.48C2314.76 1133.6 2331.43 1154.44 2341.75 1176.42C2354.52 1203.26 2352.44 1232.6 2335.71 1258.29C2320.72 1281.75 2291.92 1294.82 2254.74 1291.86C2219.7 1288.69 2185.09 1283.94 2150.98 1278.12C2109.3 1271 2069.26 1261.17 2030.86 1248.62C2007.31 1240.73 1982.63 1234.49 1958.67 1228.18C1930.91 1221.21 1907.77 1208.18 1891.92 1191.34C1858.46 1159.91 1837.1 1123.18 1827.82 1084.74C1809.47 1012.45 1809.25 939.379 1816.42 866.603C1824.5 791.181 1835.45 715.478 1857.67 641.207C1881.54 560.645 1912.26 481.441 1957.44 404.9C1963.59 395.603 1970.47 386.233 1978.98 377.723C1981.34 374.936 1986.97 373.863 1990.97 371.936C1991.17 372.936 1991.48 374.441 1990.15 375.082C1976.21 382.087 1969.64 392.962 1963.07 403.832C1918.21 481.879 1884.3 563.436 1861.56 645.936C1835.83 738.947 1820.76 833.973 1816.65 928.936C1814.42 986.4 1821.11 1044.51 1838.56 1101.57C1849.17 1135.78 1871.05 1167.86 1901.64 1196C1915.26 1208.97 1933.99 1218.35 1954.88 1223.95C1981.1 1230.55 2007.41 1237.66 2032.5 1245.91C2094.25 1265.34 2159.9 1278.77 2226.68 1286.98C2243.27 1289.42 2260.17 1289.79 2276.56 1287.66C2308.02 1284.03 2325.45 1269.01 2335.21 1248.62C2349.17 1220.15 2347.27 1189.16 2329.27 1161.81C2289.39 1102.38 2248.79 1043.03 2208.92 983.603C2187.14 952.03 2164.64 920.525 2151.27 887.093C2138.09 854.666 2125.63 822.166 2115.33 789.457C2103.19 747.723 2093.1 705.28 2083.01 662.837C2079.75 650.384 2080.18 638.072 2084.19 625.41C2093.65 596.358 2104.54 567.171 2116.36 538.91C2128.27 511.15 2135.58 482.316 2137.77 453.478C2139.24 424.712 2132.51 398.801 2101.09 377.379C2071.51 357.822 2033.41 353.931 1999.17 369.077C1996.51 370.363 1993.74 371.15 1990.97 371.936Z" fill="#FF914D"/>
<path d="M1204.59 1483.55C1211.24 1490.18 1208.74 1497.5 1205.9 1504.21C1197.38 1524.35 1174 1539.34 1144.58 1543.33C1104.66 1550.13 1071.42 1540.79 1039.61 1525.81C1008.68 1510.59 980.24 1492.61 954.633 1472.47C928.422 1452.15 902.203 1431.82 874.307 1413C861.939 1405.09 847.879 1398.68 832.745 1393.96C775.295 1377.07 717.308 1361.01 658.442 1345.2C605.564 1330.23 549.987 1319.49 493.529 1313.54C406.654 1305.19 319.301 1298.73 232.149 1290.8C202 1287.99 170.776 1286.86 141.373 1281.75C105.375 1275.59 73.8308 1260.19 53.4751 1238.65C34.7305 1219.13 34.2307 1197.2 55.6009 1178.54C76.1655 1161.15 98.2667 1144.74 121.315 1129.14C149.481 1110.07 179.869 1093.21 212.472 1078.56C232.679 1069.66 251.61 1059.36 270.272 1049.48C291.493 1037.86 317.22 1031.7 343.602 1031.32C394.757 1028.52 445.903 1034.85 493.059 1048.54C582.195 1073.79 663.372 1109.22 740.64 1148.5C820.393 1189.57 899.063 1232.33 970.655 1280.47C1048.44 1332.57 1121.37 1387.72 1184.33 1449.37C1191.64 1457.23 1198.7 1465.5 1204 1474.25C1205.95 1476.88 1204.39 1480.45 1204.59 1483.55C1203.38 1483.17 1201.57 1482.6 1201.5 1481.57C1200.51 1470.62 1191.64 1461.79 1182.77 1452.94C1117.99 1390.72 1044 1332.71 963.524 1280.27C872.83 1221.11 774.728 1166.73 671.368 1118.3C608.69 1089.14 540.954 1064.48 469.168 1046.15C426.047 1035.24 379.816 1031.46 333.704 1034.31C312.7 1035.36 293.172 1040.92 276.799 1049.49C256.727 1060.45 236.043 1071.22 214.688 1080.76C163.086 1104.69 116.258 1133.64 74.6737 1165.75C63.8879 1173.53 55.2578 1182.49 49.656 1192.38C38.3854 1211.16 46.5605 1227.88 64.4399 1243.08C89.2412 1264.48 124.552 1278.53 163.645 1282.11C248.977 1289.47 334.584 1296.4 419.916 1303.76C465.543 1307.35 511.439 1310.51 555.037 1319.55C597.427 1328.2 639.54 1337.28 680.849 1347.62C733.055 1361.37 785.059 1376.57 837.056 1391.76C852.466 1396.06 865.915 1402.27 878.014 1410.61C905.642 1429.85 932.733 1449.95 958.34 1470.08C983.343 1490.03 1011.78 1508.01 1042.72 1523.23C1073.92 1538.02 1105.94 1546.99 1144.99 1540.42C1181.08 1533.95 1203.93 1515.24 1203.77 1489.37C1203.64 1487.3 1204.12 1485.43 1204.59 1483.55Z" fill="#FF914D"/>
<path d="M1183.57 76.7175C1194.56 79.2852 1198.79 86.2123 1202.22 92.7904C1212.52 112.514 1206.5 134.275 1186.24 149.702C1159.94 171.749 1125.25 178.03 1086.93 179.197C1049.09 179.811 1010.92 177.165 973.184 171.608C934.8 166.15 896.415 160.697 857.949 157.145C841.27 155.926 824.51 156.608 808.324 159.098C747.749 169.374 687.457 180.546 626.659 192.27C571.402 202.197 517.577 216.639 467.109 235.296C390.154 264.66 314.423 295.733 237.609 325.551C210.973 335.806 184.911 347.869 156.91 355.967C122.725 365.962 84.2512 366.676 49.5442 357.811C17.8582 349.905 -1.22209 332.483 0.060868 308.608C1.78391 286.087 5.58057 263.718 10.8243 241.603C17.2241 214.572 27.2939 188.4 41.026 163.082C49.7009 147.54 56.1455 131.4 62.7318 115.702C69.9 97.556 85.3328 81.9206 106.218 70.655C144.975 47.1706 191.475 31.0144 241.04 22.4362C334.212 5.72792 429.65 0.509167 525.223 0.0039581C624.316 -0.0949992 723.984 1.61333 822.548 10.5925C929.451 20.181 1035.05 34.2331 1138.18 57.6602C1150.75 60.9363 1163.46 64.6602 1175.17 69.4883C1178.99 70.7956 1180.77 74.306 1183.57 76.7175C1182.28 76.9154 1180.33 77.2175 1179.4 76.4154C1169.28 68.0248 1154.63 64.5977 1139.96 61.1758C1034.89 38.0456 925.99 22.1342 816.641 13.3946C693.343 3.48833 568.15 0.498749 443.807 4.48833C368.583 7.06646 293.127 15.3685 219.805 30.4415C175.841 39.5769 135.458 55.7383 100.81 77.1706C84.8181 86.7331 73.8533 99.3113 67.9905 112.999C61.1803 130.15 53.7288 147.395 44.6884 163.941C23.5793 204.598 10.5931 247.322 4.499 290.405C2.45522 301.134 3.14892 311.921 7.07238 322.207C13.9944 341.978 34.8201 352.03 62.1351 356.822C100.296 363.733 140.649 360.363 175.132 347.009C249.999 317.488 324.731 287.52 399.598 257.999C439.339 241.941 478.932 225.426 521.68 214.587C563.13 203.947 604.722 193.754 646.738 184.921C700.414 174.29 755.171 164.915 809.92 155.54C825.965 152.598 842.069 152.009 858.896 153.686C897.497 157.686 936.388 162.593 974.124 168.15C1011.22 173.801 1049.39 176.452 1087.22 175.837C1124.91 174.77 1158.29 168.686 1184.09 147.191C1207.59 127.004 1210.03 102.478 1187.87 81.7383C1186.01 80.1342 1184.79 78.4258 1183.57 76.7175Z" fill="#FF914D"/>
</svg>
