<svg width="80" height="80" viewBox="0 0 80 80" fill="none" xmlns="http://www.w3.org/2000/svg">
<g clip-path="url(#clip0)">
<path d="M57.076 80.0844C56.0131 80.0844 54.9937 79.6622 54.2421 78.9106C53.4905 78.159 53.0683 77.1397 53.0683 76.0768V65.6568C53.1928 64.4583 53.0646 63.2469 52.6918 62.101C52.319 60.955 51.71 59.9 50.9042 59.0041C50.4052 58.463 50.0649 57.7949 49.9206 57.0731C49.7763 56.3514 49.8336 55.6038 50.0861 54.9124C50.3387 54.2211 50.7767 53.6126 51.3523 53.1538C51.9278 52.6949 52.6186 52.4035 53.3488 52.3113C63.1276 51.1491 72.1448 48.0231 72.1448 31.0707C72.1479 27.9049 71.2136 24.8092 69.4597 22.1737C67.8412 19.7475 67.2503 16.7788 67.8165 13.9179C68.1777 12.0516 68.1777 10.1333 67.8165 8.26707C64.8156 9.28171 61.9901 10.7553 59.4405 12.6354C58.9584 12.9777 58.4066 13.2092 57.8246 13.3131C57.2426 13.417 56.6448 13.3909 56.0741 13.2366C48.8415 11.1929 41.1842 11.1929 33.9517 13.2366C33.381 13.3909 32.7832 13.417 32.2012 13.3131C31.6192 13.2092 31.0673 12.9777 30.5853 12.6354C28.0201 10.7335 25.1646 9.25843 22.1291 8.26707C21.748 10.1314 21.748 12.0535 22.1291 13.9179C22.6545 16.8148 22.0368 19.8026 20.4058 22.2538C18.6595 24.9078 17.7263 28.014 17.7207 31.1909C17.7207 46.7807 25.2551 50.9487 36.5567 52.3915C37.2962 52.4832 37.9955 52.7794 38.5761 53.2466C39.1566 53.7139 39.5953 54.3337 39.843 55.0365C40.076 55.7185 40.1208 56.4507 39.9727 57.156C39.8246 57.8613 39.4891 58.5136 39.0014 59.0442C38.2219 59.8774 37.6236 60.8632 37.2442 61.9392C36.8648 63.0153 36.7126 64.1583 36.7972 65.2962V76.0768C36.7972 77.1397 36.3749 78.159 35.6234 78.9106C34.8718 79.6622 33.8524 80.0844 32.7895 80.0844C31.7266 80.0844 30.7072 79.6622 29.9557 78.9106C29.2041 78.159 28.7819 77.1397 28.7819 76.0768V73.7924C24.8438 74.2453 20.8548 73.7176 17.17 72.2562C13.4851 70.7949 10.2187 68.4452 7.66145 65.4164C6.34695 63.9594 4.76984 62.763 3.01256 61.8896C2.50205 61.7581 2.02246 61.5272 1.60117 61.2103C1.17987 60.8934 0.825124 60.4966 0.557179 60.0426C0.289234 59.5886 0.113338 59.0862 0.0395338 58.5642C-0.03427 58.0422 -0.00453583 57.5108 0.127038 57.0003C0.258611 56.4898 0.489448 56.0102 0.806368 55.5889C1.12329 55.1676 1.52009 54.8129 1.9741 54.5449C2.42812 54.277 2.93047 54.1011 3.45247 54.0273C3.97446 53.9535 4.50589 53.9832 5.01639 54.1148C8.09929 55.2379 10.854 57.111 13.0317 59.5652C17.0394 63.5729 21.0471 67.0996 28.6616 65.6568C28.5277 63.5051 28.8416 61.349 29.5834 59.3247C21.3276 57.2407 9.54505 51.3094 9.54505 31.2711C9.53449 26.5245 10.9289 21.881 13.5527 17.9255C14.0401 17.1954 14.2267 16.3052 14.0737 15.4408C13.2639 11.1148 13.7232 6.64691 15.3962 2.57618C15.6236 2.0334 15.9676 1.54734 16.404 1.15253C16.8404 0.757725 17.3583 0.463859 17.9211 0.291809C19.2837 -0.108957 24.173 -0.91049 33.4307 5.10101C40.925 3.29757 48.7401 3.29757 56.2344 5.10101C65.4921 -0.91049 70.3814 -0.149034 71.704 0.291809C72.2667 0.463859 72.7847 0.757725 73.221 1.15253C73.6574 1.54734 74.0015 2.0334 74.2288 2.57618C75.9052 6.66013 76.3645 11.1418 75.5513 15.4809C75.4693 15.8718 75.4661 16.2752 75.5418 16.6674C75.6174 17.0597 75.7706 17.4329 75.9922 17.7652C78.6235 21.7321 80.0183 26.3906 79.9998 31.1508C79.9998 51.4697 68.2974 57.361 59.9615 59.2045C60.6958 61.355 60.9955 63.63 60.8432 65.8973V76.0768C60.845 77.0993 60.4559 78.0839 59.7556 78.8289C59.0553 79.5739 58.0966 80.0231 57.076 80.0844Z" fill="#666666" fill-opacity="0.6"/>
</g>
<defs>
<clipPath id="clip0">
<rect width="80" height="80" fill="white"/>
</clipPath>
</defs>
</svg>
