<svg width="2200" height="1546" viewBox="0 0 2200 1546" fill="none" xmlns="http://www.w3.org/2000/svg">
<path d="M1910.79 567.699C1885.03 558.584 1856.94 552.016 1829.05 547.766C1780.41 540.35 1734.51 542.355 1695.94 567.803C1689.12 572.303 1682.71 577.136 1676.52 582.105C1640.03 611.412 1608.98 644.417 1583.51 679.615C1551.84 723.402 1528.46 771.959 1530.08 821.673C1530.83 844.621 1537.38 868.209 1555.48 886.746C1573.81 905.527 1602 917.287 1629.29 928.469C1663.94 942.667 1698.57 956.865 1733.22 971.058C1748.6 977.36 1764.63 983.808 1782.16 984.522C1799.97 985.256 1816.74 979.876 1831.56 972.959C1846.53 965.98 1862.29 958.459 1876.12 950.381C1891.27 941.527 1907.58 934.673 1921.47 924.433C1936.2 913.579 1948.85 901.235 1960.1 888.298C1980.72 864.568 1996.89 838.865 2015.87 814.381C2035.58 788.969 2059.03 763.365 2061.36 734.058C2062.78 716.313 2056.13 698.626 2045.9 682.589C2028.84 655.897 2002.96 633.23 1980.37 609.167C1964.19 591.933 1936.75 576.037 1910.79 567.699Z" fill="#FAF7F1"/>
<path d="M218.162 1024.72C189.281 1045.12 163.667 1069.07 142.195 1093.98C104.731 1137.43 85.0813 1182.96 109.989 1233.18C114.389 1242.06 119.584 1250.71 125.128 1259.22C157.809 1309.36 199.685 1356.09 248.196 1398.51C308.549 1451.27 381.403 1498.39 468.878 1521.84C509.26 1532.67 553.679 1538.19 595.116 1529.96C637.104 1521.63 671.823 1500.21 705.076 1479.36C747.302 1452.91 789.514 1426.46 831.726 1400C850.461 1388.25 869.797 1375.95 879.88 1359.31C890.138 1342.39 889.216 1323.43 884.635 1305.56C880.02 1287.54 874.866 1268.46 867.751 1250.98C859.951 1231.82 856.236 1212.55 845.391 1193.92C833.897 1174.18 818.751 1155.7 801.881 1138.27C770.925 1106.32 734.265 1077.7 701.166 1046.97C666.795 1015.06 633.99 979.426 584.082 962.41C553.867 952.103 519.686 949.645 486.573 951.509C431.428 954.613 378.868 968.311 325.539 978.108C287.335 985.124 245.78 1003.75 218.162 1024.72Z" fill="#FAF7F1"/>
<path d="M1863.89 371.936C1868.5 363.78 1878.96 361.139 1888.84 359.072C1918.48 352.869 1949.83 359.259 1970.81 375.952C2001 397.801 2007.49 424.712 2006.21 453.983C2004.16 482.822 1997.32 511.655 1986.25 539.915C1975.29 568.676 1964.32 597.436 1956.13 626.416C1953.05 639.009 1952.75 651.817 1955.14 664.343C1965.44 711.296 1977.08 758.108 1989.49 805.348C1999.71 848.223 2016.63 890.39 2039.99 930.337C2076.93 991.337 2116.47 1051.56 2154.09 1112.48C2167.01 1133.6 2182.62 1154.44 2192.28 1176.42C2204.23 1203.26 2202.28 1232.6 2186.62 1258.29C2172.59 1281.75 2145.63 1294.82 2110.82 1291.86C2078.02 1288.69 2045.61 1283.94 2013.69 1278.12C1974.67 1271 1937.18 1261.17 1901.23 1248.62C1879.18 1240.73 1856.07 1234.49 1833.65 1228.18C1807.66 1221.21 1786 1208.18 1771.16 1191.34C1739.84 1159.91 1719.84 1123.18 1711.15 1084.74C1693.97 1012.45 1693.77 939.379 1700.47 866.603C1708.04 791.181 1718.29 715.478 1739.1 641.207C1761.44 560.645 1790.2 481.441 1832.49 404.9C1838.25 395.603 1844.69 386.233 1852.66 377.723C1854.87 374.936 1860.15 373.863 1863.89 371.936C1864.08 372.936 1864.36 374.441 1863.12 375.082C1850.07 382.087 1843.92 392.962 1837.77 403.832C1795.77 481.879 1764.03 563.436 1742.73 645.936C1718.65 738.947 1704.54 833.973 1700.69 928.936C1698.61 986.4 1704.87 1044.51 1721.21 1101.57C1731.14 1135.78 1751.62 1167.86 1780.26 1196C1793 1208.97 1810.55 1218.35 1830.1 1223.95C1854.64 1230.55 1879.28 1237.66 1902.77 1245.91C1960.57 1265.34 2022.03 1278.77 2084.55 1286.98C2100.08 1289.42 2115.9 1289.79 2131.25 1287.66C2160.7 1284.03 2177.02 1269.01 2186.15 1248.62C2199.22 1220.15 2197.44 1189.16 2180.59 1161.81C2143.26 1102.38 2105.25 1043.03 2067.92 983.603C2047.53 952.03 2026.47 920.525 2013.95 887.093C2001.61 854.666 1989.95 822.166 1980.31 789.457C1968.94 747.723 1959.5 705.28 1950.05 662.837C1947 650.384 1947.4 638.072 1951.15 625.41C1960.01 596.358 1970.2 567.171 1981.27 538.91C1992.42 511.15 1999.27 482.316 2001.31 453.478C2002.69 424.712 1996.39 398.801 1966.98 377.379C1939.28 357.822 1903.61 353.931 1871.56 369.077C1869.07 370.363 1866.48 371.15 1863.89 371.936Z" fill="#E8998D"/>
<path d="M1127.7 1483.55C1133.93 1490.18 1131.59 1497.5 1128.93 1504.21C1120.95 1524.35 1099.07 1539.34 1071.52 1543.33C1034.15 1550.13 1003.03 1540.79 973.256 1525.81C944.298 1510.59 917.672 1492.61 893.699 1472.47C869.161 1452.15 844.616 1431.82 818.5 1413C806.922 1405.09 793.759 1398.68 779.591 1393.96C725.808 1377.07 671.523 1361.01 616.413 1345.2C566.911 1330.23 514.881 1319.49 462.028 1313.54C380.697 1305.19 298.92 1298.73 217.331 1290.8C189.106 1287.99 159.876 1286.86 132.349 1281.75C98.6492 1275.59 69.1183 1260.19 50.0618 1238.65C32.5137 1219.13 32.0458 1197.2 52.052 1178.54C71.3039 1161.15 91.9944 1144.74 113.572 1129.14C139.939 1110.07 168.388 1093.21 198.91 1078.56C217.827 1069.66 235.55 1059.36 253.021 1049.48C272.888 1037.86 296.972 1031.7 321.67 1031.32C369.559 1028.52 417.441 1034.85 461.588 1048.54C545.034 1073.79 621.029 1109.22 693.365 1148.5C768.027 1189.57 841.676 1232.33 908.699 1280.47C981.517 1332.57 1049.79 1387.72 1108.73 1449.37C1115.58 1457.23 1122.19 1465.5 1127.15 1474.25C1128.98 1476.88 1127.52 1480.45 1127.7 1483.55C1126.57 1483.17 1124.87 1482.6 1124.81 1481.57C1123.88 1470.62 1115.58 1461.79 1107.27 1452.94C1046.63 1390.72 977.362 1332.71 902.023 1280.27C817.117 1221.11 725.278 1166.73 628.515 1118.3C569.837 1089.14 506.425 1064.48 439.221 1046.15C398.853 1035.24 355.573 1031.46 312.404 1034.31C292.74 1035.36 274.459 1040.92 259.131 1049.49C240.34 1060.45 220.976 1071.22 200.984 1080.76C152.676 1104.69 108.837 1133.64 69.9074 1165.75C59.81 1173.53 51.7308 1182.49 46.4866 1192.38C35.9353 1211.16 43.5886 1227.88 60.3268 1243.08C83.545 1264.48 116.602 1278.53 153.2 1282.11C233.085 1289.47 313.228 1296.4 393.113 1303.76C435.828 1307.35 478.794 1310.51 519.609 1319.55C559.293 1328.2 598.719 1337.28 637.39 1347.62C686.264 1361.37 734.949 1376.57 783.627 1391.76C798.054 1396.06 810.644 1402.27 821.97 1410.61C847.835 1429.85 873.197 1449.95 897.17 1470.08C920.577 1490.03 947.195 1508.01 976.161 1523.23C1005.37 1538.02 1035.35 1546.99 1071.9 1540.42C1105.69 1533.95 1127.08 1515.24 1126.94 1489.37C1126.81 1487.3 1127.26 1485.43 1127.7 1483.55Z" fill="#E8998D"/>
<path d="M1108.02 76.7175C1118.31 79.2852 1122.27 86.2123 1125.48 92.7904C1135.13 112.514 1129.49 134.275 1110.53 149.702C1085.9 171.749 1053.43 178.03 1017.55 179.197C982.131 179.811 946.392 177.165 911.066 171.608C875.131 166.15 839.197 160.697 803.186 157.145C787.572 155.926 771.882 156.608 756.729 159.098C700.02 169.374 643.577 180.546 586.659 192.27C534.929 202.197 484.541 216.639 437.294 235.296C365.251 264.66 294.353 295.733 222.443 325.551C197.507 335.806 173.108 347.869 146.894 355.967C114.891 365.962 78.8735 366.676 46.3818 357.811C16.7183 349.905 -1.14408 332.483 0.0569828 308.608C1.67004 286.087 5.22436 263.718 10.1334 241.603C16.1247 214.572 25.5517 188.4 38.4073 163.082C46.5285 147.54 52.5617 131.4 58.7277 115.702C65.4383 97.556 79.886 81.9206 99.4382 70.655C135.722 47.1706 179.253 31.0144 225.655 22.4362C312.879 5.72792 402.226 0.509167 491.698 0.0039581C584.466 -0.0949992 677.773 1.61333 770.045 10.5925C870.125 20.181 968.982 34.2331 1065.53 57.6602C1077.29 60.9363 1089.2 64.6602 1100.16 69.4883C1103.73 70.7956 1105.4 74.306 1108.02 76.7175C1106.81 76.9154 1104.99 77.2175 1104.12 76.4154C1094.65 68.0248 1080.93 64.5977 1067.2 61.1758C968.835 38.0456 866.885 22.1342 764.515 13.3946C649.087 3.48833 531.885 0.498749 415.479 4.48833C345.056 7.06646 274.417 15.3685 205.774 30.4415C164.617 39.5769 126.811 55.7383 94.3756 77.1706C79.4042 86.7331 69.1392 99.3113 63.6506 112.999C57.2752 130.15 50.2993 147.395 41.8359 163.941C22.0742 204.598 9.9169 247.322 4.21183 290.405C2.29851 301.134 2.94792 311.921 6.62095 322.207C13.1011 341.978 32.5975 352.03 58.169 356.822C93.8938 363.733 131.671 360.363 163.954 347.009C234.041 317.488 304.004 287.52 374.091 257.999C411.296 241.941 448.362 225.426 488.381 214.587C527.185 203.947 566.122 193.754 605.457 184.921C655.706 174.29 706.968 164.915 758.223 155.54C773.243 152.598 788.319 152.009 804.073 153.686C840.21 157.686 876.619 162.593 911.946 168.15C946.672 173.801 982.41 176.452 1017.82 175.837C1053.11 174.77 1084.35 168.686 1108.51 147.191C1130.51 127.004 1132.79 102.478 1112.05 81.7383C1110.3 80.1342 1109.16 78.4258 1108.02 76.7175Z" fill="#E8998D"/>
</svg>
