<svg width="80" height="80" viewBox="0 0 80 80" fill="none" xmlns="http://www.w3.org/2000/svg">
<path d="M9.61496 19.2299C14.9252 19.2299 19.2299 14.9252 19.2299 9.61496C19.2299 4.30476 14.9252 0 9.61496 0C4.30476 0 0 4.30476 0 9.61496C0 14.9252 4.30476 19.2299 9.61496 19.2299Z" fill="#666666" fill-opacity="0.6"/>
<path d="M28.3086 26.517V79.8607H44.8711V53.4811C44.8711 46.5204 46.1806 39.7794 54.8112 39.7794C63.3232 39.7794 63.4286 47.7376 63.4286 53.9206V79.8651H80V50.6116C80 36.2419 76.9063 25.1987 60.1109 25.1987C52.0471 25.1987 46.642 29.6239 44.4316 33.8118H44.2075V26.517H28.3086ZM1.31812 26.517H17.907V79.8607H1.31812V26.517Z" fill="#666666" fill-opacity="0.6"/>
</svg>
