<svg width="80" height="80" viewBox="0 0 80 80" fill="none" xmlns="http://www.w3.org/2000/svg">
<g clip-path="url(#clip0)">
<path d="M74.2857 23H5.71429C4.19876 23 2.74531 23.602 1.67368 24.6737C0.602039 25.7453 0 27.1988 0 28.7143V74.4286C0 75.9441 0.602039 77.3975 1.67368 78.4692C2.74531 79.5408 4.19876 80.1429 5.71429 80.1429H74.2857C75.8012 80.1429 77.2547 79.5408 78.3263 78.4692C79.398 77.3975 80 75.9441 80 74.4286V28.7143C80 27.1988 79.398 25.7453 78.3263 24.6737C77.2547 23.602 75.8012 23 74.2857 23ZM68 28.7143L40 48.0857L12 28.7143H68ZM5.71429 74.4286V31.3143L38.3714 53.9143C38.8497 54.2461 39.4179 54.4239 40 54.4239C40.5821 54.4239 41.1503 54.2461 41.6286 53.9143L74.2857 31.3143V74.4286H5.71429Z" fill="#666666" fill-opacity="0.6"/>
</g>
<defs>
<clipPath id="clip0">
<rect width="80" height="80" fill="white"/>
</clipPath>
</defs>
</svg>
