<svg width="1440" height="1024" viewBox="0 0 1440 1024" fill="none" xmlns="http://www.w3.org/2000/svg">
<rect width="1440" height="1024" fill="white"/>
<path fill-rule="evenodd" clip-rule="evenodd" d="M997.565 301C980.534 318.031 970 341.56 970 367.548C970 419.526 1012.14 461.662 1064.11 461.662C1090.1 461.662 1113.63 451.128 1130.66 434.096" fill="#55B79D" fill-opacity="0.5"/>
<path d="M1151.84 796.68C1162.8 796.68 1171.68 787.798 1171.68 776.84C1171.68 765.883 1162.8 757 1151.84 757C1140.88 757 1132 765.883 1132 776.84C1132 787.798 1140.88 796.68 1151.84 796.68Z" fill="#F98B67"/>
<path d="M252.14 340.279C256.635 340.279 260.279 336.635 260.279 332.14C260.279 327.644 256.635 324 252.14 324C247.644 324 244 327.644 244 332.14C244 336.635 247.644 340.279 252.14 340.279Z" fill="#FDD28A"/>
<path fill-rule="evenodd" clip-rule="evenodd" d="M178 711L178 806.64H274.657L178 711Z" fill="#17BEBB" fill-opacity="0.2"/>
<path d="M847.343 414.642C889.299 441.107 932.648 463.838 975.636 501.261C1018.62 538.684 1061.28 590.742 1047.29 630.704C1033.13 670.509 962.348 698.209 906.573 713.039C850.628 727.85 809.703 729.594 774.475 730.869C739.258 731.986 709.558 732.623 648.776 751.884C588.186 771.311 496.481 809.714 454.695 792.806C412.909 775.898 420.849 703.796 404.618 631.841C388.216 560.033 347.471 488.224 359.036 427.718C370.782 367.221 434.668 317.702 504.252 303.048C574.037 288.248 649.297 308.302 707.134 333.287C764.972 358.272 805.557 388.393 847.343 414.642Z" fill="#FAEFE9" fill-opacity="0.4"/>
<path d="M441.859 645.046C447.339 641.621 449.006 634.403 445.582 628.923C442.157 623.443 434.939 621.776 429.459 625.2L369.923 662.403C364.443 665.827 362.776 673.045 366.2 678.526C369.625 684.006 376.843 685.672 382.323 682.248L441.859 645.046Z" fill="#4B1D3F" fill-opacity="0.3"/>
<path d="M942.052 660.105C943.738 660.105 945.105 658.738 945.105 657.052C945.105 655.367 943.738 654 942.052 654C940.367 654 939 655.367 939 657.052C939 658.738 940.367 660.105 942.052 660.105Z" fill="#885A89" fill-opacity="0.524148"/>
<path d="M952.227 660.105C953.913 660.105 955.279 658.738 955.279 657.052C955.279 655.367 953.913 654 952.227 654C950.541 654 949.174 655.367 949.174 657.052C949.174 658.738 950.541 660.105 952.227 660.105Z" fill="#885A89" fill-opacity="0.524148"/>
<path d="M962.401 660.105C964.087 660.105 965.453 658.738 965.453 657.052C965.453 655.367 964.087 654 962.401 654C960.715 654 959.349 655.367 959.349 657.052C959.349 658.738 960.715 660.105 962.401 660.105Z" fill="#885A89" fill-opacity="0.524148"/>
<path d="M942.052 670.279C943.738 670.279 945.105 668.912 945.105 667.227C945.105 665.541 943.738 664.174 942.052 664.174C940.367 664.174 939 665.541 939 667.227C939 668.912 940.367 670.279 942.052 670.279Z" fill="#885A89" fill-opacity="0.524148"/>
<path d="M952.227 670.279C953.913 670.279 955.279 668.912 955.279 667.227C955.279 665.541 953.913 664.174 952.227 664.174C950.541 664.174 949.174 665.541 949.174 667.227C949.174 668.912 950.541 670.279 952.227 670.279Z" fill="#885A89" fill-opacity="0.524148"/>
<path d="M962.401 670.279C964.087 670.279 965.453 668.912 965.453 667.227C965.453 665.541 964.087 664.174 962.401 664.174C960.715 664.174 959.349 665.541 959.349 667.227C959.349 668.912 960.715 670.279 962.401 670.279Z" fill="#885A89" fill-opacity="0.524148"/>
<path d="M942.052 680.454C943.738 680.454 945.105 679.087 945.105 677.401C945.105 675.715 943.738 674.349 942.052 674.349C940.367 674.349 939 675.715 939 677.401C939 679.087 940.367 680.454 942.052 680.454Z" fill="#885A89" fill-opacity="0.524148"/>
<path d="M952.227 680.454C953.913 680.454 955.279 679.087 955.279 677.401C955.279 675.715 953.913 674.349 952.227 674.349C950.541 674.349 949.174 675.715 949.174 677.401C949.174 679.087 950.541 680.454 952.227 680.454Z" fill="#885A89" fill-opacity="0.524148"/>
<path d="M962.401 680.454C964.087 680.454 965.453 679.087 965.453 677.401C965.453 675.715 964.087 674.349 962.401 674.349C960.715 674.349 959.349 675.715 959.349 677.401C959.349 679.087 960.715 680.454 962.401 680.454Z" fill="#885A89" fill-opacity="0.524148"/>
<path d="M942.052 690.628C943.738 690.628 945.105 689.261 945.105 687.576C945.105 685.89 943.738 684.523 942.052 684.523C940.367 684.523 939 685.89 939 687.576C939 689.261 940.367 690.628 942.052 690.628Z" fill="#885A89" fill-opacity="0.524148"/>
<path d="M952.227 690.628C953.913 690.628 955.279 689.261 955.279 687.576C955.279 685.89 953.913 684.523 952.227 684.523C950.541 684.523 949.174 685.89 949.174 687.576C949.174 689.261 950.541 690.628 952.227 690.628Z" fill="#885A89" fill-opacity="0.524148"/>
<path d="M962.401 690.628C964.087 690.628 965.453 689.261 965.453 687.576C965.453 685.89 964.087 684.523 962.401 684.523C960.715 684.523 959.349 685.89 959.349 687.576C959.349 689.261 960.715 690.628 962.401 690.628Z" fill="#885A89" fill-opacity="0.524148"/>
<path d="M942.052 700.802C943.738 700.802 945.105 699.436 945.105 697.75C945.105 696.064 943.738 694.698 942.052 694.698C940.367 694.698 939 696.064 939 697.75C939 699.436 940.367 700.802 942.052 700.802Z" fill="#885A89" fill-opacity="0.524148"/>
<path d="M952.227 700.802C953.913 700.802 955.279 699.436 955.279 697.75C955.279 696.064 953.913 694.698 952.227 694.698C950.541 694.698 949.174 696.064 949.174 697.75C949.174 699.436 950.541 700.802 952.227 700.802Z" fill="#885A89" fill-opacity="0.524148"/>
<path d="M962.401 700.802C964.087 700.802 965.453 699.436 965.453 697.75C965.453 696.064 964.087 694.698 962.401 694.698C960.715 694.698 959.349 696.064 959.349 697.75C959.349 699.436 960.715 700.802 962.401 700.802Z" fill="#885A89" fill-opacity="0.524148"/>
<path d="M972.576 660.105C974.261 660.105 975.628 658.738 975.628 657.052C975.628 655.367 974.261 654 972.576 654C970.89 654 969.523 655.367 969.523 657.052C969.523 658.738 970.89 660.105 972.576 660.105Z" fill="#885A89" fill-opacity="0.524148"/>
<path d="M982.75 660.105C984.436 660.105 985.802 658.738 985.802 657.052C985.802 655.367 984.436 654 982.75 654C981.064 654 979.698 655.367 979.698 657.052C979.698 658.738 981.064 660.105 982.75 660.105Z" fill="#885A89" fill-opacity="0.524148"/>
<path d="M992.924 660.105C994.61 660.105 995.977 658.738 995.977 657.052C995.977 655.367 994.61 654 992.924 654C991.239 654 989.872 655.367 989.872 657.052C989.872 658.738 991.239 660.105 992.924 660.105Z" fill="#885A89" fill-opacity="0.524148"/>
<path d="M972.576 670.279C974.261 670.279 975.628 668.912 975.628 667.227C975.628 665.541 974.261 664.174 972.576 664.174C970.89 664.174 969.523 665.541 969.523 667.227C969.523 668.912 970.89 670.279 972.576 670.279Z" fill="#885A89" fill-opacity="0.524148"/>
<path d="M982.75 670.279C984.436 670.279 985.802 668.912 985.802 667.227C985.802 665.541 984.436 664.174 982.75 664.174C981.064 664.174 979.698 665.541 979.698 667.227C979.698 668.912 981.064 670.279 982.75 670.279Z" fill="#885A89" fill-opacity="0.524148"/>
<path d="M992.924 670.279C994.61 670.279 995.977 668.912 995.977 667.227C995.977 665.541 994.61 664.174 992.924 664.174C991.239 664.174 989.872 665.541 989.872 667.227C989.872 668.912 991.239 670.279 992.924 670.279Z" fill="#885A89" fill-opacity="0.524148"/>
<path d="M972.576 680.454C974.261 680.454 975.628 679.087 975.628 677.401C975.628 675.715 974.261 674.349 972.576 674.349C970.89 674.349 969.523 675.715 969.523 677.401C969.523 679.087 970.89 680.454 972.576 680.454Z" fill="#885A89" fill-opacity="0.524148"/>
<path d="M982.75 680.454C984.436 680.454 985.802 679.087 985.802 677.401C985.802 675.715 984.436 674.349 982.75 674.349C981.064 674.349 979.698 675.715 979.698 677.401C979.698 679.087 981.064 680.454 982.75 680.454Z" fill="#885A89" fill-opacity="0.524148"/>
<path d="M992.924 680.454C994.61 680.454 995.977 679.087 995.977 677.401C995.977 675.715 994.61 674.349 992.924 674.349C991.239 674.349 989.872 675.715 989.872 677.401C989.872 679.087 991.239 680.454 992.924 680.454Z" fill="#885A89" fill-opacity="0.524148"/>
<path d="M972.576 690.628C974.261 690.628 975.628 689.261 975.628 687.576C975.628 685.89 974.261 684.523 972.576 684.523C970.89 684.523 969.523 685.89 969.523 687.576C969.523 689.261 970.89 690.628 972.576 690.628Z" fill="#885A89" fill-opacity="0.524148"/>
<path d="M982.75 690.628C984.436 690.628 985.802 689.261 985.802 687.576C985.802 685.89 984.436 684.523 982.75 684.523C981.064 684.523 979.698 685.89 979.698 687.576C979.698 689.261 981.064 690.628 982.75 690.628Z" fill="#885A89" fill-opacity="0.524148"/>
<path d="M992.924 690.628C994.61 690.628 995.977 689.261 995.977 687.576C995.977 685.89 994.61 684.523 992.924 684.523C991.239 684.523 989.872 685.89 989.872 687.576C989.872 689.261 991.239 690.628 992.924 690.628Z" fill="#885A89" fill-opacity="0.524148"/>
<path d="M972.576 700.802C974.261 700.802 975.628 699.436 975.628 697.75C975.628 696.064 974.261 694.698 972.576 694.698C970.89 694.698 969.523 696.064 969.523 697.75C969.523 699.436 970.89 700.802 972.576 700.802Z" fill="#885A89" fill-opacity="0.524148"/>
<path d="M982.75 700.802C984.436 700.802 985.802 699.436 985.802 697.75C985.802 696.064 984.436 694.698 982.75 694.698C981.064 694.698 979.698 696.064 979.698 697.75C979.698 699.436 981.064 700.802 982.75 700.802Z" fill="#885A89" fill-opacity="0.524148"/>
<path d="M992.924 700.802C994.61 700.802 995.977 699.436 995.977 697.75C995.977 696.064 994.61 694.698 992.924 694.698C991.239 694.698 989.872 696.064 989.872 697.75C989.872 699.436 991.239 700.802 992.924 700.802Z" fill="#885A89" fill-opacity="0.524148"/>
<path d="M1003.1 660.105C1004.78 660.105 1006.15 658.738 1006.15 657.052C1006.15 655.367 1004.78 654 1003.1 654C1001.41 654 1000.05 655.367 1000.05 657.052C1000.05 658.738 1001.41 660.105 1003.1 660.105Z" fill="#885A89" fill-opacity="0.524148"/>
<path d="M1013.27 660.105C1014.96 660.105 1016.33 658.738 1016.33 657.052C1016.33 655.367 1014.96 654 1013.27 654C1011.59 654 1010.22 655.367 1010.22 657.052C1010.22 658.738 1011.59 660.105 1013.27 660.105Z" fill="#885A89" fill-opacity="0.524148"/>
<path d="M1023.45 660.105C1025.13 660.105 1026.5 658.738 1026.5 657.052C1026.5 655.367 1025.13 654 1023.45 654C1021.76 654 1020.4 655.367 1020.4 657.052C1020.4 658.738 1021.76 660.105 1023.45 660.105Z" fill="#885A89" fill-opacity="0.524148"/>
<path d="M1003.1 670.279C1004.78 670.279 1006.15 668.912 1006.15 667.227C1006.15 665.541 1004.78 664.174 1003.1 664.174C1001.41 664.174 1000.05 665.541 1000.05 667.227C1000.05 668.912 1001.41 670.279 1003.1 670.279Z" fill="#885A89" fill-opacity="0.524148"/>
<path d="M1013.27 670.279C1014.96 670.279 1016.33 668.912 1016.33 667.227C1016.33 665.541 1014.96 664.174 1013.27 664.174C1011.59 664.174 1010.22 665.541 1010.22 667.227C1010.22 668.912 1011.59 670.279 1013.27 670.279Z" fill="#885A89" fill-opacity="0.524148"/>
<path d="M1023.45 670.279C1025.13 670.279 1026.5 668.912 1026.5 667.227C1026.5 665.541 1025.13 664.174 1023.45 664.174C1021.76 664.174 1020.4 665.541 1020.4 667.227C1020.4 668.912 1021.76 670.279 1023.45 670.279Z" fill="#885A89" fill-opacity="0.524148"/>
<path d="M1003.1 680.454C1004.78 680.454 1006.15 679.087 1006.15 677.401C1006.15 675.715 1004.78 674.349 1003.1 674.349C1001.41 674.349 1000.05 675.715 1000.05 677.401C1000.05 679.087 1001.41 680.454 1003.1 680.454Z" fill="#885A89" fill-opacity="0.524148"/>
<path d="M1013.27 680.454C1014.96 680.454 1016.33 679.087 1016.33 677.401C1016.33 675.715 1014.96 674.349 1013.27 674.349C1011.59 674.349 1010.22 675.715 1010.22 677.401C1010.22 679.087 1011.59 680.454 1013.27 680.454Z" fill="#885A89" fill-opacity="0.524148"/>
<path d="M1023.45 680.454C1025.13 680.454 1026.5 679.087 1026.5 677.401C1026.5 675.715 1025.13 674.349 1023.45 674.349C1021.76 674.349 1020.4 675.715 1020.4 677.401C1020.4 679.087 1021.76 680.454 1023.45 680.454Z" fill="#885A89" fill-opacity="0.524148"/>
<path d="M1003.1 690.628C1004.78 690.628 1006.15 689.261 1006.15 687.576C1006.15 685.89 1004.78 684.523 1003.1 684.523C1001.41 684.523 1000.05 685.89 1000.05 687.576C1000.05 689.261 1001.41 690.628 1003.1 690.628Z" fill="#885A89" fill-opacity="0.524148"/>
<path d="M1013.27 690.628C1014.96 690.628 1016.33 689.261 1016.33 687.576C1016.33 685.89 1014.96 684.523 1013.27 684.523C1011.59 684.523 1010.22 685.89 1010.22 687.576C1010.22 689.261 1011.59 690.628 1013.27 690.628Z" fill="#885A89" fill-opacity="0.524148"/>
<path d="M1023.45 690.628C1025.13 690.628 1026.5 689.261 1026.5 687.576C1026.5 685.89 1025.13 684.523 1023.45 684.523C1021.76 684.523 1020.4 685.89 1020.4 687.576C1020.4 689.261 1021.76 690.628 1023.45 690.628Z" fill="#885A89" fill-opacity="0.524148"/>
<path d="M1003.1 700.802C1004.78 700.802 1006.15 699.436 1006.15 697.75C1006.15 696.064 1004.78 694.698 1003.1 694.698C1001.41 694.698 1000.05 696.064 1000.05 697.75C1000.05 699.436 1001.41 700.802 1003.1 700.802Z" fill="#885A89" fill-opacity="0.524148"/>
<path d="M1013.27 700.802C1014.96 700.802 1016.33 699.436 1016.33 697.75C1016.33 696.064 1014.96 694.698 1013.27 694.698C1011.59 694.698 1010.22 696.064 1010.22 697.75C1010.22 699.436 1011.59 700.802 1013.27 700.802Z" fill="#885A89" fill-opacity="0.524148"/>
<path d="M1023.45 700.802C1025.13 700.802 1026.5 699.436 1026.5 697.75C1026.5 696.064 1025.13 694.698 1023.45 694.698C1021.76 694.698 1020.4 696.064 1020.4 697.75C1020.4 699.436 1021.76 700.802 1023.45 700.802Z" fill="#885A89" fill-opacity="0.524148"/>
<path d="M942.052 710.977C943.738 710.977 945.105 709.61 945.105 707.924C945.105 706.239 943.738 704.872 942.052 704.872C940.367 704.872 939 706.239 939 707.924C939 709.61 940.367 710.977 942.052 710.977Z" fill="#885A89" fill-opacity="0.524148"/>
<path d="M952.227 710.977C953.913 710.977 955.279 709.61 955.279 707.924C955.279 706.239 953.913 704.872 952.227 704.872C950.541 704.872 949.174 706.239 949.174 707.924C949.174 709.61 950.541 710.977 952.227 710.977Z" fill="#885A89" fill-opacity="0.524148"/>
<path d="M962.401 710.977C964.087 710.977 965.453 709.61 965.453 707.924C965.453 706.239 964.087 704.872 962.401 704.872C960.715 704.872 959.349 706.239 959.349 707.924C959.349 709.61 960.715 710.977 962.401 710.977Z" fill="#885A89" fill-opacity="0.524148"/>
<path d="M942.052 721.151C943.738 721.151 945.105 719.785 945.105 718.099C945.105 716.413 943.738 715.047 942.052 715.047C940.367 715.047 939 716.413 939 718.099C939 719.785 940.367 721.151 942.052 721.151Z" fill="#885A89" fill-opacity="0.524148"/>
<path d="M952.227 721.151C953.913 721.151 955.279 719.785 955.279 718.099C955.279 716.413 953.913 715.047 952.227 715.047C950.541 715.047 949.174 716.413 949.174 718.099C949.174 719.785 950.541 721.151 952.227 721.151Z" fill="#885A89" fill-opacity="0.524148"/>
<path d="M962.401 721.151C964.087 721.151 965.453 719.785 965.453 718.099C965.453 716.413 964.087 715.047 962.401 715.047C960.715 715.047 959.349 716.413 959.349 718.099C959.349 719.785 960.715 721.151 962.401 721.151Z" fill="#885A89" fill-opacity="0.524148"/>
<path d="M942.052 731.326C943.738 731.326 945.105 729.959 945.105 728.273C945.105 726.588 943.738 725.221 942.052 725.221C940.367 725.221 939 726.588 939 728.273C939 729.959 940.367 731.326 942.052 731.326Z" fill="#885A89" fill-opacity="0.524148"/>
<path d="M952.227 731.326C953.913 731.326 955.279 729.959 955.279 728.273C955.279 726.588 953.913 725.221 952.227 725.221C950.541 725.221 949.174 726.588 949.174 728.273C949.174 729.959 950.541 731.326 952.227 731.326Z" fill="#885A89" fill-opacity="0.524148"/>
<path d="M962.401 731.326C964.087 731.326 965.453 729.959 965.453 728.273C965.453 726.588 964.087 725.221 962.401 725.221C960.715 725.221 959.349 726.588 959.349 728.273C959.349 729.959 960.715 731.326 962.401 731.326Z" fill="#885A89" fill-opacity="0.524148"/>
<path d="M942.052 741.5C943.738 741.5 945.105 740.133 945.105 738.448C945.105 736.762 943.738 735.395 942.052 735.395C940.367 735.395 939 736.762 939 738.448C939 740.133 940.367 741.5 942.052 741.5Z" fill="#885A89" fill-opacity="0.524148"/>
<path d="M952.227 741.5C953.913 741.5 955.279 740.133 955.279 738.448C955.279 736.762 953.913 735.395 952.227 735.395C950.541 735.395 949.174 736.762 949.174 738.448C949.174 740.133 950.541 741.5 952.227 741.5Z" fill="#885A89" fill-opacity="0.524148"/>
<path d="M962.401 741.5C964.087 741.5 965.453 740.133 965.453 738.448C965.453 736.762 964.087 735.395 962.401 735.395C960.715 735.395 959.349 736.762 959.349 738.448C959.349 740.133 960.715 741.5 962.401 741.5Z" fill="#885A89" fill-opacity="0.524148"/>
<path d="M972.576 710.977C974.261 710.977 975.628 709.61 975.628 707.924C975.628 706.239 974.261 704.872 972.576 704.872C970.89 704.872 969.523 706.239 969.523 707.924C969.523 709.61 970.89 710.977 972.576 710.977Z" fill="#885A89" fill-opacity="0.524148"/>
<path d="M982.75 710.977C984.436 710.977 985.802 709.61 985.802 707.924C985.802 706.239 984.436 704.872 982.75 704.872C981.064 704.872 979.698 706.239 979.698 707.924C979.698 709.61 981.064 710.977 982.75 710.977Z" fill="#885A89" fill-opacity="0.524148"/>
<path d="M992.924 710.977C994.61 710.977 995.977 709.61 995.977 707.924C995.977 706.239 994.61 704.872 992.924 704.872C991.239 704.872 989.872 706.239 989.872 707.924C989.872 709.61 991.239 710.977 992.924 710.977Z" fill="#885A89" fill-opacity="0.524148"/>
<path d="M972.576 721.151C974.261 721.151 975.628 719.785 975.628 718.099C975.628 716.413 974.261 715.047 972.576 715.047C970.89 715.047 969.523 716.413 969.523 718.099C969.523 719.785 970.89 721.151 972.576 721.151Z" fill="#885A89" fill-opacity="0.524148"/>
<path d="M982.75 721.151C984.436 721.151 985.802 719.785 985.802 718.099C985.802 716.413 984.436 715.047 982.75 715.047C981.064 715.047 979.698 716.413 979.698 718.099C979.698 719.785 981.064 721.151 982.75 721.151Z" fill="#885A89" fill-opacity="0.524148"/>
<path d="M992.924 721.151C994.61 721.151 995.977 719.785 995.977 718.099C995.977 716.413 994.61 715.047 992.924 715.047C991.239 715.047 989.872 716.413 989.872 718.099C989.872 719.785 991.239 721.151 992.924 721.151Z" fill="#885A89" fill-opacity="0.524148"/>
<path d="M972.576 731.326C974.261 731.326 975.628 729.959 975.628 728.273C975.628 726.588 974.261 725.221 972.576 725.221C970.89 725.221 969.523 726.588 969.523 728.273C969.523 729.959 970.89 731.326 972.576 731.326Z" fill="#885A89" fill-opacity="0.524148"/>
<path d="M982.75 731.326C984.436 731.326 985.802 729.959 985.802 728.273C985.802 726.588 984.436 725.221 982.75 725.221C981.064 725.221 979.698 726.588 979.698 728.273C979.698 729.959 981.064 731.326 982.75 731.326Z" fill="#885A89" fill-opacity="0.524148"/>
<path d="M992.924 731.326C994.61 731.326 995.977 729.959 995.977 728.273C995.977 726.588 994.61 725.221 992.924 725.221C991.239 725.221 989.872 726.588 989.872 728.273C989.872 729.959 991.239 731.326 992.924 731.326Z" fill="#885A89" fill-opacity="0.524148"/>
<path d="M972.576 741.5C974.261 741.5 975.628 740.133 975.628 738.448C975.628 736.762 974.261 735.395 972.576 735.395C970.89 735.395 969.523 736.762 969.523 738.448C969.523 740.133 970.89 741.5 972.576 741.5Z" fill="#885A89" fill-opacity="0.524148"/>
<path d="M982.75 741.5C984.436 741.5 985.802 740.133 985.802 738.448C985.802 736.762 984.436 735.395 982.75 735.395C981.064 735.395 979.698 736.762 979.698 738.448C979.698 740.133 981.064 741.5 982.75 741.5Z" fill="#885A89" fill-opacity="0.524148"/>
<path d="M992.924 741.5C994.61 741.5 995.977 740.133 995.977 738.448C995.977 736.762 994.61 735.395 992.924 735.395C991.239 735.395 989.872 736.762 989.872 738.448C989.872 740.133 991.239 741.5 992.924 741.5Z" fill="#885A89" fill-opacity="0.524148"/>
<path d="M1003.1 710.977C1004.78 710.977 1006.15 709.61 1006.15 707.924C1006.15 706.239 1004.78 704.872 1003.1 704.872C1001.41 704.872 1000.05 706.239 1000.05 707.924C1000.05 709.61 1001.41 710.977 1003.1 710.977Z" fill="#885A89" fill-opacity="0.524148"/>
<path d="M1013.27 710.977C1014.96 710.977 1016.33 709.61 1016.33 707.924C1016.33 706.239 1014.96 704.872 1013.27 704.872C1011.59 704.872 1010.22 706.239 1010.22 707.924C1010.22 709.61 1011.59 710.977 1013.27 710.977Z" fill="#885A89" fill-opacity="0.524148"/>
<path d="M1023.45 710.977C1025.13 710.977 1026.5 709.61 1026.5 707.924C1026.5 706.239 1025.13 704.872 1023.45 704.872C1021.76 704.872 1020.4 706.239 1020.4 707.924C1020.4 709.61 1021.76 710.977 1023.45 710.977Z" fill="#885A89" fill-opacity="0.524148"/>
<path d="M1003.1 721.151C1004.78 721.151 1006.15 719.785 1006.15 718.099C1006.15 716.413 1004.78 715.047 1003.1 715.047C1001.41 715.047 1000.05 716.413 1000.05 718.099C1000.05 719.785 1001.41 721.151 1003.1 721.151Z" fill="#885A89" fill-opacity="0.524148"/>
<path d="M1013.27 721.151C1014.96 721.151 1016.33 719.785 1016.33 718.099C1016.33 716.413 1014.96 715.047 1013.27 715.047C1011.59 715.047 1010.22 716.413 1010.22 718.099C1010.22 719.785 1011.59 721.151 1013.27 721.151Z" fill="#885A89" fill-opacity="0.524148"/>
<path d="M1023.45 721.151C1025.13 721.151 1026.5 719.785 1026.5 718.099C1026.5 716.413 1025.13 715.047 1023.45 715.047C1021.76 715.047 1020.4 716.413 1020.4 718.099C1020.4 719.785 1021.76 721.151 1023.45 721.151Z" fill="#885A89" fill-opacity="0.524148"/>
<path d="M1003.1 731.326C1004.78 731.326 1006.15 729.959 1006.15 728.273C1006.15 726.588 1004.78 725.221 1003.1 725.221C1001.41 725.221 1000.05 726.588 1000.05 728.273C1000.05 729.959 1001.41 731.326 1003.1 731.326Z" fill="#885A89" fill-opacity="0.524148"/>
<path d="M1013.27 731.326C1014.96 731.326 1016.33 729.959 1016.33 728.273C1016.33 726.588 1014.96 725.221 1013.27 725.221C1011.59 725.221 1010.22 726.588 1010.22 728.273C1010.22 729.959 1011.59 731.326 1013.27 731.326Z" fill="#885A89" fill-opacity="0.524148"/>
<path d="M1023.45 731.326C1025.13 731.326 1026.5 729.959 1026.5 728.273C1026.5 726.588 1025.13 725.221 1023.45 725.221C1021.76 725.221 1020.4 726.588 1020.4 728.273C1020.4 729.959 1021.76 731.326 1023.45 731.326Z" fill="#885A89" fill-opacity="0.524148"/>
<path d="M1003.1 741.5C1004.78 741.5 1006.15 740.133 1006.15 738.448C1006.15 736.762 1004.78 735.395 1003.1 735.395C1001.41 735.395 1000.05 736.762 1000.05 738.448C1000.05 740.133 1001.41 741.5 1003.1 741.5Z" fill="#885A89" fill-opacity="0.524148"/>
<path d="M1013.27 741.5C1014.96 741.5 1016.33 740.133 1016.33 738.448C1016.33 736.762 1014.96 735.395 1013.27 735.395C1011.59 735.395 1010.22 736.762 1010.22 738.448C1010.22 740.133 1011.59 741.5 1013.27 741.5Z" fill="#885A89" fill-opacity="0.524148"/>
<path d="M1023.45 741.5C1025.13 741.5 1026.5 740.133 1026.5 738.448C1026.5 736.762 1025.13 735.395 1023.45 735.395C1021.76 735.395 1020.4 736.762 1020.4 738.448C1020.4 740.133 1021.76 741.5 1023.45 741.5Z" fill="#885A89" fill-opacity="0.524148"/>
</svg>
