<svg width="1440" height="1024" viewBox="0 0 1440 1024" fill="none" xmlns="http://www.w3.org/2000/svg">
<rect width="1440" height="1024" fill="white"/>
<rect x="66" y="471" width="10" height="10" fill="#947BD3" fill-opacity="0.5"/>
<rect x="359" y="823" width="10" height="10" fill="#947BD3" fill-opacity="0.5"/>
<rect x="319" y="823" width="10" height="10" fill="#947BD3" fill-opacity="0.5"/>
<rect x="439" y="823" width="10" height="10" fill="#947BD3" fill-opacity="0.5"/>
<rect x="1310" y="318" width="10" height="10" fill="#947BD3" fill-opacity="0.5"/>
<rect x="1118.52" y="679.106" width="10" height="10" fill="#947BD3" fill-opacity="0.5"/>
<rect x="1310" y="278" width="10" height="10" fill="#947BD3" fill-opacity="0.5"/>
<rect x="1158.52" y="679.142" width="10" height="10" fill="#947BD3" fill-opacity="0.5"/>
<rect x="1198.52" y="679.571" width="10" height="10" fill="#947BD3" fill-opacity="0.5"/>
<rect x="107" y="471" width="10" height="10" fill="#947BD3" fill-opacity="0.5"/>
<rect x="148" y="471" width="10" height="10" fill="#947BD3" fill-opacity="0.5"/>
<rect x="399" y="823" width="10" height="10" fill="#947BD3" fill-opacity="0.5"/>
<rect x="479" y="823" width="10" height="10" fill="#947BD3" fill-opacity="0.5"/>
<rect x="1350" y="318" width="10" height="10" fill="#947BD3" fill-opacity="0.5"/>
<rect x="1118.48" y="719.677" width="10" height="10" fill="#947BD3" fill-opacity="0.5"/>
<rect x="1118" y="759.677" width="10" height="10" fill="#947BD3" fill-opacity="0.5"/>
<rect x="1350" y="278" width="10" height="10" fill="#947BD3" fill-opacity="0.5"/>
<rect x="1158.48" y="719.712" width="10" height="10" fill="#947BD3" fill-opacity="0.5"/>
<rect x="1158" y="759.712" width="10" height="10" fill="#947BD3" fill-opacity="0.5"/>
<rect x="1198.48" y="720.142" width="10" height="10" fill="#947BD3" fill-opacity="0.5"/>
<rect x="1198" y="760.142" width="10" height="10" fill="#947BD3" fill-opacity="0.5"/>
<rect x="66" y="511" width="10" height="10" fill="#947BD3" fill-opacity="0.5"/>
<rect x="359" y="863" width="10" height="10" fill="#947BD3" fill-opacity="0.5"/>
<rect x="319" y="863" width="10" height="10" fill="#947BD3" fill-opacity="0.5"/>
<rect x="439" y="863" width="10" height="10" fill="#947BD3" fill-opacity="0.5"/>
<rect x="1310" y="358" width="10" height="10" fill="#947BD3" fill-opacity="0.5"/>
<rect x="1078.52" y="679.071" width="10" height="10" fill="#947BD3" fill-opacity="0.5"/>
<rect x="107" y="511" width="10" height="10" fill="#947BD3" fill-opacity="0.5"/>
<rect x="148" y="511" width="10" height="10" fill="#947BD3" fill-opacity="0.5"/>
<rect x="399" y="863" width="10" height="10" fill="#947BD3" fill-opacity="0.5"/>
<rect x="479" y="863" width="10" height="10" fill="#947BD3" fill-opacity="0.5"/>
<rect x="1350" y="358" width="10" height="10" fill="#947BD3" fill-opacity="0.5"/>
<rect x="1078.48" y="719.642" width="10" height="10" fill="#947BD3" fill-opacity="0.5"/>
<rect x="1078" y="759.642" width="10" height="10" fill="#947BD3" fill-opacity="0.5"/>
<rect x="66" y="551" width="10" height="10" fill="#947BD3" fill-opacity="0.5"/>
<rect x="359" y="903" width="10" height="10" fill="#947BD3" fill-opacity="0.5"/>
<rect x="319" y="903" width="10" height="10" fill="#947BD3" fill-opacity="0.5"/>
<rect x="439" y="903" width="10" height="10" fill="#947BD3" fill-opacity="0.5"/>
<rect x="1310" y="398" width="10" height="10" fill="#947BD3" fill-opacity="0.5"/>
<rect x="1038.52" y="679.035" width="10" height="10" fill="#947BD3" fill-opacity="0.5"/>
<rect x="107" y="551" width="10" height="10" fill="#947BD3" fill-opacity="0.5"/>
<rect x="148" y="551" width="10" height="10" fill="#947BD3" fill-opacity="0.5"/>
<rect x="399" y="903" width="10" height="10" fill="#947BD3" fill-opacity="0.5"/>
<rect x="479" y="903" width="10" height="10" fill="#947BD3" fill-opacity="0.5"/>
<rect x="1350" y="398" width="10" height="10" fill="#947BD3" fill-opacity="0.5"/>
<rect x="1038.48" y="719.606" width="10" height="10" fill="#947BD3" fill-opacity="0.5"/>
<rect x="1038" y="759.606" width="10" height="10" fill="#947BD3" fill-opacity="0.5"/>
<rect x="66" y="591" width="10" height="10" fill="#947BD3" fill-opacity="0.5"/>
<rect x="359" y="943" width="10" height="10" fill="#947BD3" fill-opacity="0.5"/>
<rect x="319" y="943" width="10" height="10" fill="#947BD3" fill-opacity="0.5"/>
<rect x="439" y="943" width="10" height="10" fill="#947BD3" fill-opacity="0.5"/>
<rect x="65" y="631" width="10" height="10" fill="#947BD3" fill-opacity="0.5"/>
<rect x="359" y="983" width="10" height="10" fill="#947BD3" fill-opacity="0.5"/>
<rect x="319" y="983" width="10" height="10" fill="#947BD3" fill-opacity="0.5"/>
<rect x="439" y="983" width="10" height="10" fill="#947BD3" fill-opacity="0.5"/>
<rect x="998.52" y="679" width="10" height="10" fill="#947BD3" fill-opacity="0.5"/>
<rect x="107" y="591" width="10" height="10" fill="#947BD3" fill-opacity="0.5"/>
<rect x="148" y="591" width="10" height="10" fill="#947BD3" fill-opacity="0.5"/>
<rect x="399" y="943" width="10" height="10" fill="#947BD3" fill-opacity="0.5"/>
<rect x="479" y="943" width="10" height="10" fill="#947BD3" fill-opacity="0.5"/>
<rect x="106" y="631" width="10" height="10" fill="#947BD3" fill-opacity="0.5"/>
<rect x="147" y="631" width="10" height="10" fill="#947BD3" fill-opacity="0.5"/>
<rect x="399" y="983" width="10" height="10" fill="#947BD3" fill-opacity="0.5"/>
<rect x="479" y="983" width="10" height="10" fill="#947BD3" fill-opacity="0.5"/>
<rect x="998.48" y="719.571" width="10" height="10" fill="#947BD3" fill-opacity="0.5"/>
<rect x="998" y="759.571" width="10" height="10" fill="#947BD3" fill-opacity="0.5"/>
</svg>
