<svg width="1534" height="204" viewBox="0 0 1534 204" fill="none" xmlns="http://www.w3.org/2000/svg">
<rect width="1534" height="204" fill="white"/>
<rect x="74" y="97" width="1430" height="10" fill="#495057"/>
<rect x="74" y="77" width="50" height="50" fill="#4A6BAC"/>
<rect x="419" y="77" width="50" height="50" fill="#4A6BAC"/>
<rect x="764" y="77" width="50" height="50" fill="#4A6BAC"/>
<rect x="1457" y="77" width="50" height="50" fill="#4A6BAC"/>
<rect x="1109" y="77" width="50" height="50" fill="#4A6BAC"/>
<path d="M18.816 167.672L32.496 185H22.56L11.04 169.784V185H2.832V151.064H11.04V165.992L22.656 151.064H32.496L18.816 167.672ZM35.2046 150.68C35.2046 149.432 35.6526 148.408 36.5486 147.608C37.4446 146.776 38.6286 146.36 40.1006 146.36C41.5726 146.36 42.7566 146.776 43.6526 147.608C44.5486 148.408 44.9966 149.432 44.9966 150.68C44.9966 151.896 44.5486 152.92 43.6526 153.752C42.7566 154.552 41.5726 154.952 40.1006 154.952C38.6286 154.952 37.4446 154.552 36.5486 153.752C35.6526 152.92 35.2046 151.896 35.2046 150.68ZM44.1806 158.216V185H35.9726V158.216H44.1806ZM61.9436 157.88C65.3996 157.88 68.2956 158.84 70.6316 160.76C72.9676 162.648 74.4396 165.256 75.0476 168.584H66.3596C66.1036 167.432 65.5756 166.536 64.7756 165.896C63.9756 165.256 62.9676 164.936 61.7516 164.936C60.3116 164.936 59.1276 165.512 58.1996 166.664C57.2716 167.784 56.8076 169.432 56.8076 171.608C56.8076 173.784 57.2716 175.448 58.1996 176.6C59.1276 177.72 60.3116 178.28 61.7516 178.28C62.9676 178.28 63.9756 177.96 64.7756 177.32C65.5756 176.68 66.1036 175.784 66.3596 174.632H75.0476C74.4396 177.96 72.9676 180.584 70.6316 182.504C68.2956 184.392 65.3996 185.336 61.9436 185.336C59.3196 185.336 56.9836 184.792 54.9356 183.704C52.9196 182.584 51.3356 180.984 50.1836 178.904C49.0316 176.824 48.4556 174.392 48.4556 171.608C48.4556 168.792 49.0156 166.36 50.1356 164.312C51.2876 162.232 52.8876 160.648 54.9356 159.56C56.9836 158.44 59.3196 157.88 61.9436 157.88ZM95.556 185L87.54 173.624V185H79.332V149.48H87.54V168.968L95.556 158.216H105.204L94.404 171.608L105.444 185H95.556ZM127.065 164.744V171.56H105.897V164.744H127.065ZM147.032 157.88C149.688 157.88 152.056 158.44 154.136 159.56C156.248 160.648 157.896 162.232 159.08 164.312C160.296 166.392 160.904 168.824 160.904 171.608C160.904 174.392 160.296 176.824 159.08 178.904C157.896 180.984 156.248 182.584 154.136 183.704C152.056 184.792 149.688 185.336 147.032 185.336C144.376 185.336 141.992 184.792 139.88 183.704C137.768 182.584 136.104 180.984 134.888 178.904C133.704 176.824 133.112 174.392 133.112 171.608C133.112 168.824 133.704 166.392 134.888 164.312C136.104 162.232 137.768 160.648 139.88 159.56C141.992 158.44 144.376 157.88 147.032 157.88ZM147.032 164.984C145.464 164.984 144.136 165.56 143.048 166.712C141.992 167.832 141.464 169.464 141.464 171.608C141.464 173.752 141.992 175.384 143.048 176.504C144.136 177.624 145.464 178.184 147.032 178.184C148.6 178.184 149.912 177.624 150.968 176.504C152.024 175.384 152.552 173.752 152.552 171.608C152.552 169.464 152.024 167.832 150.968 166.712C149.912 165.56 148.6 164.984 147.032 164.984ZM178.312 154.568C176.968 154.568 175.992 154.856 175.384 155.432C174.776 156.008 174.44 156.936 174.376 158.216H179.224V165.128H174.376V185H166.168V165.128H162.952V158.216H166.168V157.928C166.168 154.6 167.128 152.04 169.048 150.248C171 148.424 173.816 147.512 177.496 147.512C178.264 147.512 178.84 147.528 179.224 147.56V154.616L178.312 154.568ZM195.984 154.568C194.64 154.568 193.664 154.856 193.056 155.432C192.448 156.008 192.112 156.936 192.048 158.216H196.896V165.128H192.048V185H183.84V165.128H180.624V158.216H183.84V157.928C183.84 154.6 184.8 152.04 186.72 150.248C188.672 148.424 191.488 147.512 195.168 147.512C195.936 147.512 196.512 147.528 196.896 147.56V154.616L195.984 154.568Z" fill="#495057"/>
<path d="M348.256 53L340.912 40.184H339.04V53H330.832V19.064H344.848C347.536 19.064 349.808 19.528 351.664 20.456C353.52 21.384 354.912 22.664 355.84 24.296C356.768 25.896 357.232 27.736 357.232 29.816C357.232 32.28 356.544 34.376 355.168 36.104C353.824 37.832 351.856 39.016 349.264 39.656L357.328 53H348.256ZM339.04 34.568H344.128C345.76 34.568 346.96 34.216 347.728 33.512C348.496 32.776 348.88 31.704 348.88 30.296C348.88 28.952 348.48 27.896 347.68 27.128C346.912 26.36 345.728 25.976 344.128 25.976H339.04V34.568ZM386.788 38.888C386.788 39.56 386.708 40.296 386.548 41.096H367.972C368.068 43.112 368.58 44.568 369.508 45.464C370.436 46.328 371.62 46.76 373.06 46.76C374.276 46.76 375.284 46.456 376.084 45.848C376.884 45.24 377.412 44.456 377.668 43.496H386.356C386.004 45.384 385.236 47.08 384.052 48.584C382.868 50.056 381.364 51.224 379.54 52.088C377.716 52.92 375.684 53.336 373.444 53.336C370.82 53.336 368.484 52.792 366.436 51.704C364.42 50.584 362.836 48.984 361.684 46.904C360.532 44.824 359.956 42.392 359.956 39.608C359.956 36.792 360.516 34.36 361.636 32.312C362.788 30.232 364.388 28.648 366.436 27.56C368.484 26.44 370.82 25.88 373.444 25.88C376.1 25.88 378.436 26.424 380.452 27.512C382.468 28.6 384.02 30.136 385.108 32.12C386.228 34.072 386.788 36.328 386.788 38.888ZM378.484 37.64C378.516 35.88 378.036 34.568 377.044 33.704C376.084 32.808 374.884 32.36 373.444 32.36C371.94 32.36 370.692 32.808 369.7 33.704C368.708 34.6 368.148 35.912 368.02 37.64H378.484ZM400.81 25.88C404.202 25.88 406.906 26.728 408.922 28.424C410.97 30.12 412.25 32.36 412.762 35.144H405.082C404.858 34.056 404.346 33.208 403.546 32.6C402.778 31.96 401.802 31.64 400.618 31.64C399.69 31.64 398.986 31.848 398.506 32.264C398.026 32.648 397.786 33.208 397.786 33.944C397.786 34.776 398.218 35.4 399.082 35.816C399.978 36.232 401.37 36.648 403.258 37.064C405.306 37.544 406.986 38.04 408.298 38.552C409.61 39.032 410.746 39.832 411.706 40.952C412.666 42.072 413.146 43.576 413.146 45.464C413.146 47 412.73 48.36 411.898 49.544C411.066 50.728 409.866 51.656 408.298 52.328C406.73 53 404.874 53.336 402.73 53.336C399.114 53.336 396.218 52.536 394.042 50.936C391.866 49.336 390.538 47.048 390.058 44.072H397.978C398.106 45.224 398.586 46.104 399.418 46.712C400.282 47.32 401.386 47.624 402.73 47.624C403.658 47.624 404.362 47.416 404.842 47C405.322 46.552 405.562 45.976 405.562 45.272C405.562 44.344 405.114 43.688 404.218 43.304C403.354 42.888 401.93 42.456 399.946 42.008C397.962 41.592 396.33 41.144 395.05 40.664C393.77 40.184 392.666 39.416 391.738 38.36C390.81 37.272 390.346 35.8 390.346 33.944C390.346 31.544 391.258 29.608 393.082 28.136C394.906 26.632 397.482 25.88 400.81 25.88ZM443.131 38.888C443.131 39.56 443.051 40.296 442.891 41.096H424.315C424.411 43.112 424.923 44.568 425.851 45.464C426.779 46.328 427.963 46.76 429.403 46.76C430.619 46.76 431.627 46.456 432.427 45.848C433.227 45.24 433.755 44.456 434.011 43.496H442.699C442.347 45.384 441.579 47.08 440.395 48.584C439.211 50.056 437.707 51.224 435.883 52.088C434.059 52.92 432.027 53.336 429.787 53.336C427.163 53.336 424.827 52.792 422.779 51.704C420.763 50.584 419.179 48.984 418.027 46.904C416.875 44.824 416.299 42.392 416.299 39.608C416.299 36.792 416.859 34.36 417.979 32.312C419.131 30.232 420.731 28.648 422.779 27.56C424.827 26.44 427.163 25.88 429.787 25.88C432.443 25.88 434.779 26.424 436.795 27.512C438.811 28.6 440.363 30.136 441.451 32.12C442.571 34.072 443.131 36.328 443.131 38.888ZM434.827 37.64C434.859 35.88 434.379 34.568 433.387 33.704C432.427 32.808 431.227 32.36 429.787 32.36C428.283 32.36 427.035 32.808 426.043 33.704C425.051 34.6 424.491 35.912 424.363 37.64H434.827ZM457.586 25.88C459.634 25.88 461.394 26.344 462.866 27.272C464.338 28.2 465.426 29.464 466.13 31.064V26.216H474.29V53H466.13V48.152C465.426 49.752 464.338 51.016 462.866 51.944C461.394 52.872 459.634 53.336 457.586 53.336C455.378 53.336 453.394 52.792 451.634 51.704C449.906 50.584 448.53 48.984 447.506 46.904C446.514 44.824 446.018 42.392 446.018 39.608C446.018 36.792 446.514 34.36 447.506 32.312C448.53 30.232 449.906 28.648 451.634 27.56C453.394 26.44 455.378 25.88 457.586 25.88ZM460.226 33.08C458.466 33.08 457.042 33.656 455.954 34.808C454.898 35.96 454.37 37.56 454.37 39.608C454.37 41.656 454.898 43.256 455.954 44.408C457.042 45.56 458.466 46.136 460.226 46.136C461.954 46.136 463.362 45.544 464.45 44.36C465.57 43.176 466.13 41.592 466.13 39.608C466.13 37.592 465.57 36.008 464.45 34.856C463.362 33.672 461.954 33.08 460.226 33.08ZM488.149 31.256C489.173 29.624 490.485 28.328 492.085 27.368C493.717 26.408 495.477 25.928 497.365 25.928V34.712H495.013C492.837 34.712 491.141 35.176 489.925 36.104C488.741 37.032 488.149 38.6 488.149 40.808V53H479.941V26.216H488.149V31.256ZM512.897 25.88C516.353 25.88 519.249 26.84 521.585 28.76C523.921 30.648 525.393 33.256 526.001 36.584H517.313C517.057 35.432 516.529 34.536 515.729 33.896C514.929 33.256 513.921 32.936 512.705 32.936C511.265 32.936 510.081 33.512 509.153 34.664C508.225 35.784 507.761 37.432 507.761 39.608C507.761 41.784 508.225 43.448 509.153 44.6C510.081 45.72 511.265 46.28 512.705 46.28C513.921 46.28 514.929 45.96 515.729 45.32C516.529 44.68 517.057 43.784 517.313 42.632H526.001C525.393 45.96 523.921 48.584 521.585 50.504C519.249 52.392 516.353 53.336 512.897 53.336C510.273 53.336 507.937 52.792 505.889 51.704C503.873 50.584 502.289 48.984 501.137 46.904C499.985 44.824 499.409 42.392 499.409 39.608C499.409 36.792 499.969 34.36 501.089 32.312C502.241 30.232 503.841 28.648 505.889 27.56C507.937 26.44 510.273 25.88 512.897 25.88ZM547.277 25.928C550.349 25.928 552.781 26.952 554.573 29C556.397 31.048 557.309 33.864 557.309 37.448V53H549.101V38.408C549.101 36.616 548.621 35.224 547.661 34.232C546.733 33.208 545.485 32.696 543.917 32.696C542.253 32.696 540.925 33.224 539.933 34.28C538.973 35.336 538.493 36.84 538.493 38.792V53H530.285V17.48H538.493V31.112C539.261 29.512 540.397 28.248 541.901 27.32C543.437 26.392 545.229 25.928 547.277 25.928Z" fill="#495057"/>
<path d="M720.04 151.064V185H711.832V151.064H720.04ZM735.883 157.88C737.931 157.88 739.691 158.344 741.163 159.272C742.635 160.2 743.707 161.464 744.379 163.064V149.48H752.587V185H744.379V180.152C743.707 181.752 742.635 183.016 741.163 183.944C739.691 184.872 737.931 185.336 735.883 185.336C733.675 185.336 731.691 184.792 729.931 183.704C728.203 182.584 726.827 180.984 725.803 178.904C724.811 176.824 724.315 174.392 724.315 171.608C724.315 168.792 724.811 166.36 725.803 164.312C726.827 162.232 728.203 160.648 729.931 159.56C731.691 158.44 733.675 157.88 735.883 157.88ZM738.523 165.08C736.763 165.08 735.339 165.656 734.251 166.808C733.195 167.96 732.667 169.56 732.667 171.608C732.667 173.656 733.195 175.256 734.251 176.408C735.339 177.56 736.763 178.136 738.523 178.136C740.251 178.136 741.659 177.544 742.747 176.36C743.867 175.176 744.427 173.592 744.427 171.608C744.427 169.592 743.867 168.008 742.747 166.856C741.659 165.672 740.251 165.08 738.523 165.08ZM783.678 170.888C783.678 171.56 783.598 172.296 783.438 173.096H764.862C764.958 175.112 765.47 176.568 766.398 177.464C767.326 178.328 768.51 178.76 769.95 178.76C771.166 178.76 772.174 178.456 772.974 177.848C773.774 177.24 774.302 176.456 774.558 175.496H783.246C782.894 177.384 782.126 179.08 780.942 180.584C779.758 182.056 778.254 183.224 776.43 184.088C774.606 184.92 772.574 185.336 770.334 185.336C767.71 185.336 765.374 184.792 763.326 183.704C761.31 182.584 759.726 180.984 758.574 178.904C757.422 176.824 756.846 174.392 756.846 171.608C756.846 168.792 757.406 166.36 758.526 164.312C759.678 162.232 761.278 160.648 763.326 159.56C765.374 158.44 767.71 157.88 770.334 157.88C772.99 157.88 775.326 158.424 777.342 159.512C779.358 160.6 780.91 162.136 781.998 164.12C783.118 166.072 783.678 168.328 783.678 170.888ZM775.374 169.64C775.406 167.88 774.926 166.568 773.934 165.704C772.974 164.808 771.774 164.36 770.334 164.36C768.83 164.36 767.582 164.808 766.59 165.704C765.598 166.6 765.038 167.912 764.91 169.64H775.374ZM798.133 157.88C800.181 157.88 801.941 158.344 803.413 159.272C804.885 160.2 805.973 161.464 806.677 163.064V158.216H814.837V185H806.677V180.152C805.973 181.752 804.885 183.016 803.413 183.944C801.941 184.872 800.181 185.336 798.133 185.336C795.925 185.336 793.941 184.792 792.181 183.704C790.453 182.584 789.077 180.984 788.053 178.904C787.061 176.824 786.565 174.392 786.565 171.608C786.565 168.792 787.061 166.36 788.053 164.312C789.077 162.232 790.453 160.648 792.181 159.56C793.941 158.44 795.925 157.88 798.133 157.88ZM800.773 165.08C799.013 165.08 797.589 165.656 796.501 166.808C795.445 167.96 794.917 169.56 794.917 171.608C794.917 173.656 795.445 175.256 796.501 176.408C797.589 177.56 799.013 178.136 800.773 178.136C802.501 178.136 803.909 177.544 804.997 176.36C806.117 175.176 806.677 173.592 806.677 171.608C806.677 169.592 806.117 168.008 804.997 166.856C803.909 165.672 802.501 165.08 800.773 165.08ZM835.656 177.944V185H831.96C828.824 185 826.376 184.232 824.616 182.696C822.888 181.128 822.024 178.552 822.024 174.968V165.128H818.424V158.216H822.024V151.64H830.232V158.216H835.608V165.128H830.232V175.112C830.232 176.168 830.44 176.904 830.856 177.32C831.304 177.736 832.04 177.944 833.064 177.944H835.656ZM865.71 170.888C865.71 171.56 865.63 172.296 865.47 173.096H846.894C846.99 175.112 847.502 176.568 848.43 177.464C849.358 178.328 850.542 178.76 851.982 178.76C853.198 178.76 854.206 178.456 855.006 177.848C855.806 177.24 856.334 176.456 856.59 175.496H865.278C864.926 177.384 864.158 179.08 862.974 180.584C861.79 182.056 860.286 183.224 858.462 184.088C856.638 184.92 854.606 185.336 852.366 185.336C849.742 185.336 847.406 184.792 845.358 183.704C843.342 182.584 841.758 180.984 840.605 178.904C839.454 176.824 838.878 174.392 838.878 171.608C838.878 168.792 839.438 166.36 840.558 164.312C841.71 162.232 843.31 160.648 845.358 159.56C847.406 158.44 849.742 157.88 852.366 157.88C855.022 157.88 857.358 158.424 859.374 159.512C861.39 160.6 862.942 162.136 864.03 164.12C865.15 166.072 865.71 168.328 865.71 170.888ZM857.406 169.64C857.438 167.88 856.958 166.568 855.966 165.704C855.006 164.808 853.806 164.36 852.366 164.36C850.862 164.36 849.614 164.808 848.622 165.704C847.63 166.6 847.07 167.912 846.942 169.64H857.406Z" fill="#495057"/>
<path d="M1081.36 35.96C1081.36 39.288 1080.64 42.248 1079.2 44.84C1077.79 47.4 1075.74 49.4 1073.06 50.84C1070.4 52.28 1067.26 53 1063.65 53H1050.83V19.064H1063.65C1067.3 19.064 1070.45 19.768 1073.1 21.176C1075.76 22.584 1077.79 24.568 1079.2 27.128C1080.64 29.688 1081.36 32.632 1081.36 35.96ZM1062.93 45.656C1066.13 45.656 1068.61 44.808 1070.37 43.112C1072.16 41.416 1073.06 39.032 1073.06 35.96C1073.06 32.888 1072.16 30.504 1070.37 28.808C1068.61 27.112 1066.13 26.264 1062.93 26.264H1059.04V45.656H1062.93ZM1111.48 38.888C1111.48 39.56 1111.4 40.296 1111.24 41.096H1092.66C1092.76 43.112 1093.27 44.568 1094.2 45.464C1095.12 46.328 1096.31 46.76 1097.75 46.76C1098.96 46.76 1099.97 46.456 1100.77 45.848C1101.57 45.24 1102.1 44.456 1102.36 43.496H1111.04C1110.69 45.384 1109.92 47.08 1108.74 48.584C1107.56 50.056 1106.05 51.224 1104.23 52.088C1102.4 52.92 1100.37 53.336 1098.13 53.336C1095.51 53.336 1093.17 52.792 1091.12 51.704C1089.11 50.584 1087.52 48.984 1086.37 46.904C1085.22 44.824 1084.64 42.392 1084.64 39.608C1084.64 36.792 1085.2 34.36 1086.32 32.312C1087.48 30.232 1089.08 28.648 1091.12 27.56C1093.17 26.44 1095.51 25.88 1098.13 25.88C1100.79 25.88 1103.12 26.424 1105.14 27.512C1107.16 28.6 1108.71 30.136 1109.8 32.12C1110.92 34.072 1111.48 36.328 1111.48 38.888ZM1103.17 37.64C1103.2 35.88 1102.72 34.568 1101.73 33.704C1100.77 32.808 1099.57 32.36 1098.13 32.36C1096.63 32.36 1095.38 32.808 1094.39 33.704C1093.4 34.6 1092.84 35.912 1092.71 37.64H1103.17ZM1125.5 25.88C1128.89 25.88 1131.59 26.728 1133.61 28.424C1135.66 30.12 1136.94 32.36 1137.45 35.144H1129.77C1129.55 34.056 1129.03 33.208 1128.23 32.6C1127.47 31.96 1126.49 31.64 1125.31 31.64C1124.38 31.64 1123.67 31.848 1123.19 32.264C1122.71 32.648 1122.47 33.208 1122.47 33.944C1122.47 34.776 1122.91 35.4 1123.77 35.816C1124.67 36.232 1126.06 36.648 1127.95 37.064C1129.99 37.544 1131.67 38.04 1132.99 38.552C1134.3 39.032 1135.43 39.832 1136.39 40.952C1137.35 42.072 1137.83 43.576 1137.83 45.464C1137.83 47 1137.42 48.36 1136.59 49.544C1135.75 50.728 1134.55 51.656 1132.99 52.328C1131.42 53 1129.56 53.336 1127.42 53.336C1123.8 53.336 1120.91 52.536 1118.73 50.936C1116.55 49.336 1115.23 47.048 1114.75 44.072H1122.67C1122.79 45.224 1123.27 46.104 1124.11 46.712C1124.97 47.32 1126.07 47.624 1127.42 47.624C1128.35 47.624 1129.05 47.416 1129.53 47C1130.01 46.552 1130.25 45.976 1130.25 45.272C1130.25 44.344 1129.8 43.688 1128.91 43.304C1128.04 42.888 1126.62 42.456 1124.63 42.008C1122.65 41.592 1121.02 41.144 1119.74 40.664C1118.46 40.184 1117.35 39.416 1116.43 38.36C1115.5 37.272 1115.03 35.8 1115.03 33.944C1115.03 31.544 1115.95 29.608 1117.77 28.136C1119.59 26.632 1122.17 25.88 1125.5 25.88ZM1141.61 18.68C1141.61 17.432 1142.06 16.408 1142.95 15.608C1143.85 14.776 1145.03 14.36 1146.51 14.36C1147.98 14.36 1149.16 14.776 1150.06 15.608C1150.95 16.408 1151.4 17.432 1151.4 18.68C1151.4 19.896 1150.95 20.92 1150.06 21.752C1149.16 22.552 1147.98 22.952 1146.51 22.952C1145.03 22.952 1143.85 22.552 1142.95 21.752C1142.06 20.92 1141.61 19.896 1141.61 18.68ZM1150.59 26.216V53H1142.38V26.216H1150.59ZM1166.43 25.88C1168.48 25.88 1170.24 26.344 1171.71 27.272C1173.18 28.2 1174.27 29.464 1174.97 31.064V26.216H1183.13V52.856C1183.13 55.352 1182.65 57.592 1181.69 59.576C1180.73 61.592 1179.26 63.192 1177.28 64.376C1175.29 65.56 1172.83 66.152 1169.89 66.152C1165.85 66.152 1162.62 65.192 1160.19 63.272C1157.79 61.384 1156.35 58.808 1155.87 55.544H1163.98C1164.24 56.632 1164.81 57.48 1165.71 58.088C1166.64 58.696 1167.84 59 1169.31 59C1171.01 59 1172.37 58.504 1173.39 57.512C1174.45 56.552 1174.97 55 1174.97 52.856V48.152C1174.27 49.752 1173.18 51.016 1171.71 51.944C1170.24 52.872 1168.48 53.336 1166.43 53.336C1164.22 53.336 1162.24 52.792 1160.48 51.704C1158.75 50.584 1157.37 48.984 1156.35 46.904C1155.36 44.824 1154.86 42.392 1154.86 39.608C1154.86 36.792 1155.36 34.36 1156.35 32.312C1157.37 30.232 1158.75 28.648 1160.48 27.56C1162.24 26.44 1164.22 25.88 1166.43 25.88ZM1169.07 33.08C1167.31 33.08 1165.89 33.656 1164.8 34.808C1163.74 35.96 1163.21 37.56 1163.21 39.608C1163.21 41.656 1163.74 43.256 1164.8 44.408C1165.89 45.56 1167.31 46.136 1169.07 46.136C1170.8 46.136 1172.21 45.544 1173.29 44.36C1174.41 43.176 1174.97 41.592 1174.97 39.608C1174.97 37.592 1174.41 36.008 1173.29 34.856C1172.21 33.672 1170.8 33.08 1169.07 33.08ZM1205.78 25.928C1208.85 25.928 1211.28 26.952 1213.07 29C1214.9 31.048 1215.81 33.864 1215.81 37.448V53H1207.6V38.408C1207.6 36.616 1207.12 35.224 1206.16 34.232C1205.23 33.208 1203.99 32.696 1202.42 32.696C1200.75 32.696 1199.43 33.224 1198.43 34.28C1197.47 35.336 1196.99 36.84 1196.99 38.792V53H1188.79V26.216H1196.99V31.112C1197.76 29.512 1198.9 28.248 1200.4 27.32C1201.94 26.392 1203.73 25.928 1205.78 25.928Z" fill="#495057"/>
<path d="M1457.22 151.064V157.592H1448V185H1439.74V157.592H1430.62V151.064H1457.22ZM1486.12 170.888C1486.12 171.56 1486.04 172.296 1485.88 173.096H1467.3C1467.4 175.112 1467.91 176.568 1468.84 177.464C1469.76 178.328 1470.95 178.76 1472.39 178.76C1473.6 178.76 1474.61 178.456 1475.41 177.848C1476.21 177.24 1476.74 176.456 1477 175.496H1485.68C1485.33 177.384 1484.56 179.08 1483.38 180.584C1482.2 182.056 1480.69 183.224 1478.87 184.088C1477.04 184.92 1475.01 185.336 1472.77 185.336C1470.15 185.336 1467.81 184.792 1465.76 183.704C1463.75 182.584 1462.16 180.984 1461.01 178.904C1459.86 176.824 1459.28 174.392 1459.28 171.608C1459.28 168.792 1459.84 166.36 1460.96 164.312C1462.12 162.232 1463.72 160.648 1465.76 159.56C1467.81 158.44 1470.15 157.88 1472.77 157.88C1475.43 157.88 1477.76 158.424 1479.78 159.512C1481.8 160.6 1483.35 162.136 1484.44 164.12C1485.56 166.072 1486.12 168.328 1486.12 170.888ZM1477.81 169.64C1477.84 167.88 1477.36 166.568 1476.37 165.704C1475.41 164.808 1474.21 164.36 1472.77 164.36C1471.27 164.36 1470.02 164.808 1469.03 165.704C1468.04 166.6 1467.48 167.912 1467.35 169.64H1477.81ZM1500.14 157.88C1503.53 157.88 1506.23 158.728 1508.25 160.424C1510.3 162.12 1511.58 164.36 1512.09 167.144H1504.41C1504.19 166.056 1503.67 165.208 1502.87 164.6C1502.11 163.96 1501.13 163.64 1499.95 163.64C1499.02 163.64 1498.31 163.848 1497.83 164.264C1497.35 164.648 1497.11 165.208 1497.11 165.944C1497.11 166.776 1497.55 167.4 1498.41 167.816C1499.31 168.232 1500.7 168.648 1502.59 169.064C1504.63 169.544 1506.31 170.04 1507.63 170.552C1508.94 171.032 1510.07 171.832 1511.03 172.952C1511.99 174.072 1512.47 175.576 1512.47 177.464C1512.47 179 1512.06 180.36 1511.23 181.544C1510.39 182.728 1509.19 183.656 1507.63 184.328C1506.06 185 1504.2 185.336 1502.06 185.336C1498.44 185.336 1495.55 184.536 1493.37 182.936C1491.19 181.336 1489.87 179.048 1489.39 176.072H1497.31C1497.43 177.224 1497.91 178.104 1498.75 178.712C1499.61 179.32 1500.71 179.624 1502.06 179.624C1502.99 179.624 1503.69 179.416 1504.17 179C1504.65 178.552 1504.89 177.976 1504.89 177.272C1504.89 176.344 1504.44 175.688 1503.55 175.304C1502.68 174.888 1501.26 174.456 1499.27 174.008C1497.29 173.592 1495.66 173.144 1494.38 172.664C1493.1 172.184 1491.99 171.416 1491.07 170.36C1490.14 169.272 1489.67 167.8 1489.67 165.944C1489.67 163.544 1490.59 161.608 1492.41 160.136C1494.23 158.632 1496.81 157.88 1500.14 157.88ZM1532.19 177.944V185H1528.49C1525.36 185 1522.91 184.232 1521.15 182.696C1519.42 181.128 1518.56 178.552 1518.56 174.968V165.128H1514.96V158.216H1518.56V151.64H1526.76V158.216H1532.14V165.128H1526.76V175.112C1526.76 176.168 1526.97 176.904 1527.39 177.32C1527.84 177.736 1528.57 177.944 1529.6 177.944H1532.19Z" fill="#495057"/>
</svg>
