<?xml version="1.0" encoding="UTF-8"?>
<svg width="1683px" height="1545px" viewBox="0 0 1683 1545" version="1.1" xmlns="http://www.w3.org/2000/svg" xmlns:xlink="http://www.w3.org/1999/xlink">
    <title>More Personas</title>
    <defs>
        <circle id="path-1" cx="200" cy="200" r="200"></circle>
        <circle id="path-3" cx="200" cy="200" r="200"></circle>
        <ellipse id="path-5" cx="200" cy="199.593" rx="200" ry="199.430199"></ellipse>
    </defs>
    <g id="Page-1" stroke="none" stroke-width="1" fill="none" fill-rule="evenodd">
        <g id="More-Personas" transform="translate(-80.000000, -60.000000)">
            <g id="Jeff" transform="translate(80.000000, 60.000000)">
                <rect id="Rectangle-Copy-2" fill="#F5F5F5" x="0" y="0" width="500" height="1545" rx="50"></rect>
                <g id="Group" transform="translate(42.000000, 55.000000)">
                    <mask id="mask-2" fill="white">
                        <use xlink:href="#path-1"></use>
                    </mask>
                    <use id="Mask" fill-opacity="0.5" fill="#FF7043" xlink:href="#path-1"></use>
                    <g mask="url(#mask-2)">
                        <g transform="translate(20.000000, -28.000000)">
                            <g id="body/yellow" transform="translate(5.000000, 78.000000)" fill-rule="evenodd" stroke-width="1">
                                <g id="body/dark-brown" transform="translate(0.000000, 0.000000)">
                                    <path d="M318.240781,271.507031 C306.633906,254.716875 289.522188,242.512812 269.8675,237.006875 L224.217656,224.21875 L224.217656,191.407344 C243.515781,176.910781 256.189063,154.098438 256.967813,128.293594 C259.665,129.4825 262.642188,130.15625 265.78125,130.15625 C277.861719,130.15625 287.65625,120.362813 287.65625,108.28125 C287.65625,96.1996875 277.861719,86.40625 265.78125,86.40625 C262.667344,86.40625 259.712031,87.0657813 257.03125,88.2382813 L257.03125,82.03125 C257.03125,36.7259375 220.304219,0 175,0 L174.998906,0 C129.694688,0 92.96875,36.7259375 92.96875,82.03125 L92.96875,88.2382813 C90.286875,87.0657813 87.3315625,86.40625 84.21875,86.40625 C72.1371875,86.40625 62.34375,96.1996875 62.34375,108.28125 C62.34375,120.362813 72.1371875,130.15625 84.21875,130.15625 C87.3567188,130.15625 90.3339063,129.483594 93.0321875,128.293594 C93.8098438,154.098438 106.483125,176.910781 125.780156,191.407344 L125.780156,224.21875 L80.1314063,237.006875 C60.4767188,242.512812 43.365,254.716875 31.758125,271.507031 L6.21724894e-14,317.45 L6.21724894e-14,350 L350,350 L350,317.45 L318.240781,271.507031 Z" id="Fill-1" fill="#FFCF83"></path>
                                    <path d="M174.999016,207.812062 C164.884016,207.812062 155.202141,205.970188 146.255266,202.622219 C158.979953,210.750969 174.091203,215.468312 190.311516,215.468312 C202.408391,215.468312 213.880734,212.829094 224.217766,208.12925 L224.217766,191.406906 C210.507609,201.705656 193.466984,207.812062 174.999016,207.812062 Z" id="Fill-4" fill="#F7A74F"></path>
                                    <path d="M95.8219063,111.473359 C96.1008125,110.457266 96.2506563,109.386484 96.2506563,108.281797 C96.2506563,101.637266 90.8639375,96.2505469 84.2194063,96.2505469 C82.558,96.2505469 80.9753438,96.5874219 79.5359688,97.1955469" id="Stroke-6" stroke="#00004D" stroke-width="2" stroke-linecap="round" stroke-linejoin="round"></path>
                                    <path d="M254.177984,111.473359 C253.899078,110.457266 253.750328,109.386484 253.750328,108.281797 C253.750328,101.637266 259.137047,96.2505469 265.781578,96.2505469 C267.441891,96.2505469 269.024547,96.5874219 270.465016,97.1955469" id="Stroke-8" stroke="#00004D" stroke-width="2" stroke-linecap="round" stroke-linejoin="round"></path>
                                </g>
                            </g>
                            <g id="accessories/glasses-01" transform="translate(100.000000, 136.000000)" fill-rule="evenodd" stroke-linecap="round" stroke-linejoin="round" stroke-width="1">
                                <g id="glasses-01" transform="translate(22.000000, 17.000000)" stroke="#00004D">
                                    <path d="M116.0001,23.0003 C116.0001,35.7023 105.7021,46.0003 93.0001,46.0003 C80.2981,46.0003 70.0001,35.7023 70.0001,23.0003 C70.0001,10.2973 80.2981,0.0003 93.0001,0.0003 C105.7021,0.0003 116.0001,10.2973 116.0001,23.0003 Z" id="Stroke-1" stroke-width="4"></path>
                                    <path d="M0.0001,23.0003 C0.0001,35.7023 10.2971,46.0003 23.0001,46.0003 C35.7031,46.0003 46.0001,35.7023 46.0001,23.0003 C46.0001,10.2973 35.7031,0.0003 23.0001,0.0003 C10.2971,0.0003 0.0001,10.2973 0.0001,23.0003 Z" id="Stroke-3" stroke-width="4"></path>
                                    <path d="M44.5748,15.0179 C46.2898,9.2259 51.6518,4.9999 57.9998,4.9999 C64.3488,4.9999 69.7098,9.2259 71.4258,15.0179" id="Stroke-5" stroke-width="4"></path>
                                </g>
                            </g>
                            <g id="clothing/sweater" transform="translate(5.000000, 275.000000)" fill-rule="evenodd" stroke-width="1">
                                <g id="sweater" transform="translate(0.000000, 27.321429)">
                                    <path d="M350,93.1551429 L318.241875,47.2496786 C306.635,30.4743214 289.523281,18.2791286 269.8675,12.7776857 L224.21875,0 C224.21875,27.1596857 202.182969,49.1785714 175,49.1785714 C147.817031,49.1785714 125.78125,27.1596857 125.78125,0 L80.1325,12.7776857 C60.4767188,18.2791286 43.365,30.4743214 31.758125,47.2496786 L0,93.1551429 L0,125.678571 L350,125.678571 L350,93.1551429 Z" id="Fill-1" fill="#80C43B"></path>
                                    <path d="M233.817937,28.0212943 C223.084969,49.6281729 200.777938,64.4779157 175.000437,64.4779157 C140.650125,64.4779157 112.464187,38.1083657 109.611687,4.52486571" id="Stroke-4" stroke="#00004D" stroke-width="2" stroke-linecap="round" stroke-linejoin="round"></path>
                                </g>
                            </g>
                            <g id="head/hair/short/01" fill-rule="evenodd">
                                <path d="M260,149.2489 L260,144.9999 C260,129.6539 255.671,115.3219 248.18,103.1449 C241.237,91.8599 231.567,82.4439 220.095,75.7839 C208.304,68.9379 194.615,64.9999 180,64.9999 C165.384,64.9999 151.696,68.9379 139.905,75.7839 C128.433,82.4439 118.763,91.8599 111.82,103.1449 C104.329,115.3219 100,129.6539 100,144.9999 L100,149.2489 C104.172,149.8789 107.919,151.7839 110.828,154.5719 C120.042,145.3239 127.462,134.2899 132.51,122.0229 C146.638,129.6619 162.812,133.9999 180,133.9999 C197.188,133.9999 213.362,129.6619 227.49,122.0229 C232.537,134.2899 239.959,145.3239 249.172,154.5719 C252.081,151.7839 255.828,149.8789 260,149.2489" id="short-01" fill="#00004D"></path>
                            </g>
                            <g id="nose/default" transform="translate(166.000000, 176.000000)" stroke-linecap="round" stroke-linejoin="round" stroke-width="2">
                                <polyline id="nose" stroke="#00004D" points="17 12 27 46 13 48"></polyline>
                            </g>
                            <g id="mouth/twinkle" transform="translate(146.000000, 236.000000)" stroke-linecap="round" stroke-linejoin="round" stroke-width="2">
                                <path d="M52.5595,13.4997 C49.9015,17.7027 45.2125,20.4927 39.8725,20.4927 C34.6995,20.4927 30.1375,17.8737 27.4405,13.8887" id="twinkle" stroke="#00004D"></path>
                            </g>
                            <g id="eyes/default" transform="translate(136.000000, 156.000000)" fill-rule="evenodd">
                                <path d="M91.0005,20 C91.0005,24.418 87.4185,28 83.0005,28 C78.5825,28 75.0005,24.418 75.0005,20 C75.0005,15.582 78.5825,12 83.0005,12 C87.4185,12 91.0005,15.582 91.0005,20" id="eye-right" fill="#00004D"></path>
                                <path d="M25,20 C25,24.418 21.418,28 17,28 C12.582,28 9,24.418 9,20 C9,15.582 12.582,12 17,12 C21.418,12 25,15.582 25,20" id="eye-left" fill="#00004D"></path>
                            </g>
                        </g>
                    </g>
                </g>
                <g id="Group-5" transform="translate(33.000000, 1000.000000)" fill="#000000" fill-opacity="0.85" font-size="25">
                    <text id="27" font-family="AvenirNext-Medium, Avenir Next" font-weight="400">
                        <tspan x="128" y="25">27</tspan>
                    </text>
                    <text id="Business-Analyst-wor" font-family="AvenirNext-Medium, Avenir Next" font-weight="400">
                        <tspan x="128" y="105">Business Analyst working </tspan>
                        <tspan x="128" y="139">in downtown Toronto</tspan>
                    </text>
                    <text id="--Endless-scrolling" font-family="AvenirNext-Medium, Avenir Next" font-weight="400">
                        <tspan x="128" y="234">- Endless scrolling before </tspan>
                        <tspan x="128" y="268">discovering the item they </tspan>
                        <tspan x="128" y="302">need</tspan>
                    </text>
                    <text id="--Lack-of-informatio" font-family="AvenirNext-Medium, Avenir Next" font-weight="400">
                        <tspan x="128" y="361">- Lack of information on </tspan>
                        <tspan x="128" y="395">the quality of the product</tspan>
                    </text>
                    <text id="Age:" font-family="AvenirNext-DemiBold, Avenir Next" font-weight="500">
                        <tspan x="0" y="25">Age:</tspan>
                    </text>
                    <text id="Profile:" font-family="AvenirNext-DemiBold, Avenir Next" font-weight="500">
                        <tspan x="0" y="105">Profile:</tspan>
                    </text>
                    <text id="Pains:" font-family="AvenirNext-DemiBold, Avenir Next" font-weight="500">
                        <tspan x="0" y="239">Pains:</tspan>
                    </text>
                </g>
                <text id="Jeff-the-Business-An" font-family="AvenirNext-DemiBold, Avenir Next" font-size="30" font-weight="500" fill="#000000" fill-opacity="0.85">
                    <tspan x="80" y="528">Jeff the Business Analyst</tspan>
                </text>
                <text id="Jeff-is-a-Business-A" font-family="AvenirNext-Medium, Avenir Next" font-size="25" font-weight="400" fill="#000000" fill-opacity="0.85">
                    <tspan x="33" y="620">Jeff is a Business Analyst working in </tspan>
                    <tspan x="33" y="654">downtown Toronto. He lives on the </tspan>
                    <tspan x="33" y="688">outskirts of downtown and often has </tspan>
                    <tspan x="33" y="722">long working hours. In his free time </tspan>
                    <tspan x="33" y="756">he goes out with his friends for food </tspan>
                    <tspan x="33" y="790">and drinks. Jeff hates to see food </tspan>
                    <tspan x="33" y="824">going to waste, but only needs </tspan>
                    <tspan x="33" y="858">groceries for times when he is dining </tspan>
                    <tspan x="33" y="892">at home.</tspan>
                </text>
            </g>
            <g id="Aaron" transform="translate(672.000000, 60.000000)">
                <rect id="Rectangle-Copy-2" fill="#F5F5F5" x="0" y="0" width="500" height="1545" rx="50"></rect>
                <g id="Group-3" transform="translate(44.000000, 55.000000)">
                    <g id="Group-2">
                        <mask id="mask-4" fill="white">
                            <use xlink:href="#path-3"></use>
                        </mask>
                        <use id="Mask" fill="#BAD2EA" xlink:href="#path-3"></use>
                        <g mask="url(#mask-4)">
                            <g transform="translate(17.142857, 34.285714)">
                                <g id="body/black" fill-rule="evenodd" stroke-width="1">
                                    <g id="body/dark-brown" transform="translate(0.000000, 0.000000)">
                                        <path d="M332.529143,283.697143 C320.401143,266.153143 302.521143,253.401143 281.984,247.648 L234.284571,234.285714 L234.284571,200.001143 C254.449143,184.853714 267.691429,161.017143 268.505143,134.053714 C271.323429,135.296 274.434286,136 277.714286,136 C290.337143,136 300.571429,125.766857 300.571429,113.142857 C300.571429,100.518857 290.337143,90.2857143 277.714286,90.2857143 C274.460571,90.2857143 271.372571,90.9748571 268.571429,92.2 L268.571429,85.7142857 C268.571429,38.3748571 230.195429,0 182.857143,0 L182.856,0 C135.517714,0 97.1428571,38.3748571 97.1428571,85.7142857 L97.1428571,92.2 C94.3405714,90.9748571 91.2525714,90.2857143 88,90.2857143 C75.376,90.2857143 65.1428571,100.518857 65.1428571,113.142857 C65.1428571,125.766857 75.376,136 88,136 C91.2788571,136 94.3897143,135.297143 97.2091429,134.053714 C98.0217143,161.017143 111.264,184.853714 131.427429,200.001143 L131.427429,234.285714 L83.7291429,247.648 C63.192,253.401143 45.312,266.153143 33.184,283.697143 L6.49639073e-14,331.702857 L6.49639073e-14,365.714286 L365.714286,365.714286 L365.714286,331.702857 L332.529143,283.697143 Z" id="Fill-1" fill="#844123"></path>
                                        <path d="M182.856114,217.1424 C172.286971,217.1424 162.1704,215.217829 152.821829,211.719543 C166.117829,220.213257 181.907543,225.1424 198.856114,225.1424 C211.496114,225.1424 223.483543,222.384686 234.284686,217.473829 L234.284686,200.000686 C219.958971,210.761829 202.153257,217.1424 182.856114,217.1424 Z" id="Fill-4" fill="#702A0F"></path>
                                        <path d="M100.124114,116.478286 C100.415543,115.416571 100.572114,114.297714 100.572114,113.143429 C100.572114,106.200571 94.9435429,100.572 88.0006857,100.572 C86.2646857,100.572 84.6109714,100.924 83.1069714,101.559429" id="Stroke-6" stroke="#00004D" stroke-width="2" stroke-linecap="round" stroke-linejoin="round"></path>
                                        <path d="M265.590057,116.478286 C265.298629,115.416571 265.1432,114.297714 265.1432,113.143429 C265.1432,106.200571 270.771771,100.572 277.714629,100.572 C279.449486,100.572 281.1032,100.924 282.608343,101.559429" id="Stroke-8" stroke="#00004D" stroke-width="2" stroke-linecap="round" stroke-linejoin="round"></path>
                                    </g>
                                </g>
                                <g id="clothing/t-shirt" transform="translate(0.000000, 205.714286)" fill-rule="evenodd">
                                    <path d="M365.714286,125.988571 L332.529143,77.9828571 C320.402286,60.44 302.522286,47.6868571 281.984,41.9337143 L234.285714,28.5714286 C234.285714,56.9748571 211.260571,80 182.857143,80 L182.857143,80 C154.453714,80 131.428571,56.9748571 131.428571,28.5714286 L83.7291429,41.9337143 C63.192,47.6868571 45.312,60.44 33.184,77.9828571 L0,125.988571 L0,160 L365.714286,160 L365.714286,125.988571 Z" id="t-shirt" fill="#FD9DAA"></path>
                                </g>
                                <g id="eyes/happy" transform="translate(125.714286, 68.571429)" fill-rule="evenodd">
                                    <path d="M94.8572571,27.3468571 C97.7612571,27.3468571 100.451543,28.2554286 102.667543,29.796 C103.507543,28.4142857 104.000114,26.7982857 104.000114,25.0611429 C104.000114,20.012 99.9064,15.9182857 94.8572571,15.9182857 C89.8081143,15.9182857 85.7144,20.012 85.7144,25.0611429 C85.7144,26.7982857 86.2069714,28.4142857 87.0469714,29.796 C89.2629714,28.2554286 91.9532571,27.3468571 94.8572571,27.3468571" id="eye-right" fill="#00004D"></path>
                                    <path d="M19.4286857,27.3468571 C22.3326857,27.3468571 25.0229714,28.2554286 27.2389714,29.796 C28.0789714,28.4142857 28.5715429,26.7982857 28.5715429,25.0611429 C28.5715429,20.012 24.4778286,15.9182857 19.4286857,15.9182857 C14.3795429,15.9182857 10.2858286,20.012 10.2858286,25.0611429 C10.2858286,26.7982857 10.7784,28.4142857 11.6184,29.796 C13.8344,28.2554286 16.5246857,27.3468571 19.4286857,27.3468571" id="eye-left" fill="#00004D"></path>
                                </g>
                                <g id="nose/default" transform="translate(160.000000, 91.428571)" stroke-linecap="round" stroke-linejoin="round" stroke-width="2">
                                    <polyline id="nose" stroke="#00004D" points="19.4285714 13.7142857 30.8571429 52.5714286 14.8571429 54.8571429"></polyline>
                                </g>
                                <g id="mouth/default" transform="translate(137.142857, 148.571429)" fill-rule="evenodd">
                                    <path d="M68.5715429,10.8568 C68.5715429,23.4808 58.3384,33.7139429 45.7144,33.7139429 C33.0904,33.7139429 22.8572571,23.4808 22.8572571,10.8568 L68.5715429,10.8568 Z" id="default" fill="#FFFFFF"></path>
                                </g>
                                <g id="eyes/default" transform="translate(125.714286, 68.571429)" fill-rule="evenodd">
                                    <path d="M104.000571,22.8571429 C104.000571,27.9062857 99.9068571,32 94.8577143,32 C89.8085714,32 85.7148571,27.9062857 85.7148571,22.8571429 C85.7148571,17.808 89.8085714,13.7142857 94.8577143,13.7142857 C99.9068571,13.7142857 104.000571,17.808 104.000571,22.8571429" id="eye-right" fill="#00004D"></path>
                                    <path d="M28.5714286,22.8571429 C28.5714286,27.9062857 24.4777143,32 19.4285714,32 C14.3794286,32 10.2857143,27.9062857 10.2857143,22.8571429 C10.2857143,17.808 14.3794286,13.7142857 19.4285714,13.7142857 C24.4777143,13.7142857 28.5714286,17.808 28.5714286,22.8571429" id="eye-left" fill="#00004D"></path>
                                </g>
                            </g>
                        </g>
                    </g>
                </g>
                <g id="Group-5" transform="translate(33.000000, 1000.000000)" fill="#000000" fill-opacity="0.85" font-size="25">
                    <text id="20" font-family="AvenirNext-Medium, Avenir Next" font-weight="400">
                        <tspan x="128" y="25">20</tspan>
                    </text>
                    <text id="Student-at-the-Unive" font-family="AvenirNext-Medium, Avenir Next" font-weight="400">
                        <tspan x="128" y="105">Student at the University </tspan>
                        <tspan x="128" y="139">of Toronto</tspan>
                    </text>
                    <text id="--On-a-budget,-wants" font-family="AvenirNext-Medium, Avenir Next" font-weight="400">
                        <tspan x="128" y="234">- On a budget, wants to </tspan>
                        <tspan x="128" y="268">know the best prices </tspan>
                        <tspan x="128" y="302">available</tspan>
                    </text>
                    <text id="--Too-much-scrolling" font-family="AvenirNext-Medium, Avenir Next" font-weight="400">
                        <tspan x="128" y="361">- Too much scrolling to </tspan>
                        <tspan x="128" y="395">find exact product</tspan>
                    </text>
                    <text id="Age:" font-family="AvenirNext-DemiBold, Avenir Next" font-weight="500">
                        <tspan x="0" y="25">Age:</tspan>
                    </text>
                    <text id="Profile:" font-family="AvenirNext-DemiBold, Avenir Next" font-weight="500">
                        <tspan x="0" y="105">Profile:</tspan>
                    </text>
                    <text id="Pains:" font-family="AvenirNext-DemiBold, Avenir Next" font-weight="500">
                        <tspan x="0" y="239">Pains:</tspan>
                    </text>
                </g>
                <text id="Aaron-the-Student" font-family="AvenirNext-DemiBold, Avenir Next" font-size="30" font-weight="500" fill="#000000" fill-opacity="0.85">
                    <tspan x="123" y="528">Aaron the Student</tspan>
                </text>
                <text id="Aaron-is-a-3rd-year" font-family="AvenirNext-Medium, Avenir Next" font-size="25" font-weight="400" fill="#000000" fill-opacity="0.85">
                    <tspan x="33" y="620">Aaron is a 3rd year student at the </tspan>
                    <tspan x="33" y="654">University of Toronto studying </tspan>
                    <tspan x="33" y="688">Engineering. Since he lives in the </tspan>
                    <tspan x="33" y="722">downtown core, he finds it diffcult to </tspan>
                    <tspan x="33" y="756">go grocery shopping without a car. As </tspan>
                    <tspan x="33" y="790">a student he is on a tight budget, thus </tspan>
                    <tspan x="33" y="824">he uses apps to compare the prices in </tspan>
                    <tspan x="33" y="858">each store. Aaron has heard of the </tspan>
                    <tspan x="33" y="892">online grocery shopping experiences </tspan>
                    <tspan x="33" y="926">available but has yet to try. </tspan>
                </text>
            </g>
            <g id="Krstina" transform="translate(1263.000000, 60.000000)">
                <rect id="Rectangle-Copy-2" fill="#F5F5F5" x="0" y="0" width="500" height="1545" rx="50"></rect>
                <g id="Group-4" transform="translate(42.000000, 55.000000)">
                    <mask id="mask-6" fill="white">
                        <use xlink:href="#path-5"></use>
                    </mask>
                    <use id="Mask" fill-opacity="0.5" fill="#DB7F8E" xlink:href="#path-5"></use>
                    <g mask="url(#mask-6)">
                        <g transform="translate(-5.714286, -42.165242)">
                            <g id="body/light" transform="translate(22.857143, 79.120879)" fill-rule="evenodd" stroke-width="1">
                                <g id="body/dark-brown" transform="translate(0.000000, 0.000000)">
                                    <path d="M332.529143,282.888889 C320.401143,265.394872 302.521143,252.679202 281.984,246.94245 L234.284571,233.618234 L234.284571,199.431339 C254.449143,184.327066 267.691429,160.558405 268.505143,133.671795 C271.323429,134.910541 274.434286,135.612536 277.714286,135.612536 C290.337143,135.612536 300.571429,125.408547 300.571429,112.820513 C300.571429,100.232479 290.337143,90.02849 277.714286,90.02849 C274.460571,90.02849 271.372571,90.7156695 268.571429,91.9373219 L268.571429,85.4700855 C268.571429,38.2655271 230.195429,0 182.857143,0 L182.856,0 C135.517714,0 97.1428571,38.2655271 97.1428571,85.4700855 L97.1428571,91.9373219 C94.3405714,90.7156695 91.2525714,90.02849 88,90.02849 C75.376,90.02849 65.1428571,100.232479 65.1428571,112.820513 C65.1428571,125.408547 75.376,135.612536 88,135.612536 C91.2788571,135.612536 94.3897143,134.911681 97.2091429,133.671795 C98.0217143,160.558405 111.264,184.327066 131.427429,199.431339 L131.427429,233.618234 L83.7291429,246.94245 C63.192,252.679202 45.312,265.394872 33.184,282.888889 L6.49639073e-14,330.757835 L6.49639073e-14,364.672365 L365.714286,364.672365 L365.714286,330.757835 L332.529143,282.888889 Z" id="Fill-1" fill="#E9ADA1"></path>
                                    <path d="M182.856114,216.523761 C172.286971,216.523761 162.1704,214.604672 152.821829,211.116353 C166.117829,219.585869 181.907543,224.500969 198.856114,224.500969 C211.496114,224.500969 223.483543,221.751111 234.284686,216.854245 L234.284686,199.430883 C219.958971,210.161368 202.153257,216.523761 182.856114,216.523761 Z" id="Fill-4" fill="#DB8B79"></path>
                                    <path d="M100.124114,116.146439 C100.415543,115.087749 100.572114,113.97208 100.572114,112.821083 C100.572114,105.898006 94.9435429,100.28547 88.0006857,100.28547 C86.2646857,100.28547 84.6109714,100.636467 83.1069714,101.270085" id="Stroke-6" stroke="#00004D" stroke-width="2" stroke-linecap="round" stroke-linejoin="round"></path>
                                    <path d="M265.590057,116.146439 C265.298629,115.087749 265.1432,113.97208 265.1432,112.821083 C265.1432,105.898006 270.771771,100.28547 277.714629,100.28547 C279.449486,100.28547 281.1032,100.636467 282.608343,101.270085" id="Stroke-8" stroke="#00004D" stroke-width="2" stroke-linecap="round" stroke-linejoin="round"></path>
                                </g>
                            </g>
                            <g id="clothing/t-shirt-V-neck" transform="translate(22.857143, 284.249084)" fill-rule="evenodd">
                                <path d="M0,125.62849 L0,159.54416 L365.714286,159.54416 L365.714286,125.62963 L332.530286,77.7606838 C320.401143,60.2666667 302.522286,47.5509972 281.984,41.814245 L248.250286,32.3897436 L182.857143,110.945869 L117.464,32.3897436 L83.7302857,41.814245 C63.192,47.5509972 45.312,60.2666667 33.184,77.7606838 L0,125.62849 Z" id="V-neck" fill="#2384F5"></path>
                            </g>
                            <g id="head/hair/long/02" fill-rule="evenodd">
                                <path d="M120.066286,213.443647 C120.88,240.331396 134.121143,264.100057 154.285714,279.203191 L154.285714,279.203191 L154.285714,313.390085 L108.571429,326.160456 L108.571429,215.269288 C109.323429,215.344501 110.085714,215.384387 110.857143,215.384387 C114.136,215.384387 117.246857,214.683533 120.066286,213.443647 Z M291.3616,213.443533 C294.181029,214.683419 297.291886,215.384274 300.571886,215.384274 C301.342171,215.384274 302.104457,215.344387 302.8576,215.270313 L302.8576,215.270313 L302.8576,326.160342 L257.143314,313.389972 L257.143314,279.203077 C277.306743,264.099943 290.549029,240.331282 291.3616,213.443533 Z M205.714286,68.3756125 C259.364571,68.3756125 302.857143,111.744274 302.857143,165.241709 L302.857143,165.241709 L302.857143,169.916353 C302.105143,169.84114 301.342857,169.800114 300.571429,169.800114 C297.317714,169.800114 294.229714,170.488433 291.428571,171.710085 C288.469714,173.000114 285.851429,174.904387 283.704,177.249687 C243.091429,174.108946 206.446857,156.870199 178.697143,130.416638 C166.803429,150.679886 148.798857,166.920342 127.222857,176.699259 C125.173714,174.602393 122.728,172.898689 120,171.710085 L120,171.710085 L119.502728,171.500068 C116.83499,170.409836 113.919462,169.800114 110.857143,169.800114 C110.085714,169.800114 109.323429,169.84114 108.571429,169.916353 L108.571429,169.916353 L108.571429,165.241709 C108.571429,111.744274 152.064,68.3756125 205.714286,68.3756125 Z" id="long-02" fill="#00004D"></path>
                            </g>
                            <g id="eyes/default" transform="translate(148.571429, 176.638177)" fill-rule="evenodd">
                                <path d="M104.000571,22.7920228 C104.000571,27.8267806 99.9068571,31.9088319 94.8577143,31.9088319 C89.8085714,31.9088319 85.7148571,27.8267806 85.7148571,22.7920228 C85.7148571,17.757265 89.8085714,13.6752137 94.8577143,13.6752137 C99.9068571,13.6752137 104.000571,17.757265 104.000571,22.7920228" id="eye-right" fill="#00004D"></path>
                                <path d="M28.5714286,22.7920228 C28.5714286,27.8267806 24.4777143,31.9088319 19.4285714,31.9088319 C14.3794286,31.9088319 10.2857143,27.8267806 10.2857143,22.7920228 C10.2857143,17.757265 14.3794286,13.6752137 19.4285714,13.6752137 C24.4777143,13.6752137 28.5714286,17.757265 28.5714286,22.7920228" id="eye-left" fill="#00004D"></path>
                            </g>
                            <g id="nose/pointy" transform="translate(182.857143, 188.196988)" stroke-linecap="round" stroke-linejoin="round" stroke-width="2">
                                <polyline id="Stroke-1" stroke="#00004D" points="17.1428571 13.6752137 33.1428571 50.1424501 12.5714286 54.7008547"></polyline>
                            </g>
                            <g id="mouth/smile" transform="translate(160.000000, 243.223443)" fill-rule="evenodd" stroke-width="1">
                                <g id="Group-6" transform="translate(22.857143, 10.825869)">
                                    <path d="M45.7142857,-0.000341880342 C45.7142857,12.5876923 35.4811429,22.7916809 22.8571429,22.7916809 C10.2331429,22.7916809 0,12.5876923 0,-0.000341880342 L45.7142857,-0.000341880342 Z" id="Fill-1" fill="#AE1328"></path>
                                    <path d="M35.6496,18.8910541 C32.3513143,15.6682621 27.8393143,13.6750997 22.8576,13.6750997 C17.8747429,13.6750997 13.3627429,15.6682621 10.0644571,18.8910541 C13.7158857,21.3537322 18.1181714,22.7919088 22.8576,22.7919088 C27.5958857,22.7919088 31.9993143,21.3537322 35.6496,18.8910541" id="Fill-4" fill="#FB344F"></path>
                                </g>
                            </g>
                        </g>
                    </g>
                </g>
                <g id="Group-5" transform="translate(33.000000, 1000.000000)" fill="#000000" fill-opacity="0.85" font-size="25">
                    <text id="36" font-family="AvenirNext-Medium, Avenir Next" font-weight="400">
                        <tspan x="128" y="25">36</tspan>
                    </text>
                    <text id="Store-Manager-of-Lux" font-family="AvenirNext-Medium, Avenir Next" font-weight="400">
                        <tspan x="128" y="105">Store Manager of </tspan>
                        <tspan x="128" y="139">Luxurious Retail Store in </tspan>
                        <tspan x="128" y="173">Mall </tspan>
                    </text>
                    <text id="--Can’t-remember-the" font-family="AvenirNext-Medium, Avenir Next" font-weight="400">
                        <tspan x="128" y="234">- Can’t remember the </tspan>
                        <tspan x="128" y="268">name of brands she </tspan>
                        <tspan x="128" y="302">usually buys</tspan>
                    </text>
                    <text id="--Worried-whether-pe" font-family="AvenirNext-Medium, Avenir Next" font-weight="400">
                        <tspan x="128" y="361">- Worried whether </tspan>
                        <tspan x="128" y="395">personnel shoppers will </tspan>
                        <tspan x="128" y="429">pick the best products</tspan>
                    </text>
                    <text id="Age:" font-family="AvenirNext-DemiBold, Avenir Next" font-weight="500">
                        <tspan x="0" y="25">Age:</tspan>
                    </text>
                    <text id="Profile:" font-family="AvenirNext-DemiBold, Avenir Next" font-weight="500">
                        <tspan x="0" y="105">Profile:</tspan>
                    </text>
                    <text id="Pains:" font-family="AvenirNext-DemiBold, Avenir Next" font-weight="500">
                        <tspan x="0" y="239">Pains:</tspan>
                    </text>
                </g>
                <text id="Kristina-the-Store-M" font-family="AvenirNext-DemiBold, Avenir Next" font-size="30" font-weight="500" fill="#000000" fill-opacity="0.85">
                    <tspan x="64" y="528">Kristina the Store Manager</tspan>
                </text>
                <text id="As-a-store-manager," font-family="AvenirNext-Medium, Avenir Next" font-size="25" font-weight="400" fill="#000000" fill-opacity="0.85">
                    <tspan x="33" y="620">As a store manager, Kristina works </tspan>
                    <tspan x="33" y="654">variable hours throughout the week. </tspan>
                    <tspan x="33" y="688">Due to her busy work schedule she </tspan>
                    <tspan x="33" y="722">finds it difficult to purchase groceries </tspan>
                    <tspan x="33" y="756">as some places are closed by the time </tspan>
                    <tspan x="33" y="790">she gets off work. Kristina is intrigued </tspan>
                    <tspan x="33" y="824">but cautious about purchasing </tspan>
                    <tspan x="33" y="858">groceries online. Recently Kristina has </tspan>
                    <tspan x="33" y="892">tried Instacart is was pleasantly </tspan>
                    <tspan x="33" y="926">surprised.</tspan>
                </text>
            </g>
        </g>
    </g>
</svg>