<?xml version="1.0" encoding="UTF-8"?>
<svg width="242px" height="384px" viewBox="0 0 242 384" version="1.1" xmlns="http://www.w3.org/2000/svg" xmlns:xlink="http://www.w3.org/1999/xlink">
    <!-- Generator: Sketch 64 (93537) - https://sketch.com -->
    <title>Group 12</title>
    <desc>Created with Sketch.</desc>
    <g id="Page-2" stroke="none" stroke-width="1" fill="none" fill-rule="evenodd" stroke-linecap="round" stroke-linejoin="round">
        <g id="Group-12" transform="translate(6.100000, 6.100000)" stroke="#555555" stroke-width="12">
            <path d="M0.9,89.7 C2.2,78.2 5.2,67 10.3,56.3 C19.6,36.9 33.9,22.3 53.3,12.7 C68.8,5.1 85.2,1.6 102.2,0.5 C103.3,0.4 104.3,0.1 105.4,-8.52651283e-14 C111.7,-8.52651283e-14 118,-8.52651283e-14 124.3,-8.52651283e-14 C131.7,1 139.2,1.6 146.5,3 C166.7,6.7 184.9,14.7 199.8,29 C215.6,44.2 224.7,63 228,84.6 C229.1,91.6 229.5,98.8 229.5,105.9 C229.6,129.3 229.6,152.8 229.6,176.2" id="Path"></path>
            <path d="M229.7,194.5 C229.7,195.2 229.7,193.9 229.7,194.5" id="Path"></path>
            <path d="M229.7,212.9 C229.7,231.3 229.7,249.6 229.7,268 C229.7,284.7 226.7,300.7 219.5,315.8 C210.2,335.1 196.1,349.7 176.7,359.1 C154.6,369.9 131,372.6 106.7,371.7 C88.3,371 70.4,367.6 53.7,359.5 C30.9,348.4 15.5,330.7 6.6,307.1 C1.8,294.3 3.69482223e-13,280.9 3.69482223e-13,267.2 C3.69482223e-13,215.4 3.69482223e-13,163.6 3.69482223e-13,111.9" id="Path"></path>
        </g>
    </g>
</svg>