<svg width="226" height="93" viewBox="0 0 226 93" fill="none" xmlns="http://www.w3.org/2000/svg">
<g clip-path="url(#clip0)">
<path d="M19.4 75C15.8667 75 12.6333 74.3333 9.7 73C6.83333 71.6 4.56667 69.7 2.9 67.3C1.3 64.9 0.5 62.2667 0.5 59.4C0.5 54.8667 2.36667 51.2 6.1 48.4C9.9 45.5333 15.1 43.5667 21.7 42.5L34.1 40.6V39.4C34.1 36.9333 33.6 35.1333 32.6 34C31.6 32.8667 29.9 32.3 27.5 32.3C26.1667 32.3 25.0333 32.5333 24.1 33C23.2333 33.4667 22.2333 34.1667 21.1 35.1C20.2333 35.8333 19.4667 36.3667 18.8 36.7C18.5333 37.1667 18.2 37.4 17.8 37.4H6.2C5.53333 37.4 4.96667 37.2 4.5 36.8C4.1 36.3333 3.93333 35.8 4 35.2C4.06667 33.4 4.96667 31.4 6.7 29.2C8.43333 26.9333 11.0667 25 14.6 23.4C18.1333 21.8 22.5 21 27.7 21C35.9667 21 42.1 22.8333 46.1 26.5C50.1 30.1 52.1 35 52.1 41.2V71.5C52.1 72.1667 51.8667 72.7667 51.4 73.3C50.9333 73.7667 50.3333 74 49.6 74H37.3C36.6333 74 36.0333 73.7667 35.5 73.3C35.0333 72.7667 34.8 72.1667 34.8 71.5V68C33.3333 70.0667 31.3 71.7667 28.7 73.1C26.1 74.3667 23 75 19.4 75ZM24.4 63.2C27.3333 63.2 29.7 62.2333 31.5 60.3C33.3667 58.3667 34.3 55.5667 34.3 51.9V50.7L26 52.1C20.4 53.1667 17.6 55.1667 17.6 58.1C17.6 59.6333 18.2333 60.8667 19.5 61.8C20.8333 62.7333 22.4667 63.2 24.4 63.2ZM71.0195 93C70.4195 93 69.9195 92.8 69.5195 92.4C69.1195 92 68.9195 91.5 68.9195 90.9C68.9195 90.4333 68.9862 90 69.1195 89.6L77.0195 70.8L57.8195 25.4C57.6195 24.8667 57.5195 24.5 57.5195 24.3C57.6529 23.6333 57.9195 23.1 58.3195 22.7C58.7862 22.2333 59.3195 22 59.9195 22H71.8195C73.2195 22 74.1862 22.7 74.7195 24.1L85.8195 52.5L97.2195 24.1C97.8862 22.7 98.8862 22 100.22 22H112.02C112.62 22 113.12 22.2333 113.52 22.7C113.986 23.1 114.22 23.5667 114.22 24.1C114.22 24.5667 114.153 25 114.02 25.4L85.7195 90.9C85.0529 92.3 84.0195 93 82.6195 93H71.0195ZM124.978 14.8C124.245 14.8 123.611 14.5667 123.078 14.1C122.611 13.5667 122.378 12.9333 122.378 12.2V2.9C122.378 2.16666 122.611 1.56666 123.078 1.1C123.611 0.566662 124.245 0.299995 124.978 0.299995H138.078C138.811 0.299995 139.411 0.566662 139.878 1.1C140.411 1.56666 140.678 2.16666 140.678 2.9V12.2C140.678 12.9333 140.411 13.5667 139.878 14.1C139.411 14.5667 138.811 14.8 138.078 14.8H124.978ZM112.578 93C111.845 93 111.245 92.7667 110.778 92.3C110.311 91.8333 110.078 91.2333 110.078 90.5V81.9C110.078 81.2333 110.311 80.6333 110.778 80.1C111.245 79.6333 111.845 79.4 112.578 79.4H116.578C118.778 79.4 120.311 78.8 121.178 77.6C122.045 76.4 122.478 74.6667 122.478 72.4V24.5C122.478 23.7667 122.711 23.1667 123.178 22.7C123.711 22.2333 124.311 22 124.978 22H138.078C138.811 22 139.411 22.2333 139.878 22.7C140.345 23.1667 140.578 23.7667 140.578 24.5V72.8C140.578 79.2667 138.645 84.2333 134.778 87.7C130.911 91.2333 125.511 93 118.578 93H112.578ZM152.64 74C151.973 74 151.373 73.7667 150.84 73.3C150.373 72.7667 150.14 72.1667 150.14 71.5V63.2C150.14 62 150.64 60.9 151.64 59.9L174.74 35.4H153.44C152.773 35.4 152.173 35.1667 151.64 34.7C151.173 34.1667 150.94 33.5667 150.94 32.9V24.5C150.94 23.7667 151.173 23.1667 151.64 22.7C152.173 22.2333 152.773 22 153.44 22H194.14C194.873 22 195.473 22.2333 195.94 22.7C196.407 23.1667 196.64 23.7667 196.64 24.5V33.5C196.64 34.5667 196.173 35.5667 195.24 36.5L172.84 60.6H196.24C196.973 60.6 197.573 60.8333 198.04 61.3C198.507 61.7667 198.74 62.3667 198.74 63.1V71.5C198.74 72.1667 198.507 72.7667 198.04 73.3C197.573 73.7667 196.973 74 196.24 74H152.64Z" fill="#353839"/>
<path d="M209.804 74C209.071 74 208.437 73.7667 207.904 73.3C207.437 72.8333 207.204 72.2333 207.204 71.5V58.3C207.204 57.5667 207.437 56.9667 207.904 56.5C208.437 55.9667 209.071 55.7 209.804 55.7H223.004C223.737 55.7 224.337 55.9667 224.804 56.5C225.271 56.9667 225.504 57.5667 225.504 58.3V71.5C225.504 72.1667 225.271 72.7667 224.804 73.3C224.337 73.7667 223.737 74 223.004 74H209.804Z" fill="#947BD3"/>
</g>
<defs>
<clipPath id="clip0">
<rect width="226" height="93" fill="white"/>
</clipPath>
</defs>
</svg>
