<svg width="3000" height="2118" viewBox="0 0 3000 2118" fill="none" xmlns="http://www.w3.org/2000/svg">
<g clip-path="url(#clip0)">
<rect width="3000" height="2117.65" fill="white"/>
<path d="M-699.22 281C820.535 851.663 2948.19 2067.57 -699.22 2365.88V281Z" fill="#D3E0CE"/>
<path d="M3533.92 -1042C2014.17 -471.337 -113.487 744.567 3533.92 1042.88V-1042Z" fill="#D3E0CE"/>
<path d="M-1120.42 427.44C399.335 998.103 2526.99 1924.15 -1120.42 2222.46V427.44Z" fill="white"/>
<path d="M3955.12 -895.56C2435.37 -324.897 307.713 601.147 3955.12 899.462V-895.56Z" fill="white"/>
<path d="M-1522 539.157C-2.24347 1038.31 2125.42 1848.3 -1522 2109.23V539.157Z" fill="#D3E0CE"/>
<path d="M4356.7 -783.843C2836.95 -284.693 709.289 525.303 4356.7 786.235V-783.843Z" fill="#D3E0CE"/>
<path d="M-1201.95 792.785C-229.029 1155.63 1133.06 1744.43 -1201.95 1934.11V792.785Z" fill="white"/>
<path d="M4036.65 -530.215C3063.73 -167.371 1701.65 421.434 4036.65 611.111V-530.215Z" fill="white"/>
<path d="M1574.96 1803.73C1574.96 1853.46 1554.03 1878.32 1512.18 1878.32C1488.94 1878.32 1470.8 1872.37 1457.74 1860.46C1444.69 1848.56 1438.16 1830.61 1438.16 1806.61V1718.48H1423.76V1712.72H1498.64V1718.48H1484.24V1809.78C1484.24 1849.9 1497.68 1869.97 1524.56 1869.97C1535.5 1869.97 1545.39 1864.59 1554.22 1853.84C1563.25 1842.9 1567.76 1828.11 1567.76 1809.49V1718.48H1545.01V1712.72H1589.36V1718.48H1574.96V1803.73ZM1675.9 1874H1603.9V1868.24H1618.3V1718.48H1603.9V1712.72H1675.9V1718.48H1661.5V1868.24H1675.9V1874ZM1772.35 1874H1766.59V1806.9H1772.35C1772.35 1824.94 1778.78 1840.3 1791.65 1852.98C1804.7 1865.65 1820.54 1871.98 1839.17 1871.98C1846.85 1871.98 1852.99 1869.78 1857.6 1865.36C1862.4 1860.75 1864.8 1854.7 1864.8 1847.22C1864.8 1838.77 1859.33 1831.57 1848.38 1825.62C1842.43 1822.54 1832.16 1817.74 1817.57 1811.22C1802.98 1804.5 1792.7 1798.83 1786.75 1794.22C1774.85 1785.01 1769.57 1772.82 1770.91 1757.65C1772.45 1742.48 1778.21 1730.77 1788.19 1722.51C1798.18 1714.06 1809.41 1709.84 1821.89 1709.84C1834.56 1709.84 1845.89 1711.57 1855.87 1715.02C1866.05 1718.29 1871.81 1719.92 1873.15 1719.92C1876.99 1719.92 1878.91 1716.56 1878.91 1709.84H1884.67V1762.54H1878.91C1878.91 1748.72 1873.82 1737.49 1863.65 1728.85C1853.47 1720.02 1840.42 1715.6 1824.48 1715.6C1817.38 1715.6 1811.81 1717.71 1807.78 1721.94C1803.74 1725.97 1801.73 1730.48 1801.73 1735.47C1801.73 1740.46 1802.4 1744.3 1803.74 1746.99C1805.09 1749.68 1807.39 1752.18 1810.66 1754.48C1814.11 1756.59 1817.09 1758.32 1819.58 1759.66C1822.08 1761.01 1826.02 1762.83 1831.39 1765.14C1836.96 1767.44 1840.8 1769.07 1842.91 1770.03C1853.47 1774.83 1859.71 1777.71 1861.63 1778.67C1863.55 1779.44 1866.34 1780.78 1869.98 1782.7C1873.63 1784.62 1876.32 1786.35 1878.05 1787.89C1879.97 1789.42 1882.37 1791.34 1885.25 1793.65C1888.13 1795.95 1890.24 1798.35 1891.58 1800.85C1892.93 1803.15 1894.27 1805.84 1895.62 1808.91C1898.3 1815.06 1899.26 1822.26 1898.5 1830.51C1896.96 1846.06 1891.1 1857.97 1880.93 1866.22C1870.94 1874.29 1857.41 1878.32 1840.32 1878.32C1824.96 1878.32 1809.7 1874.38 1794.53 1866.51C1789.34 1863.82 1785.5 1862.48 1783.01 1862.48C1775.9 1862.48 1772.35 1866.32 1772.35 1874ZM2072.63 1868.24H2087.03V1874H2015.03V1868.24H2029.43V1787.6C2029.43 1773.97 2027.41 1764.27 2023.38 1758.51C2019.35 1752.75 2013.3 1749.87 2005.23 1749.87C1994.29 1749.87 1985.55 1755.63 1979.03 1767.15V1868.24H1993.43V1874H1921.43V1868.24H1935.83V1747.28H1921.43V1741.52H1979.03V1756.5C1982.67 1751.5 1988.34 1747.28 1996.02 1743.82C2003.89 1740.18 2012.34 1738.35 2021.36 1738.35C2055.54 1738.35 2072.63 1756.88 2072.63 1793.94V1868.24ZM2164.65 1868.24H2179.05V1874H2107.05V1868.24H2121.45V1747.28H2109.93V1741.52H2164.65V1868.24ZM2167.24 1703.5C2167.24 1710.42 2164.75 1716.37 2159.76 1721.36C2154.96 1726.16 2149 1728.56 2141.9 1728.56C2134.99 1728.56 2129.04 1726.16 2124.04 1721.36C2119.05 1716.37 2116.56 1710.42 2116.56 1703.5C2116.56 1696.4 2119.05 1690.35 2124.04 1685.36C2129.04 1680.37 2134.99 1677.87 2141.9 1677.87C2149 1677.87 2154.96 1680.37 2159.76 1685.36C2164.75 1690.35 2167.24 1696.4 2167.24 1703.5ZM2251.14 1804.59V1852.11C2256.33 1862.48 2263.05 1867.66 2271.3 1867.66C2279.75 1867.66 2286.95 1862.86 2292.9 1853.26C2298.85 1843.66 2301.83 1828.3 2301.83 1807.18C2301.83 1785.87 2299.53 1770.99 2294.92 1762.54C2290.31 1753.9 2283.3 1749.58 2273.89 1749.58C2264.49 1749.58 2258.34 1753.42 2255.46 1761.1C2252.58 1768.78 2251.14 1783.28 2251.14 1804.59ZM2251.14 1754.77C2257.67 1743.63 2269.38 1738.06 2286.28 1738.06C2303.17 1738.06 2317.29 1744.21 2328.61 1756.5C2339.94 1768.78 2345.61 1786.16 2345.61 1808.62C2345.61 1831.09 2340.04 1848.66 2328.9 1861.33C2317.77 1874 2304.23 1880.34 2288.29 1880.34C2280.42 1880.34 2273.03 1878.7 2266.12 1875.44C2259.21 1872.18 2254.21 1867.28 2251.14 1860.75V1928.72H2265.54V1934.48H2207.94V1747.28H2193.54V1741.52H2251.14V1754.77ZM2417.64 1804.59V1852.11C2422.83 1862.48 2429.55 1867.66 2437.8 1867.66C2446.25 1867.66 2453.45 1862.86 2459.4 1853.26C2465.35 1843.66 2468.33 1828.3 2468.33 1807.18C2468.33 1785.87 2466.03 1770.99 2461.42 1762.54C2456.81 1753.9 2449.8 1749.58 2440.39 1749.58C2430.99 1749.58 2424.84 1753.42 2421.96 1761.1C2419.08 1768.78 2417.64 1783.28 2417.64 1804.59ZM2417.64 1754.77C2424.17 1743.63 2435.88 1738.06 2452.78 1738.06C2469.67 1738.06 2483.79 1744.21 2495.11 1756.5C2506.44 1768.78 2512.11 1786.16 2512.11 1808.62C2512.11 1831.09 2506.54 1848.66 2495.4 1861.33C2484.27 1874 2470.73 1880.34 2454.79 1880.34C2446.92 1880.34 2439.53 1878.7 2432.62 1875.44C2425.71 1872.18 2420.71 1867.28 2417.64 1860.75V1928.72H2432.04V1934.48H2374.44V1747.28H2360.04V1741.52H2417.64V1754.77ZM2659.6 1816.4H2572.62C2574.54 1850.19 2587.69 1867.09 2612.08 1867.09C2618.61 1867.09 2626 1865.55 2634.25 1862.48C2642.7 1859.41 2648.85 1855.09 2652.69 1849.52L2656.72 1852.4C2652.49 1859.5 2645.29 1865.36 2635.12 1869.97C2624.94 1874.58 2614.77 1876.88 2604.59 1876.88C2594.61 1876.88 2585.58 1875.92 2577.52 1874C2569.45 1871.89 2561.58 1868.43 2553.9 1863.63C2546.22 1858.83 2540.17 1851.63 2535.76 1842.03C2531.53 1832.43 2529.42 1820.82 2529.42 1807.18C2529.42 1783.95 2535.85 1766.77 2548.72 1755.63C2561.58 1744.3 2577.13 1738.64 2595.37 1738.64C2613.81 1738.64 2629.07 1744.78 2641.17 1757.07C2653.45 1769.36 2659.6 1789.14 2659.6 1816.4ZM2572.33 1810.64H2619.28C2619.28 1792.98 2617.36 1777.52 2613.52 1764.27C2609.87 1751.02 2603.92 1744.4 2595.66 1744.4C2587.41 1744.4 2581.45 1750.83 2577.81 1763.7C2574.16 1776.37 2572.33 1790.96 2572.33 1807.47V1810.64ZM2733.51 1747.28V1817.55C2733.51 1834.06 2734.18 1844.14 2735.53 1847.79C2736.87 1851.25 2738.31 1854.22 2739.85 1856.72C2742.73 1861.71 2747.72 1864.21 2754.82 1864.21C2762.12 1864.21 2767.21 1863.25 2770.09 1861.33V1867.09C2760.87 1873.62 2750.79 1876.88 2739.85 1876.88C2723.72 1876.88 2711.43 1873.04 2702.98 1865.36C2694.54 1857.68 2690.31 1843.95 2690.31 1824.18V1747.28H2669V1741.52H2690.31C2699.53 1739.98 2707.69 1735.57 2714.79 1728.27C2721.9 1720.78 2726.79 1710.51 2729.48 1697.46H2733.51V1741.52H2766.92V1747.28H2733.51ZM2849.38 1871.7C2869.35 1871.7 2879.33 1866.22 2879.33 1855.28C2879.33 1849.14 2875.88 1844.14 2868.97 1840.3C2862.05 1836.27 2853.7 1833.01 2843.91 1830.51C2834.12 1828.02 2824.42 1825.14 2814.82 1821.87C2805.41 1818.61 2797.54 1813.42 2791.21 1806.32C2785.06 1799.22 2782.57 1789.9 2783.72 1778.38C2784.87 1766.86 2790.73 1757.36 2801.29 1749.87C2812.04 1742.38 2825.19 1738.64 2840.74 1738.64C2856.49 1738.64 2869.16 1741.14 2878.76 1746.13C2888.36 1751.12 2893.73 1757.84 2894.89 1766.29C2895.65 1771.47 2894.79 1776.27 2892.29 1780.69C2889.99 1785.1 2886.05 1787.41 2880.49 1787.6C2875.11 1787.79 2870.6 1786.35 2866.95 1783.28C2863.49 1780.21 2861.86 1776.66 2862.05 1772.62C2862.25 1768.59 2863.78 1765.04 2866.66 1761.97C2869.54 1758.7 2870.98 1756.11 2870.98 1754.19C2870.98 1750.93 2867.81 1748.53 2861.48 1746.99C2855.33 1745.26 2848.13 1744.4 2839.88 1744.4C2831.81 1744.4 2825.19 1746.22 2820.01 1749.87C2814.82 1753.52 2812.23 1758.03 2812.23 1763.41C2812.23 1768.78 2815.4 1773.39 2821.73 1777.23C2828.26 1781.07 2836.13 1784.24 2845.35 1786.74C2854.57 1789.04 2863.69 1791.73 2872.71 1794.8C2881.93 1797.68 2889.7 1802.38 2896.04 1808.91C2902.57 1815.44 2905.83 1823.7 2905.83 1833.68C2905.83 1846.93 2901.13 1857.58 2891.72 1865.65C2882.31 1873.52 2868.1 1877.46 2849.09 1877.46C2830.09 1877.46 2814.63 1874.58 2802.73 1868.82C2791.01 1863.06 2784.58 1855.66 2783.43 1846.64C2782.66 1841.46 2783.53 1836.66 2786.02 1832.24C2788.52 1827.82 2792.45 1825.52 2797.83 1825.33C2803.21 1825.14 2807.62 1826.58 2811.08 1829.65C2814.73 1832.72 2816.45 1836.27 2816.26 1840.3C2816.07 1844.34 2814.53 1847.98 2811.65 1851.25C2808.77 1854.32 2807.33 1856.82 2807.33 1858.74C2807.33 1862.58 2811.75 1865.74 2820.58 1868.24C2829.61 1870.54 2839.21 1871.7 2849.38 1871.7Z" fill="#37373F"/>
<rect width="9.46112" height="9.46113" rx="0.825473" transform="matrix(-0.91034 -0.413861 -0.41386 0.910341 111.352 854.851)" fill="#D3E0CE"/>
<rect width="9.46112" height="9.46113" rx="0.825473" transform="matrix(-0.91034 -0.413861 -0.41386 0.910341 1138.53 221.792)" fill="#D3E0CE"/>
<path d="M184.228 1075.64C183.722 1075.41 183.159 1075.82 183.215 1076.37L184.082 1085.03C184.137 1085.58 184.769 1085.87 185.22 1085.54L192.287 1080.46C192.738 1080.14 192.669 1079.45 192.163 1079.22L184.228 1075.64Z" fill="white"/>
<path d="M1211.4 442.58C1210.9 442.352 1210.34 442.756 1210.39 443.309L1211.26 451.97C1211.31 452.522 1211.95 452.807 1212.4 452.484L1219.46 447.401C1219.91 447.078 1219.84 446.387 1219.34 446.159L1211.4 442.58Z" fill="white"/>
<ellipse cx="1349.61" cy="1608.8" rx="6.0387" ry="6.03876" fill="white"/>
<ellipse cx="2376.79" cy="975.74" rx="6.0387" ry="6.03876" fill="white"/>
<circle cx="1920.28" cy="253.098" r="6.03876" fill="white"/>
<circle r="7.54846" transform="matrix(-1 0 0 1 934.448 1459.34)" fill="#D3E0CE"/>
<circle r="7.54846" transform="matrix(-1 0 0 1 1961.62 826.281)" fill="#D3E0CE"/>
<rect width="9.16235" height="9.16227" rx="0.709036" transform="matrix(-0.910342 -0.413856 -0.413865 0.910338 2901.57 425.974)" fill="white"/>
<path d="M368.625 263.682C368.259 263.68 367.932 263.914 367.817 264.263L365.334 271.779C365.219 272.127 365.342 272.51 365.637 272.727L372.018 277.411C372.314 277.628 372.716 277.63 373.014 277.416L379.44 272.795C379.738 272.581 379.864 272.199 379.753 271.85L377.343 264.309C377.232 263.96 376.908 263.722 376.541 263.72L368.625 263.682Z" fill="white"/>
<path d="M584.176 1363.03C584.058 1363.16 584.041 1363.36 584.135 1363.52L586.172 1366.88C586.267 1367.03 586.451 1367.11 586.628 1367.07L590.45 1366.17C590.627 1366.12 590.757 1365.97 590.772 1365.79L591.097 1361.88C591.112 1361.7 591.009 1361.53 590.841 1361.46L587.22 1359.94C587.052 1359.87 586.858 1359.91 586.739 1360.05L584.176 1363.03Z" fill="white"/>
<path d="M1611.35 729.968C1611.23 730.105 1611.22 730.304 1611.31 730.46L1613.35 733.816C1613.44 733.972 1613.63 734.049 1613.8 734.007L1617.63 733.107C1617.8 733.066 1617.93 732.915 1617.95 732.733L1618.27 728.82C1618.29 728.639 1618.19 728.469 1618.02 728.398L1614.4 726.88C1614.23 726.809 1614.03 726.855 1613.92 726.993L1611.35 729.968Z" fill="white"/>
<path d="M440.137 1607.53C439.994 1607.76 440.01 1608.05 440.178 1608.25L443.797 1612.68C443.965 1612.89 444.246 1612.96 444.493 1612.86L449.824 1610.79C450.071 1610.69 450.228 1610.45 450.213 1610.18L449.888 1604.47C449.873 1604.21 449.69 1603.98 449.433 1603.92L443.902 1602.46C443.645 1602.39 443.375 1602.5 443.231 1602.72L440.137 1607.53Z" fill="white"/>
<path d="M1467.31 974.474C1467.17 974.697 1467.19 974.986 1467.35 975.192L1470.97 979.621C1471.14 979.826 1471.42 979.9 1471.67 979.804L1477 977.731C1477.25 977.635 1477.4 977.39 1477.39 977.126L1477.06 971.415C1477.05 971.151 1476.87 970.926 1476.61 970.858L1471.08 969.402C1470.82 969.335 1470.55 969.44 1470.41 969.663L1467.31 974.474Z" fill="white"/>
<path d="M1816.66 1372.89C1816.37 1372.89 1816.12 1373.07 1816.03 1373.34L1814.09 1379.2C1814 1379.48 1814.1 1379.77 1814.33 1379.94L1819.3 1383.6C1819.53 1383.77 1819.85 1383.77 1820.08 1383.6L1825.09 1380C1825.32 1379.83 1825.42 1379.53 1825.33 1379.26L1823.45 1373.38C1823.37 1373.11 1823.12 1372.92 1822.83 1372.92L1816.66 1372.89Z" fill="#D3E0CE"/>
<path d="M2843.83 739.831C2843.55 739.83 2843.29 740.013 2843.2 740.284L2841.27 746.146C2841.18 746.417 2841.27 746.716 2841.5 746.885L2846.48 750.538C2846.71 750.707 2847.02 750.709 2847.25 750.542L2852.27 746.938C2852.5 746.771 2852.6 746.473 2852.51 746.201L2850.63 740.321C2850.54 740.048 2850.29 739.863 2850.01 739.861L2843.83 739.831Z" fill="#D3E0CE"/>
<path d="M1747.75 1619.12C1747.4 1618.96 1747 1619.25 1747.04 1619.64L1748.02 1629.46C1748.06 1629.85 1748.51 1630.05 1748.82 1629.83L1756.84 1624.06C1757.16 1623.83 1757.11 1623.34 1756.76 1623.18L1747.75 1619.12Z" fill="#D3E0CE"/>
<path d="M2774.93 986.063C2774.57 985.902 2774.18 986.187 2774.21 986.576L2775.2 996.405C2775.24 996.794 2775.68 996.995 2776 996.767L2784.02 991C2784.34 990.772 2784.29 990.286 2783.93 990.125L2774.93 986.063Z" fill="#D3E0CE"/>
</g>
<defs>
<clipPath id="clip0">
<rect width="3000" height="2117.65" fill="white"/>
</clipPath>
</defs>
</svg>
